{
    "asset": {
        "generator": "COLLADA2GLTF",
        "version": "2.0"
    },
    "scene": 0,
    "scenes": [
        {
            "nodes": [
                0
            ]
        }
    ],
    "nodes": [
        {
            "children": [
                1
            ],
            "matrix": [
                1.0,
                0.0,
                0.0,
                0.0,
                0.0,
                0.0,
                -1.0,
                0.0,
                0.0,
                1.0,
                0.0,
                0.0,
                0.0,
                0.0,
                0.0,
                1.0
            ]
        },
        {
            "children": [
                8,
                6,
                4,
                2
            ],
            "matrix": [
                1.0,
                0.0,
                0.0,
                0.0,
                0.0,
                1.0,
                0.0,
                0.0,
                0.0,
                0.0,
                1.0,
                0.0,
                0.0,
                0.0,
                -101.38900756835938,
                1.0
            ]
        },
        {
            "children": [
                3
            ],
            "matrix": [
                10.449535369873049,
                -5.456256866455078,
                0.0,
                0.0,
                5.456256866455078,
                10.449535369873049,
                0.0,
                0.0,
                0.0,
                0.0,
                11.78827953338623,
                0.0,
                -595.5675048828125,
                -130.1942901611328,
                47.13138961791992,
                1.0
            ]
        },
        {
            "mesh": 0,
            "matrix": [
                1.0,
                0.0,
                0.0,
                0.0,
                0.0,
                1.0,
                0.0,
                0.0,
                0.0,
                0.0,
                1.0,
                0.0,
                -0.8351616263389587,
                -0.04745117947459221,
                0.03616936877369881,
                1.0
            ]
        },
        {
            "children": [
                5
            ],
            "matrix": [
                10.449535369873049,
                -5.456256866455078,
                0.0,
                0.0,
                5.456256866455078,
                10.449535369873049,
                0.0,
                0.0,
                0.0,
                0.0,
                11.78827953338623,
                0.0,
                -522.8472900390625,
                -172.5175933837891,
                47.13138961791992,
                1.0
            ]
        },
        {
            "mesh": 1,
            "matrix": [
                1.0,
                0.0,
                0.0,
                0.0,
                0.0,
                1.0,
                0.0,
                0.0,
                0.0,
                0.0,
                1.0,
                0.0,
                -0.8351616263389587,
                -0.04745117947459221,
                0.03616936877369881,
                1.0
            ]
        },
        {
            "children": [
                7
            ],
            "matrix": [
                10.449535369873049,
                -5.456256866455078,
                0.0,
                0.0,
                5.456256866455078,
                10.449535369873049,
                0.0,
                0.0,
                0.0,
                0.0,
                11.78827953338623,
                0.0,
                -522.8472900390625,
                -172.5175933837891,
                1.1237030029296876,
                1.0
            ]
        },
        {
            "mesh": 2,
            "matrix": [
                1.0,
                0.0,
                0.0,
                0.0,
                0.0,
                1.0,
                0.0,
                0.0,
                0.0,
                0.0,
                1.0,
                0.0,
                -0.8351616263389587,
                -0.04745117947459221,
                0.03616936877369881,
                1.0
            ]
        },
        {
            "children": [
                9
            ],
            "matrix": [
                10.449535369873049,
                -5.456256866455078,
                0.0,
                0.0,
                5.456256866455078,
                10.449535369873049,
                0.0,
                0.0,
                0.0,
                0.0,
                11.78827953338623,
                0.0,
                -595.5675048828125,
                -130.1942901611328,
                1.1237030029296876,
                1.0
            ]
        },
        {
            "mesh": 3,
            "matrix": [
                1.0,
                0.0,
                0.0,
                0.0,
                0.0,
                1.0,
                0.0,
                0.0,
                0.0,
                0.0,
                1.0,
                0.0,
                -0.8351616263389587,
                -0.04745117947459221,
                0.03616936877369881,
                1.0
            ]
        }
    ],
    "meshes": [
        {
            "primitives": [
                {
                    "attributes": {
                        "NORMAL": 1,
                        "POSITION": 2
                    },
                    "indices": 0,
                    "mode": 4,
                    "material": 0
                }
            ],
            "name": "Box02"
        },
        {
            "primitives": [
                {
                    "attributes": {
                        "NORMAL": 4,
                        "POSITION": 5
                    },
                    "indices": 3,
                    "mode": 4,
                    "material": 1
                }
            ],
            "name": "Box100"
        },
        {
            "primitives": [
                {
                    "attributes": {
                        "NORMAL": 7,
                        "POSITION": 8
                    },
                    "indices": 6,
                    "mode": 4,
                    "material": 2
                }
            ],
            "name": "Box101"
        },
        {
            "primitives": [
                {
                    "attributes": {
                        "NORMAL": 10,
                        "POSITION": 11
                    },
                    "indices": 9,
                    "mode": 4,
                    "material": 3
                }
            ],
            "name": "Box102"
        }
    ],
    "accessors": [
        {
            "bufferView": 0,
            "byteOffset": 0,
            "componentType": 5123,
            "count": 73152,
            "max": [
                12981
            ],
            "min": [
                0
            ],
            "type": "SCALAR"
        },
        {
            "bufferView": 1,
            "byteOffset": 0,
            "componentType": 5126,
            "count": 12982,
            "max": [
                1.0,
                1.0,
                1.0
            ],
            "min": [
                -1.0,
                -1.0,
                -1.0
            ],
            "type": "VEC3"
        },
        {
            "bufferView": 1,
            "byteOffset": 155784,
            "componentType": 5126,
            "count": 12982,
            "max": [
                1.9203230142593384,
                0.3449023962020874,
                0.2702983021736145
            ],
            "min": [
                -0.2500000894069672,
                -0.25,
                -0.3426370024681092
            ],
            "type": "VEC3"
        },
        {
            "bufferView": 0,
            "byteOffset": 146304,
            "componentType": 5123,
            "count": 73152,
            "max": [
                12981
            ],
            "min": [
                0
            ],
            "type": "SCALAR"
        },
        {
            "bufferView": 1,
            "byteOffset": 311568,
            "componentType": 5126,
            "count": 12982,
            "max": [
                1.0,
                1.0,
                1.0
            ],
            "min": [
                -1.0,
                -1.0,
                -1.0
            ],
            "type": "VEC3"
        },
        {
            "bufferView": 1,
            "byteOffset": 467352,
            "componentType": 5126,
            "count": 12982,
            "max": [
                1.9203230142593384,
                0.3449023962020874,
                0.2702983021736145
            ],
            "min": [
                -0.2500000894069672,
                -0.25,
                -0.3426370024681092
            ],
            "type": "VEC3"
        },
        {
            "bufferView": 0,
            "byteOffset": 292608,
            "componentType": 5123,
            "count": 73152,
            "max": [
                12981
            ],
            "min": [
                0
            ],
            "type": "SCALAR"
        },
        {
            "bufferView": 1,
            "byteOffset": 623136,
            "componentType": 5126,
            "count": 12982,
            "max": [
                1.0,
                1.0,
                1.0
            ],
            "min": [
                -1.0,
                -1.0,
                -1.0
            ],
            "type": "VEC3"
        },
        {
            "bufferView": 1,
            "byteOffset": 778920,
            "componentType": 5126,
            "count": 12982,
            "max": [
                1.9203230142593384,
                0.3449023962020874,
                0.2702983021736145
            ],
            "min": [
                -0.2500000894069672,
                -0.25,
                -0.3426370024681092
            ],
            "type": "VEC3"
        },
        {
            "bufferView": 0,
            "byteOffset": 438912,
            "componentType": 5123,
            "count": 73152,
            "max": [
                12981
            ],
            "min": [
                0
            ],
            "type": "SCALAR"
        },
        {
            "bufferView": 1,
            "byteOffset": 934704,
            "componentType": 5126,
            "count": 12982,
            "max": [
                1.0,
                1.0,
                1.0
            ],
            "min": [
                -1.0,
                -1.0,
                -1.0
            ],
            "type": "VEC3"
        },
        {
            "bufferView": 1,
            "byteOffset": 1090488,
            "componentType": 5126,
            "count": 12982,
            "max": [
                1.9203230142593384,
                0.3449023962020874,
                0.2702983021736145
            ],
            "min": [
                -0.2500000894069672,
                -0.25,
                -0.3426370024681092
            ],
            "type": "VEC3"
        }
    ],
    "materials": [
        {
            "pbrMetallicRoughness": {
                "baseColorFactor": [
                    0.9686275124549866,
                    0.9215686917304992,
                    0.8235294818878174,
                    1.0
                ],
                "metallicFactor": 0.0
            },
            "emissiveFactor": [
                0.0,
                0.0,
                0.0
            ],
            "name": "yansed"
        },
        {
            "pbrMetallicRoughness": {
                "baseColorFactor": [
                    0.9686275124549866,
                    0.9215686917304992,
                    0.8235294818878174,
                    1.0
                ],
                "metallicFactor": 0.0
            },
            "emissiveFactor": [
                0.0,
                0.0,
                0.0
            ],
            "name": "yansed"
        },
        {
            "pbrMetallicRoughness": {
                "baseColorFactor": [
                    0.9686275124549866,
                    0.9215686917304992,
                    0.8235294818878174,
                    1.0
                ],
                "metallicFactor": 0.0
            },
            "emissiveFactor": [
                0.0,
                0.0,
                0.0
            ],
            "name": "yansed"
        },
        {
            "pbrMetallicRoughness": {
                "baseColorFactor": [
                    0.9686275124549866,
                    0.9215686917304992,
                    0.8235294818878174,
                    1.0
                ],
                "metallicFactor": 0.0
            },
            "emissiveFactor": [
                0.0,
                0.0,
                0.0
            ],
            "name": "yansed"
        }
    ],
    "bufferViews": [
        {
            "buffer": 0,
            "byteOffset": 1246272,
            "byteLength": 585216,
            "target": 34963
        },
        {
            "buffer": 0,
            "byteOffset": 0,
            "byteLength": 1246272,
            "byteStride": 12,
            "target": 34962
        }
    ],
    "buffers": [
        {
            "byteLength": 1831488,
            "uri": "data:application/octet-stream;base64,"
        }
    ]
}
