{
    "asset": {
        "generator": "COLLADA2GLTF",
        "version": "2.0"
    },
    "scene": 0,
    "scenes": [
        {
            "nodes": [
                0
            ]
        }
    ],
    "nodes": [
        {
            "children": [
                1
            ],
            "matrix": [
                1.0,
                0.0,
                0.0,
                0.0,
                0.0,
                0.0,
                -1.0,
                0.0,
                0.0,
                1.0,
                0.0,
                0.0,
                0.0,
                0.0,
                0.0,
                1.0
            ]
        },
        {
            "children": [
                2
            ],
            "matrix": [
                1.0,
                0.0,
                0.0,
                0.0,
                0.0,
                1.0,
                0.0,
                0.0,
                0.0,
                0.0,
                1.0,
                0.0,
                0.0,
                0.0,
                -101.38900756835938,
                1.0
            ]
        },
        {
            "children": [
                3
            ],
            "matrix": [
                0.7999998927116394,
                0.0,
                0.0,
                0.0,
                0.0,
                0.800000011920929,
                0.0,
                0.0,
                0.0,
                0.0,
                1.0,
                0.0,
                -127.48739624023438,
                -255.08889770507813,
                27.07456970214844,
                1.0
            ]
        },
        {
            "children": [
                11,
                4
            ],
            "matrix": [
                -0.9996950626373292,
                -0.02469378150999546,
                0.0,
                0.0,
                0.02469378150999546,
                -0.9996950626373292,
                0.0,
                0.0,
                0.0,
                0.0,
                1.0,
                0.0,
                -230.3386993408203,
                -36.13811874389649,
                -15.536089897155762,
                1.0
            ]
        },
        {
            "children": [
                9,
                7,
                5
            ],
            "matrix": [
                1.0,
                0.0,
                0.0,
                0.0,
                0.0,
                1.0,
                0.0,
                0.0,
                0.0,
                0.0,
                1.0,
                0.0,
                5.875000476837158,
                10.000029563903809,
                0.0,
                1.0
            ]
        },
        {
            "children": [
                6
            ],
            "matrix": [
                -347.8979797363281,
                197.40098571777345,
                -0.00017468920850660652,
                0.0,
                -0.00005950049671810121,
                0.00016062062059063464,
                300.0,
                0.0,
                197.40101623535157,
                347.8980407714844,
                -0.00010909869888564572,
                0.0,
                -5.472930908203125,
                -9.74993896484375,
                5.008934020996094,
                1.0
            ]
        },
        {
            "mesh": 0,
            "matrix": [
                1.0,
                0.0,
                0.0,
                0.0,
                0.0,
                1.0,
                0.0,
                0.0,
                0.0,
                0.0,
                1.0,
                0.0,
                -0.20082080364227296,
                0.10913990437984468,
                -0.0014763629296794534,
                1.0
            ]
        },
        {
            "children": [
                8
            ],
            "matrix": [
                -197.4009246826172,
                -347.8982543945313,
                0.0,
                0.0,
                347.8982543945313,
                -197.4009246826172,
                0.0,
                0.0,
                0.0,
                0.0,
                300.0,
                0.0,
                -0.1250305026769638,
                0.25,
                -5.812096118927002,
                1.0
            ]
        },
        {
            "mesh": 1,
            "matrix": [
                1.0,
                0.0,
                0.0,
                0.0,
                0.0,
                1.0,
                0.0,
                0.0,
                0.0,
                0.0,
                1.0,
                0.0,
                -0.021653540432453157,
                -0.22960630059242249,
                -0.13866139948368073,
                1.0
            ]
        },
        {
            "children": [
                10
            ],
            "matrix": [
                -347.8979797363281,
                197.40098571777345,
                -0.00017468920850660652,
                0.0,
                -0.00005950049671810121,
                0.00016062062059063464,
                300.0,
                0.0,
                197.40101623535157,
                347.8980407714844,
                -0.00010909869888564572,
                0.0,
                4.725861072540283,
                8.75006103515625,
                5.008942127227783,
                1.0
            ]
        },
        {
            "mesh": 2,
            "matrix": [
                1.0,
                0.0,
                0.0,
                0.0,
                0.0,
                1.0,
                0.0,
                0.0,
                0.0,
                0.0,
                1.0,
                0.0,
                -0.20082080364227296,
                0.10913990437984468,
                -0.0014763629296794534,
                1.0
            ]
        },
        {
            "children": [
                16,
                14,
                12
            ],
            "matrix": [
                1.0,
                0.0,
                0.0,
                0.0,
                0.0,
                1.0,
                0.0,
                0.0,
                0.0,
                0.0,
                1.0,
                0.0,
                -5.921905994415283,
                -11.249969482421877,
                0.0,
                1.0
            ]
        },
        {
            "children": [
                13
            ],
            "matrix": [
                -347.8979797363281,
                197.40098571777345,
                -0.00017468920850660652,
                0.0,
                -0.00005950049671810121,
                0.00016062062059063464,
                300.0,
                0.0,
                197.40101623535157,
                347.8980407714844,
                -0.00010909869888564572,
                0.0,
                -5.472899913787842,
                -9.749908447265624,
                5.008934020996094,
                1.0
            ]
        },
        {
            "mesh": 3,
            "matrix": [
                1.0,
                0.0,
                0.0,
                0.0,
                0.0,
                1.0,
                0.0,
                0.0,
                0.0,
                0.0,
                1.0,
                0.0,
                -0.20082080364227296,
                0.10913990437984468,
                -0.0014763629296794534,
                1.0
            ]
        },
        {
            "children": [
                15
            ],
            "matrix": [
                -347.8979797363281,
                197.40098571777345,
                -0.00017468920850660652,
                0.0,
                -0.00005950049671810121,
                0.00016062062059063464,
                300.0,
                0.0,
                197.40101623535157,
                347.8980407714844,
                -0.00010909869888564572,
                0.0,
                4.72589111328125,
                8.75006103515625,
                5.008942127227783,
                1.0
            ]
        },
        {
            "mesh": 4,
            "matrix": [
                1.0,
                0.0,
                0.0,
                0.0,
                0.0,
                1.0,
                0.0,
                0.0,
                0.0,
                0.0,
                1.0,
                0.0,
                -0.20082080364227296,
                0.10913990437984468,
                -0.0014763629296794534,
                1.0
            ]
        },
        {
            "children": [
                17
            ],
            "matrix": [
                -197.4009246826172,
                -347.8982543945313,
                0.0,
                0.0,
                347.8982543945313,
                -197.4009246826172,
                0.0,
                0.0,
                0.0,
                0.0,
                300.0,
                0.0,
                -0.125,
                0.250030517578125,
                -5.812096118927002,
                1.0
            ]
        },
        {
            "mesh": 5,
            "matrix": [
                1.0,
                0.0,
                0.0,
                0.0,
                0.0,
                1.0,
                0.0,
                0.0,
                0.0,
                0.0,
                1.0,
                0.0,
                -0.021653540432453157,
                -0.22960630059242249,
                -0.13866139948368073,
                1.0
            ]
        }
    ],
    "meshes": [
        {
            "primitives": [
                {
                    "attributes": {
                        "NORMAL": 1,
                        "POSITION": 2
                    },
                    "indices": 0,
                    "mode": 4,
                    "material": 0
                }
            ],
            "name": "Arc018"
        },
        {
            "primitives": [
                {
                    "attributes": {
                        "NORMAL": 4,
                        "POSITION": 5
                    },
                    "indices": 3,
                    "mode": 4,
                    "material": 1
                }
            ],
            "name": "Group_2929"
        },
        {
            "primitives": [
                {
                    "attributes": {
                        "NORMAL": 7,
                        "POSITION": 8
                    },
                    "indices": 6,
                    "mode": 4,
                    "material": 2
                }
            ],
            "name": "Arc017"
        },
        {
            "primitives": [
                {
                    "attributes": {
                        "NORMAL": 10,
                        "POSITION": 11
                    },
                    "indices": 9,
                    "mode": 4,
                    "material": 3
                }
            ],
            "name": "Arc016"
        },
        {
            "primitives": [
                {
                    "attributes": {
                        "NORMAL": 13,
                        "POSITION": 14
                    },
                    "indices": 12,
                    "mode": 4,
                    "material": 4
                }
            ],
            "name": "Arc015"
        },
        {
            "primitives": [
                {
                    "attributes": {
                        "NORMAL": 16,
                        "POSITION": 17
                    },
                    "indices": 15,
                    "mode": 4,
                    "material": 5
                }
            ],
            "name": "Group_2928"
        }
    ],
    "accessors": [
        {
            "bufferView": 0,
            "byteOffset": 0,
            "componentType": 5123,
            "count": 11136,
            "max": [
                7434
            ],
            "min": [
                0
            ],
            "type": "SCALAR"
        },
        {
            "bufferView": 1,
            "byteOffset": 0,
            "componentType": 5126,
            "count": 7435,
            "max": [
                0.999994695186615,
                1.0,
                1.0
            ],
            "min": [
                -0.9999706149101256,
                -1.0,
                -1.0
            ],
            "type": "VEC3"
        },
        {
            "bufferView": 1,
            "byteOffset": 89220,
            "componentType": 5126,
            "count": 7435,
            "max": [
                0.4180884063243866,
                0.016450660303235059,
                0.002952755894511938
            ],
            "min": [
                -0.01644698902964592,
                -0.23473049700260166,
                0.0
            ],
            "type": "VEC3"
        },
        {
            "bufferView": 0,
            "byteOffset": 22272,
            "componentType": 5123,
            "count": 1230,
            "max": [
                643
            ],
            "min": [
                0
            ],
            "type": "SCALAR"
        },
        {
            "bufferView": 1,
            "byteOffset": 178440,
            "componentType": 5126,
            "count": 644,
            "max": [
                1.0,
                1.0,
                1.0
            ],
            "min": [
                -1.0,
                -1.0,
                -1.0
            ],
            "type": "VEC3"
        },
        {
            "bufferView": 1,
            "byteOffset": 186168,
            "componentType": 5126,
            "count": 644,
            "max": [
                0.04656248912215233,
                0.45955249667167666,
                0.2687940001487732
            ],
            "min": [
                -0.003192790085449815,
                0.0,
                0.015748029574751859
            ],
            "type": "VEC3"
        },
        {
            "bufferView": 0,
            "byteOffset": 24732,
            "componentType": 5123,
            "count": 11136,
            "max": [
                7434
            ],
            "min": [
                0
            ],
            "type": "SCALAR"
        },
        {
            "bufferView": 1,
            "byteOffset": 193896,
            "componentType": 5126,
            "count": 7435,
            "max": [
                0.999994695186615,
                1.0,
                1.0
            ],
            "min": [
                -0.9999706149101256,
                -1.0,
                -1.0
            ],
            "type": "VEC3"
        },
        {
            "bufferView": 1,
            "byteOffset": 283116,
            "componentType": 5126,
            "count": 7435,
            "max": [
                0.4180884063243866,
                0.016450660303235059,
                0.002952755894511938
            ],
            "min": [
                -0.01644698902964592,
                -0.23473049700260166,
                0.0
            ],
            "type": "VEC3"
        },
        {
            "bufferView": 0,
            "byteOffset": 47004,
            "componentType": 5123,
            "count": 11136,
            "max": [
                7434
            ],
            "min": [
                0
            ],
            "type": "SCALAR"
        },
        {
            "bufferView": 1,
            "byteOffset": 372336,
            "componentType": 5126,
            "count": 7435,
            "max": [
                0.999994695186615,
                1.0,
                1.0
            ],
            "min": [
                -0.9999706149101256,
                -1.0,
                -1.0
            ],
            "type": "VEC3"
        },
        {
            "bufferView": 1,
            "byteOffset": 461556,
            "componentType": 5126,
            "count": 7435,
            "max": [
                0.4180884063243866,
                0.016450660303235059,
                0.002952755894511938
            ],
            "min": [
                -0.01644698902964592,
                -0.23473049700260166,
                0.0
            ],
            "type": "VEC3"
        },
        {
            "bufferView": 0,
            "byteOffset": 69276,
            "componentType": 5123,
            "count": 11136,
            "max": [
                7434
            ],
            "min": [
                0
            ],
            "type": "SCALAR"
        },
        {
            "bufferView": 1,
            "byteOffset": 550776,
            "componentType": 5126,
            "count": 7435,
            "max": [
                0.999994695186615,
                1.0,
                1.0
            ],
            "min": [
                -0.9999706149101256,
                -1.0,
                -1.0
            ],
            "type": "VEC3"
        },
        {
            "bufferView": 1,
            "byteOffset": 639996,
            "componentType": 5126,
            "count": 7435,
            "max": [
                0.4180884063243866,
                0.016450660303235059,
                0.002952755894511938
            ],
            "min": [
                -0.01644698902964592,
                -0.23473049700260166,
                0.0
            ],
            "type": "VEC3"
        },
        {
            "bufferView": 0,
            "byteOffset": 91548,
            "componentType": 5123,
            "count": 1230,
            "max": [
                643
            ],
            "min": [
                0
            ],
            "type": "SCALAR"
        },
        {
            "bufferView": 1,
            "byteOffset": 729216,
            "componentType": 5126,
            "count": 644,
            "max": [
                1.0,
                1.0,
                1.0
            ],
            "min": [
                -1.0,
                -1.0,
                -1.0
            ],
            "type": "VEC3"
        },
        {
            "bufferView": 1,
            "byteOffset": 736944,
            "componentType": 5126,
            "count": 644,
            "max": [
                0.04656248912215233,
                0.45955249667167666,
                0.2687940001487732
            ],
            "min": [
                -0.003192790085449815,
                0.0,
                0.015748029574751859
            ],
            "type": "VEC3"
        }
    ],
    "materials": [
        {
            "pbrMetallicRoughness": {
                "baseColorFactor": [
                    0.02745098061859608,
                    0.02745098061859608,
                    0.02745098061859608,
                    1.0
                ],
                "metallicFactor": 0.0
            },
            "emissiveFactor": [
                0.0,
                0.0,
                0.0
            ],
            "name": "_4_-_Default"
        },
        {
            "pbrMetallicRoughness": {
                "baseColorFactor": [
                    0.5,
                    0.5,
                    0.5,
                    1.0
                ],
                "metallicFactor": 0.0
            },
            "emissiveFactor": [
                0.0,
                0.0,
                0.0
            ],
            "name": "Material43"
        },
        {
            "pbrMetallicRoughness": {
                "baseColorFactor": [
                    0.02745098061859608,
                    0.02745098061859608,
                    0.02745098061859608,
                    1.0
                ],
                "metallicFactor": 0.0
            },
            "emissiveFactor": [
                0.0,
                0.0,
                0.0
            ],
            "name": "_4_-_Default"
        },
        {
            "pbrMetallicRoughness": {
                "baseColorFactor": [
                    0.02745098061859608,
                    0.02745098061859608,
                    0.02745098061859608,
                    1.0
                ],
                "metallicFactor": 0.0
            },
            "emissiveFactor": [
                0.0,
                0.0,
                0.0
            ],
            "name": "_4_-_Default"
        },
        {
            "pbrMetallicRoughness": {
                "baseColorFactor": [
                    0.02745098061859608,
                    0.02745098061859608,
                    0.02745098061859608,
                    1.0
                ],
                "metallicFactor": 0.0
            },
            "emissiveFactor": [
                0.0,
                0.0,
                0.0
            ],
            "name": "_4_-_Default"
        },
        {
            "pbrMetallicRoughness": {
                "baseColorFactor": [
                    0.5,
                    0.5,
                    0.5,
                    1.0
                ],
                "metallicFactor": 0.0
            },
            "emissiveFactor": [
                0.0,
                0.0,
                0.0
            ],
            "name": "Material43"
        }
    ],
    "bufferViews": [
        {
            "buffer": 0,
            "byteOffset": 744672,
            "byteLength": 94008,
            "target": 34963
        },
        {
            "buffer": 0,
            "byteOffset": 0,
            "byteLength": 744672,
            "byteStride": 12,
            "target": 34962
        }
    ],
    "buffers": [
        {
            "byteLength": 838680,
            "uri": "data:application/octet-stream;base64,"
        }
    ]
}
