{
    "asset": {
        "generator": "COLLADA2GLTF",
        "version": "2.0"
    },
    "scene": 0,
    "scenes": [
        {
            "nodes": [
                0
            ]
        }
    ],
    "nodes": [
        {
            "children": [
                1
            ],
            "matrix": [
                1.0,
                0.0,
                0.0,
                0.0,
                0.0,
                0.0,
                -1.0,
                0.0,
                0.0,
                1.0,
                0.0,
                0.0,
                0.0,
                0.0,
                0.0,
                1.0
            ]
        },
        {
            "children": [
                2
            ],
            "matrix": [
                1.0,
                0.0,
                0.0,
                0.0,
                0.0,
                1.0,
                0.0,
                0.0,
                0.0,
                0.0,
                1.0,
                0.0,
                0.0,
                0.0,
                -101.38900756835938,
                1.0
            ]
        },
        {
            "children": [
                3
            ],
            "matrix": [
                1.0,
                0.0,
                0.0,
                0.0,
                0.0,
                1.0,
                0.0,
                0.0,
                0.0,
                0.0,
                1.0,
                0.0,
                775.0642700195313,
                -29.122068405151368,
                -188.80850219726566,
                1.0
            ]
        },
        {
            "mesh": 0,
            "matrix": [
                -5.33858585357666,
                2.7385213375091554,
                -0.000001975090981432004,
                0.0,
                -6.92241201249999e-7,
                0.0000015354178231063998,
                4.0,
                0.0,
                2.7385213375091554,
                5.33858585357666,
                -0.0000015753107618365905,
                0.0,
                1.9622799158096312,
                33.52975845336914,
                250.02349853515626,
                1.0
            ]
        }
    ],
    "meshes": [
        {
            "primitives": [
                {
                    "attributes": {
                        "NORMAL": 1,
                        "POSITION": 2
                    },
                    "indices": 0,
                    "mode": 4,
                    "material": 0
                },
                {
                    "attributes": {
                        "NORMAL": 4,
                        "POSITION": 5
                    },
                    "indices": 3,
                    "mode": 4,
                    "material": 1
                },
                {
                    "attributes": {
                        "NORMAL": 7,
                        "POSITION": 8
                    },
                    "indices": 6,
                    "mode": 4,
                    "material": 2
                },
                {
                    "attributes": {
                        "NORMAL": 10,
                        "POSITION": 11
                    },
                    "indices": 9,
                    "mode": 4,
                    "material": 3
                }
            ],
            "name": "Obj3d66-513922-2-224"
        }
    ],
    "accessors": [
        {
            "bufferView": 0,
            "byteOffset": 0,
            "componentType": 5123,
            "count": 26748,
            "max": [
                5981
            ],
            "min": [
                0
            ],
            "type": "SCALAR"
        },
        {
            "bufferView": 1,
            "byteOffset": 0,
            "componentType": 5126,
            "count": 5982,
            "max": [
                1.0,
                1.0,
                0.9999650120735169
            ],
            "min": [
                -1.0,
                -1.0,
                -0.9999650120735169
            ],
            "type": "VEC3"
        },
        {
            "bufferView": 1,
            "byteOffset": 71784,
            "componentType": 5126,
            "count": 5982,
            "max": [
                3.9042680263519289,
                -1.4789749383926392,
                4.803446769714356
            ],
            "min": [
                -8.658329963684082,
                -2.61588191986084,
                -4.620524883270264
            ],
            "type": "VEC3"
        },
        {
            "bufferView": 0,
            "byteOffset": 53496,
            "componentType": 5123,
            "count": 50376,
            "max": [
                19724
            ],
            "min": [
                0
            ],
            "type": "SCALAR"
        },
        {
            "bufferView": 1,
            "byteOffset": 143568,
            "componentType": 5126,
            "count": 19725,
            "max": [
                1.0,
                1.0,
                1.0
            ],
            "min": [
                -1.0,
                -1.0,
                -1.0
            ],
            "type": "VEC3"
        },
        {
            "bufferView": 1,
            "byteOffset": 380268,
            "componentType": 5126,
            "count": 19725,
            "max": [
                3.4787158966064459,
                2.084073066711426,
                6.514925003051758
            ],
            "min": [
                -5.793683052062988,
                -3.7369189262390138,
                -6.449182987213135
            ],
            "type": "VEC3"
        },
        {
            "bufferView": 0,
            "byteOffset": 154248,
            "componentType": 5123,
            "count": 63030,
            "max": [
                27062
            ],
            "min": [
                0
            ],
            "type": "SCALAR"
        },
        {
            "bufferView": 1,
            "byteOffset": 616968,
            "componentType": 5126,
            "count": 27063,
            "max": [
                1.0,
                1.0,
                1.0
            ],
            "min": [
                -1.0,
                -1.0,
                -1.0
            ],
            "type": "VEC3"
        },
        {
            "bufferView": 1,
            "byteOffset": 941724,
            "componentType": 5126,
            "count": 27063,
            "max": [
                3.612154960632324,
                3.333319902420044,
                7.158263206481934
            ],
            "min": [
                -8.366217613220215,
                -6.522832870483398,
                -7.092443943023682
            ],
            "type": "VEC3"
        },
        {
            "bufferView": 0,
            "byteOffset": 280308,
            "componentType": 5123,
            "count": 15210,
            "max": [
                4835
            ],
            "min": [
                0
            ],
            "type": "SCALAR"
        },
        {
            "bufferView": 1,
            "byteOffset": 1266480,
            "componentType": 5126,
            "count": 4836,
            "max": [
                1.0,
                0.9999248385429382,
                0.9999979734420776
            ],
            "min": [
                -1.0,
                -0.9999248385429382,
                -0.9999719858169556
            ],
            "type": "VEC3"
        },
        {
            "bufferView": 1,
            "byteOffset": 1324512,
            "componentType": 5126,
            "count": 4836,
            "max": [
                3.2172648906707765,
                -1.3972599506378174,
                4.682018756866455
            ],
            "min": [
                -7.97132682800293,
                -3.270982027053833,
                -4.682682991027832
            ],
            "type": "VEC3"
        }
    ],
    "materials": [
        {
            "pbrMetallicRoughness": {
                "baseColorFactor": [
                    0.6627451181411743,
                    0.19215689599514008,
                    0.19215689599514008,
                    1.0
                ],
                "metallicFactor": 0.0
            },
            "emissiveFactor": [
                0.0,
                0.0,
                0.0
            ],
            "name": "Mat3d66-513922-3-262"
        },
        {
            "pbrMetallicRoughness": {
                "baseColorFactor": [
                    0.6392157077789307,
                    0.6392157077789307,
                    0.6392157077789307,
                    1.0
                ],
                "metallicFactor": 0.0
            },
            "emissiveFactor": [
                0.0,
                0.0,
                0.0
            ],
            "name": "Mat3d66-513922-5-369"
        },
        {
            "pbrMetallicRoughness": {
                "baseColorFactor": [
                    0.6235294342041016,
                    0.5529412031173706,
                    0.1568627953529358,
                    1.0
                ],
                "metallicFactor": 0.0
            },
            "emissiveFactor": [
                0.0,
                0.0,
                0.0
            ],
            "name": "Mat3d66-513922-2-814"
        },
        {
            "pbrMetallicRoughness": {
                "baseColorFactor": [
                    0.08627451211214066,
                    0.10196080058813097,
                    0.4117647111415863,
                    1.0
                ],
                "metallicFactor": 0.0
            },
            "emissiveFactor": [
                0.0,
                0.0,
                0.0
            ],
            "name": "Mat3d66-513922-1-198"
        }
    ],
    "bufferViews": [
        {
            "buffer": 0,
            "byteOffset": 1382544,
            "byteLength": 310728,
            "target": 34963
        },
        {
            "buffer": 0,
            "byteOffset": 0,
            "byteLength": 1382544,
            "byteStride": 12,
            "target": 34962
        }
    ],
    "buffers": [
        {
            "byteLength": 1693272,
            "uri": "data:application/octet-stream;base64,"
        }
    ]
}
