{
    "asset": {
        "generator": "COLLADA2GLTF",
        "version": "2.0"
    },
    "scene": 0,
    "scenes": [
        {
            "nodes": [
                0
            ]
        }
    ],
    "nodes": [
        {
            "children": [
                1
            ],
            "matrix": [
                1.0,
                0.0,
                0.0,
                0.0,
                0.0,
                0.0,
                -1.0,
                0.0,
                0.0,
                1.0,
                0.0,
                0.0,
                0.0,
                0.0,
                0.0,
                1.0
            ]
        },
        {
            "children": [
                2
            ],
            "matrix": [
                1.0,
                0.0,
                0.0,
                0.0,
                0.0,
                1.0,
                0.0,
                0.0,
                0.0,
                0.0,
                1.0,
                0.0,
                0.0,
                0.0,
                -101.38900756835938,
                1.0
            ]
        },
        {
            "children": [
                3
            ],
            "matrix": [
                1.0,
                0.0,
                0.0,
                0.0,
                0.0,
                1.0,
                0.0,
                0.0,
                0.0,
                0.0,
                1.0,
                0.0,
                775.0642700195313,
                -29.122068405151368,
                -188.80850219726566,
                1.0
            ]
        },
        {
            "children": [
                4
            ],
            "matrix": [
                -13.533266067504885,
                -26.774066925048829,
                0.00001020040872390382,
                0.0,
                -2.3742201449294954e-7,
                -0.000007499610546801705,
                -20.0,
                0.0,
                26.774066925048829,
                -13.533266067504885,
                0.000004756873750011437,
                0.0,
                7.4776611328125,
                13.998109817504885,
                241.56459045410157,
                1.0
            ]
        },
        {
            "mesh": 0,
            "matrix": [
                1.0,
                0.0,
                0.0,
                0.0,
                0.0,
                1.0,
                0.0,
                0.0,
                0.0,
                0.0,
                1.0,
                0.0,
                3.9561069011688234,
                -1.790143966674805,
                1.3157739639282229,
                1.0
            ]
        }
    ],
    "meshes": [
        {
            "primitives": [
                {
                    "attributes": {
                        "NORMAL": 1,
                        "POSITION": 2
                    },
                    "indices": 0,
                    "mode": 4,
                    "material": 0
                },
                {
                    "attributes": {
                        "NORMAL": 4,
                        "POSITION": 5
                    },
                    "indices": 3,
                    "mode": 4,
                    "material": 1
                },
                {
                    "attributes": {
                        "NORMAL": 7,
                        "POSITION": 8
                    },
                    "indices": 6,
                    "mode": 4,
                    "material": 2
                },
                {
                    "attributes": {
                        "NORMAL": 10,
                        "POSITION": 11
                    },
                    "indices": 9,
                    "mode": 4,
                    "material": 3
                },
                {
                    "attributes": {
                        "NORMAL": 13,
                        "POSITION": 14
                    },
                    "indices": 12,
                    "mode": 4,
                    "material": 4
                },
                {
                    "attributes": {
                        "NORMAL": 16,
                        "POSITION": 17
                    },
                    "indices": 15,
                    "mode": 4,
                    "material": 5
                }
            ],
            "name": "Obj3d66-457295-1-543"
        }
    ],
    "accessors": [
        {
            "bufferView": 0,
            "byteOffset": 0,
            "componentType": 5123,
            "count": 25530,
            "max": [
                19441
            ],
            "min": [
                0
            ],
            "type": "SCALAR"
        },
        {
            "bufferView": 1,
            "byteOffset": 0,
            "componentType": 5126,
            "count": 19442,
            "max": [
                1.0,
                1.0,
                1.0
            ],
            "min": [
                -1.0,
                -1.0,
                -1.0
            ],
            "type": "VEC3"
        },
        {
            "bufferView": 1,
            "byteOffset": 233304,
            "componentType": 5126,
            "count": 19442,
            "max": [
                0.09258295595645905,
                2.795339107513428,
                0.0000012207000281705405
            ],
            "min": [
                -7.016016006469727,
                -0.061529237776994708,
                -2.64791488647461
            ],
            "type": "VEC3"
        },
        {
            "bufferView": 0,
            "byteOffset": 51060,
            "componentType": 5123,
            "count": 2550,
            "max": [
                1708
            ],
            "min": [
                0
            ],
            "type": "SCALAR"
        },
        {
            "bufferView": 1,
            "byteOffset": 466608,
            "componentType": 5126,
            "count": 1709,
            "max": [
                1.0,
                1.0,
                1.0
            ],
            "min": [
                -1.0,
                -1.0,
                -1.0
            ],
            "type": "VEC3"
        },
        {
            "bufferView": 1,
            "byteOffset": 487116,
            "componentType": 5126,
            "count": 1709,
            "max": [
                -6.169716835021973,
                2.622776985168457,
                0.00527792377397418
            ],
            "min": [
                -6.860579013824463,
                0.1093784049153328,
                -2.636826038360596
            ],
            "type": "VEC3"
        },
        {
            "bufferView": 0,
            "byteOffset": 56160,
            "componentType": 5123,
            "count": 1716,
            "max": [
                441
            ],
            "min": [
                0
            ],
            "type": "SCALAR"
        },
        {
            "bufferView": 1,
            "byteOffset": 507624,
            "componentType": 5126,
            "count": 442,
            "max": [
                1.0,
                1.0,
                1.0
            ],
            "min": [
                -1.0,
                -0.9951841235160828,
                -1.0
            ],
            "type": "VEC3"
        },
        {
            "bufferView": 1,
            "byteOffset": 512928,
            "componentType": 5126,
            "count": 442,
            "max": [
                -3.041879892349243,
                2.03041410446167,
                -0.9916067123413086
            ],
            "min": [
                -6.928943157196045,
                1.1645580530166629,
                -2.617116928100586
            ],
            "type": "VEC3"
        },
        {
            "bufferView": 0,
            "byteOffset": 59592,
            "componentType": 5123,
            "count": 1272,
            "max": [
                700
            ],
            "min": [
                0
            ],
            "type": "SCALAR"
        },
        {
            "bufferView": 1,
            "byteOffset": 518232,
            "componentType": 5126,
            "count": 701,
            "max": [
                0.9988592267036438,
                1.0,
                1.0
            ],
            "min": [
                -1.0,
                -1.0,
                -1.0
            ],
            "type": "VEC3"
        },
        {
            "bufferView": 1,
            "byteOffset": 526644,
            "componentType": 5126,
            "count": 701,
            "max": [
                -6.915224075317383,
                2.334764957427979,
                -1.6158560514450074
            ],
            "min": [
                -6.945989608764648,
                0.4862754940986634,
                -1.761883020401001
            ],
            "type": "VEC3"
        },
        {
            "bufferView": 0,
            "byteOffset": 62136,
            "componentType": 5123,
            "count": 372,
            "max": [
                127
            ],
            "min": [
                0
            ],
            "type": "SCALAR"
        },
        {
            "bufferView": 1,
            "byteOffset": 535056,
            "componentType": 5126,
            "count": 128,
            "max": [
                1.0,
                0.9951848983764648,
                0.995185136795044
            ],
            "min": [
                -1.0,
                -0.9951848983764648,
                -0.9951838850975036
            ],
            "type": "VEC3"
        },
        {
            "bufferView": 1,
            "byteOffset": 536592,
            "componentType": 5126,
            "count": 128,
            "max": [
                -6.912319183349609,
                2.0172269344329836,
                -1.0047930479049685
            ],
            "min": [
                -6.914319038391113,
                1.17774498462677,
                -1.608458995819092
            ],
            "type": "VEC3"
        },
        {
            "bufferView": 0,
            "byteOffset": 62880,
            "componentType": 5123,
            "count": 36,
            "max": [
                23
            ],
            "min": [
                0
            ],
            "type": "SCALAR"
        },
        {
            "bufferView": 1,
            "byteOffset": 538128,
            "componentType": 5126,
            "count": 24,
            "max": [
                1.0,
                1.0,
                1.0
            ],
            "min": [
                -1.0,
                -1.0,
                -1.0
            ],
            "type": "VEC3"
        },
        {
            "bufferView": 1,
            "byteOffset": 538416,
            "componentType": 5126,
            "count": 24,
            "max": [
                -3.044588088989258,
                2.460766077041626,
                -2.6052489280700685
            ],
            "min": [
                -3.728102922439575,
                2.202617883682251,
                -2.6066770553588869
            ],
            "type": "VEC3"
        }
    ],
    "materials": [
        {
            "pbrMetallicRoughness": {
                "baseColorFactor": [
                    0.5,
                    0.5,
                    0.5,
                    1.0
                ],
                "metallicFactor": 0.0
            },
            "emissiveFactor": [
                0.0,
                0.0,
                0.0
            ],
            "name": "Material__2"
        },
        {
            "pbrMetallicRoughness": {
                "baseColorFactor": [
                    0.5,
                    0.5,
                    0.5,
                    1.0
                ],
                "metallicFactor": 0.0
            },
            "emissiveFactor": [
                0.0,
                0.0,
                0.0
            ],
            "name": "Material__4"
        },
        {
            "pbrMetallicRoughness": {
                "baseColorFactor": [
                    0.007843137718737126,
                    0.007843137718737126,
                    0.007843137718737126,
                    1.0
                ],
                "metallicFactor": 0.0
            },
            "emissiveFactor": [
                0.0,
                0.0,
                0.0
            ],
            "name": "Material__6"
        },
        {
            "pbrMetallicRoughness": {
                "baseColorFactor": [
                    0.5,
                    0.5,
                    0.5,
                    1.0
                ],
                "metallicFactor": 0.0
            },
            "emissiveFactor": [
                0.0,
                0.0,
                0.0
            ],
            "name": "Material__5"
        },
        {
            "pbrMetallicRoughness": {
                "baseColorFactor": [
                    0.0,
                    0.0,
                    0.0,
                    1.0
                ],
                "metallicFactor": 0.0
            },
            "emissiveFactor": [
                0.0,
                0.0,
                0.0
            ],
            "name": "Material__20"
        },
        {
            "pbrMetallicRoughness": {
                "baseColorFactor": [
                    0.5,
                    0.5,
                    0.5,
                    1.0
                ],
                "metallicFactor": 0.0
            },
            "emissiveFactor": [
                0.0,
                0.0,
                0.0
            ],
            "name": "Material__21"
        }
    ],
    "bufferViews": [
        {
            "buffer": 0,
            "byteOffset": 538704,
            "byteLength": 62952,
            "target": 34963
        },
        {
            "buffer": 0,
            "byteOffset": 0,
            "byteLength": 538704,
            "byteStride": 12,
            "target": 34962
        }
    ],
    "buffers": [
        {
            "byteLength": 601656,
            "uri": "data:application/octet-stream;base64,"
        }
    ]
}
