{
    "asset": {
        "generator": "COLLADA2GLTF",
        "version": "2.0"
    },
    "scene": 0,
    "scenes": [
        {
            "nodes": [
                0
            ]
        }
    ],
    "nodes": [
        {
            "children": [
                1
            ],
            "matrix": [
                1.0,
                0.0,
                0.0,
                0.0,
                0.0,
                0.0,
                -1.0,
                0.0,
                0.0,
                1.0,
                0.0,
                0.0,
                0.0,
                0.0,
                0.0,
                1.0
            ]
        },
        {
            "children": [
                2
            ],
            "matrix": [
                1.0,
                0.0,
                0.0,
                0.0,
                0.0,
                1.0,
                0.0,
                0.0,
                0.0,
                0.0,
                1.0,
                0.0,
                0.0,
                0.0,
                -101.38900756835938,
                1.0
            ]
        },
        {
            "children": [
                8,
                7,
                5,
                4,
                3
            ],
            "matrix": [
                2.2825074195861818,
                4.448613166809082,
                0.0,
                0.0,
                -6.228058815002441,
                3.1955103874206545,
                0.0,
                0.0,
                0.0,
                0.0,
                4.0,
                0.0,
                458.6136779785156,
                -639.1895141601563,
                125.37129974365236,
                1.0
            ]
        },
        {
            "mesh": 0,
            "matrix": [
                -1.0,
                -1.4901159417490817e-8,
                5.2109385599921629e-14,
                0.0,
                -1.4901159417490817e-8,
                1.0,
                -0.0000015978068859112682,
                0.0,
                2.8300211024449855e-14,
                0.0000015978068859112682,
                1.0,
                0.0,
                -0.1317290961742401,
                -1.2325899600982669,
                -0.6166505813598633,
                1.0
            ]
        },
        {
            "mesh": 1,
            "matrix": [
                -1.0,
                -1.4901159417490817e-8,
                5.2109385599921629e-14,
                0.0,
                -1.4901159417490817e-8,
                1.0,
                -0.0000015978068859112682,
                0.0,
                2.8300211024449855e-14,
                0.0000015978068859112682,
                1.0,
                0.0,
                -0.1317290961742401,
                -1.2325899600982669,
                -4.0166521072387699,
                1.0
            ]
        },
        {
            "children": [
                6
            ],
            "matrix": [
                1.0,
                0.00010427770757814868,
                -3.28311728026165e-7,
                0.0,
                3.282677596416761e-7,
                4.214856232920283e-7,
                1.0,
                0.0,
                -0.00010427770757814868,
                1.0,
                -4.214514035538741e-7,
                0.0,
                2.223267078399658,
                -1.597458004951477,
                2.011610984802246,
                1.0
            ]
        },
        {
            "mesh": 2,
            "matrix": [
                1.0,
                0.0,
                0.0,
                0.0,
                0.0,
                1.0,
                0.0,
                0.0,
                0.0,
                0.0,
                1.0,
                0.0,
                8.24148941040039,
                -0.06503672897815705,
                0.01746875047683716,
                1.0
            ]
        },
        {
            "mesh": 3,
            "matrix": [
                -1.0,
                -1.4901159417490817e-8,
                5.2109385599921629e-14,
                0.0,
                -1.4901159417490817e-8,
                1.0,
                -0.0000015978068859112682,
                0.0,
                2.8300211024449855e-14,
                0.0000015978068859112682,
                1.0,
                0.0,
                -0.1317290961742401,
                -1.2325899600982669,
                -4.0166521072387699,
                1.0
            ]
        },
        {
            "children": [
                9
            ],
            "matrix": [
                1.0,
                0.00010427770757814868,
                -3.28311728026165e-7,
                0.0,
                3.282677596416761e-7,
                4.214856232920283e-7,
                1.0,
                0.0,
                -0.00010427770757814868,
                1.0,
                -4.214514035538741e-7,
                0.0,
                2.2325289249420168,
                -1.5689619779586793,
                2.050004005432129,
                1.0
            ]
        },
        {
            "mesh": 4,
            "matrix": [
                1.0,
                0.0,
                0.0,
                0.0,
                0.0,
                1.0,
                0.0,
                0.0,
                0.0,
                0.0,
                1.0,
                0.0,
                8.232300758361817,
                -0.10343080013990402,
                -2.526437997817993,
                1.0
            ]
        }
    ],
    "meshes": [
        {
            "primitives": [
                {
                    "attributes": {
                        "NORMAL": 1,
                        "POSITION": 2,
                        "TEXCOORD_0": 3
                    },
                    "indices": 0,
                    "mode": 4,
                    "material": 0
                }
            ],
            "name": "Obj3d66-607053-172-131"
        },
        {
            "primitives": [
                {
                    "attributes": {
                        "NORMAL": 5,
                        "POSITION": 6
                    },
                    "indices": 4,
                    "mode": 4,
                    "material": 1
                }
            ],
            "name": "Obj3d66-607053-173-248"
        },
        {
            "primitives": [
                {
                    "attributes": {
                        "NORMAL": 8,
                        "POSITION": 9
                    },
                    "indices": 7,
                    "mode": 4,
                    "material": 2
                }
            ],
            "name": "Obj3d66-607053-175-463"
        },
        {
            "primitives": [
                {
                    "attributes": {
                        "NORMAL": 11,
                        "POSITION": 12,
                        "TEXCOORD_0": 13
                    },
                    "indices": 10,
                    "mode": 4,
                    "material": 3
                }
            ],
            "name": "Obj3d66-607053-176-063"
        },
        {
            "primitives": [
                {
                    "attributes": {
                        "NORMAL": 15,
                        "POSITION": 16
                    },
                    "indices": 14,
                    "mode": 4,
                    "material": 4
                }
            ],
            "name": "Obj3d66-607053-174-174"
        }
    ],
    "accessors": [
        {
            "bufferView": 0,
            "byteOffset": 0,
            "componentType": 5123,
            "count": 84,
            "max": [
                81
            ],
            "min": [
                0
            ],
            "type": "SCALAR"
        },
        {
            "bufferView": 1,
            "byteOffset": 0,
            "componentType": 5126,
            "count": 82,
            "max": [
                1.0,
                1.0,
                1.0
            ],
            "min": [
                -1.0,
                -1.0,
                -1.0
            ],
            "type": "VEC3"
        },
        {
            "bufferView": 1,
            "byteOffset": 984,
            "componentType": 5126,
            "count": 82,
            "max": [
                12.665000915527344,
                3.849999904632569,
                0.699999988079071
            ],
            "min": [
                -9.696625709533692,
                -1.4704689979553225,
                0.0
            ],
            "type": "VEC3"
        },
        {
            "bufferView": 2,
            "byteOffset": 0,
            "componentType": 5126,
            "count": 82,
            "max": [
                25.76358985900879,
                4.350006103515625
            ],
            "min": [
                -24.76358985900879,
                -3.349998950958252
            ],
            "type": "VEC2"
        },
        {
            "bufferView": 0,
            "byteOffset": 168,
            "componentType": 5123,
            "count": 24,
            "max": [
                23
            ],
            "min": [
                0
            ],
            "type": "SCALAR"
        },
        {
            "bufferView": 1,
            "byteOffset": 1968,
            "componentType": 5126,
            "count": 24,
            "max": [
                1.0,
                1.0,
                0.9842379093170166
            ],
            "min": [
                -0.17684920132160188,
                -1.0,
                -1.0
            ],
            "type": "VEC3"
        },
        {
            "bufferView": 1,
            "byteOffset": 2256,
            "componentType": 5126,
            "count": 24,
            "max": [
                12.665000915527344,
                3.75,
                4.0
            ],
            "min": [
                -9.596625328063965,
                -1.3704689741134644,
                0.0
            ],
            "type": "VEC3"
        },
        {
            "bufferView": 0,
            "byteOffset": 216,
            "componentType": 5123,
            "count": 3264,
            "max": [
                1895
            ],
            "min": [
                0
            ],
            "type": "SCALAR"
        },
        {
            "bufferView": 1,
            "byteOffset": 2544,
            "componentType": 5126,
            "count": 1896,
            "max": [
                1.0,
                1.0,
                1.0
            ],
            "min": [
                -1.0,
                -1.0,
                -1.0
            ],
            "type": "VEC3"
        },
        {
            "bufferView": 1,
            "byteOffset": 25296,
            "componentType": 5126,
            "count": 1896,
            "max": [
                -0.9997696280479432,
                1.9849040508270264,
                4.148030757904053
            ],
            "min": [
                -21.61965942382813,
                -1.8548280000686648,
                -1.0502899885177613
            ],
            "type": "VEC3"
        },
        {
            "bufferView": 0,
            "byteOffset": 6744,
            "componentType": 5123,
            "count": 60,
            "max": [
                57
            ],
            "min": [
                0
            ],
            "type": "SCALAR"
        },
        {
            "bufferView": 1,
            "byteOffset": 48048,
            "componentType": 5126,
            "count": 58,
            "max": [
                1.0,
                1.0,
                1.0
            ],
            "min": [
                -1.3973399326516756e-8,
                -1.0,
                -1.0
            ],
            "type": "VEC3"
        },
        {
            "bufferView": 1,
            "byteOffset": 48744,
            "componentType": 5126,
            "count": 58,
            "max": [
                12.665000915527344,
                3.849999904632569,
                3.400000095367432
            ],
            "min": [
                -12.928449630737305,
                -1.4704689979553225,
                -2.441410060782801e-7
            ],
            "type": "VEC3"
        },
        {
            "bufferView": 2,
            "byteOffset": 656,
            "componentType": 5126,
            "count": 58,
            "max": [
                25.76360893249512,
                4.350006103515625
            ],
            "min": [
                -24.76360893249512,
                -3.350006103515625
            ],
            "type": "VEC2"
        },
        {
            "bufferView": 0,
            "byteOffset": 6864,
            "componentType": 5123,
            "count": 468,
            "max": [
                187
            ],
            "min": [
                0
            ],
            "type": "SCALAR"
        },
        {
            "bufferView": 1,
            "byteOffset": 49440,
            "componentType": 5126,
            "count": 188,
            "max": [
                1.0,
                0.9974666833877564,
                1.0
            ],
            "min": [
                -1.0,
                -1.0,
                -1.0
            ],
            "type": "VEC3"
        },
        {
            "bufferView": 1,
            "byteOffset": 51696,
            "componentType": 5126,
            "count": 188,
            "max": [
                -0.8986024260520935,
                2.0700860023498537,
                6.958708763122559
            ],
            "min": [
                -21.70241928100586,
                -1.8632240295410157,
                1.2327280044555665
            ],
            "type": "VEC3"
        }
    ],
    "materials": [
        {
            "pbrMetallicRoughness": {
                "baseColorTexture": {
                    "index": 0
                },
                "metallicFactor": 0.0
            },
            "emissiveFactor": [
                0.0,
                0.0,
                0.0
            ],
            "occlusionTexture": {
                "index": 0
            },
            "name": "Mat3d66-607053-24-645"
        },
        {
            "pbrMetallicRoughness": {
                "baseColorFactor": [
                    0.5,
                    0.5,
                    0.5,
                    1.0
                ],
                "metallicFactor": 0.0
            },
            "emissiveFactor": [
                0.0,
                0.0,
                0.0
            ],
            "name": "Mat3d66-607053-12-820"
        },
        {
            "pbrMetallicRoughness": {
                "baseColorFactor": [
                    0.3019607961177826,
                    0.27450981736183169,
                    0.250980406999588,
                    1.0
                ],
                "metallicFactor": 0.0
            },
            "emissiveFactor": [
                0.0,
                0.0,
                0.0
            ],
            "name": "Mat3d66-607053-30-629"
        },
        {
            "pbrMetallicRoughness": {
                "baseColorTexture": {
                    "index": 0
                },
                "metallicFactor": 0.0
            },
            "emissiveFactor": [
                0.0,
                0.0,
                0.0
            ],
            "occlusionTexture": {
                "index": 0
            },
            "name": "Mat3d66-607053-24-645"
        },
        {
            "pbrMetallicRoughness": {
                "baseColorFactor": [
                    0.4549019932746887,
                    0.533333420753479,
                    0.6235294342041016,
                    1.0
                ],
                "metallicFactor": 0.0
            },
            "emissiveFactor": [
                0.0,
                0.0,
                0.0
            ],
            "name": "Mat3d66-607053-29-216"
        }
    ],
    "textures": [
        {
            "sampler": 0,
            "source": 0
        }
    ],
    "images": [
        {
            "uri": "data:image/jpeg;base64,"
        }
    ],
    "samplers": [
        {
            "magFilter": 9729,
            "minFilter": 9986,
            "wrapS": 10497,
            "wrapT": 10497
        }
    ],
    "bufferViews": [
        {
            "buffer": 0,
            "byteOffset": 55072,
            "byteLength": 7800,
            "target": 34963
        },
        {
            "buffer": 0,
            "byteOffset": 0,
            "byteLength": 53952,
            "byteStride": 12,
            "target": 34962
        },
        {
            "buffer": 0,
            "byteOffset": 53952,
            "byteLength": 1120,
            "byteStride": 8,
            "target": 34962
        }
    ],
    "buffers": [
        {
            "byteLength": 62872,
            "uri": "data:application/octet-stream;base64,"
        }
    ]
}
