{
    "asset": {
        "generator": "COLLADA2GLTF",
        "version": "2.0"
    },
    "scene": 0,
    "scenes": [
        {
            "nodes": [
                0
            ]
        }
    ],
    "nodes": [
        {
            "children": [
                1
            ],
            "matrix": [
                1.0,
                0.0,
                0.0,
                0.0,
                0.0,
                0.0,
                -1.0,
                0.0,
                0.0,
                1.0,
                0.0,
                0.0,
                0.0,
                0.0,
                0.0,
                1.0
            ]
        },
        {
            "children": [
                2
            ],
            "matrix": [
                1.0,
                0.0,
                0.0,
                0.0,
                0.0,
                1.0,
                0.0,
                0.0,
                0.0,
                0.0,
                1.0,
                0.0,
                0.0,
                0.0,
                -101.38900756835938,
                1.0
            ]
        },
        {
            "children": [
                3
            ],
            "matrix": [
                1.0,
                0.0,
                0.0,
                0.0,
                0.0,
                1.0,
                0.0,
                0.0,
                0.0,
                0.0,
                1.0,
                0.0,
                -131.8083953857422,
                -247.0830078125,
                146.26129150390626,
                1.0
            ]
        },
        {
            "children": [
                8,
                7,
                6,
                5,
                4
            ],
            "matrix": [
                1.0,
                0.0,
                0.0,
                0.0,
                0.0,
                1.0,
                0.0,
                0.0,
                0.0,
                0.0,
                1.0,
                0.0,
                0.0,
                0.25,
                -18.929630279541017,
                1.0
            ]
        },
        {
            "mesh": 0,
            "matrix": [
                1.0,
                0.0,
                0.0,
                0.0,
                0.0,
                1.0,
                0.0,
                0.0,
                0.0,
                0.0,
                1.0,
                0.0,
                0.0,
                -3.843169927597046,
                -2.02783203125,
                1.0
            ]
        },
        {
            "mesh": 1,
            "matrix": [
                1.0,
                0.0,
                0.0,
                0.0,
                0.0,
                1.0,
                0.0,
                0.0,
                0.0,
                0.0,
                1.0,
                0.0,
                -0.02005005069077015,
                -3.478972911834717,
                -2.12139892578125,
                1.0
            ]
        },
        {
            "mesh": 2,
            "matrix": [
                1.0,
                0.0,
                0.0,
                0.0,
                0.0,
                1.0,
                0.0,
                0.0,
                0.0,
                0.0,
                1.0,
                0.0,
                -1.7132869958877564,
                -4.014373779296875,
                -0.0178222693502903,
                1.0
            ]
        },
        {
            "mesh": 3,
            "matrix": [
                1.0,
                0.0,
                0.0,
                0.0,
                0.0,
                1.0,
                0.0,
                0.0,
                0.0,
                0.0,
                1.0,
                0.0,
                -1.842437982559204,
                -3.902863025665283,
                2.709778070449829,
                1.0
            ]
        },
        {
            "mesh": 4,
            "matrix": [
                1.0,
                0.0,
                0.0,
                0.0,
                0.0,
                1.0,
                0.0,
                0.0,
                0.0,
                0.0,
                1.0,
                0.0,
                -1.3074949979782105,
                -4.046295166015625,
                0.31561279296875,
                1.0
            ]
        }
    ],
    "meshes": [
        {
            "primitives": [
                {
                    "attributes": {
                        "NORMAL": 1,
                        "POSITION": 2,
                        "TEXCOORD_0": 3
                    },
                    "indices": 0,
                    "mode": 4,
                    "material": 0
                }
            ],
            "name": "Donut001"
        },
        {
            "primitives": [
                {
                    "attributes": {
                        "NORMAL": 5,
                        "POSITION": 6,
                        "TEXCOORD_0": 7
                    },
                    "indices": 4,
                    "mode": 4,
                    "material": 1
                }
            ],
            "name": "Donut002"
        },
        {
            "primitives": [
                {
                    "attributes": {
                        "NORMAL": 9,
                        "POSITION": 10,
                        "TEXCOORD_0": 11
                    },
                    "indices": 8,
                    "mode": 4,
                    "material": 2
                }
            ],
            "name": "Donut004"
        },
        {
            "primitives": [
                {
                    "attributes": {
                        "NORMAL": 13,
                        "POSITION": 14,
                        "TEXCOORD_0": 15
                    },
                    "indices": 12,
                    "mode": 4,
                    "material": 3
                }
            ],
            "name": "Circle001"
        },
        {
            "primitives": [
                {
                    "attributes": {
                        "NORMAL": 17,
                        "POSITION": 18,
                        "TEXCOORD_0": 19
                    },
                    "indices": 16,
                    "mode": 4,
                    "material": 4
                }
            ],
            "name": "Donut003"
        }
    ],
    "accessors": [
        {
            "bufferView": 0,
            "byteOffset": 0,
            "componentType": 5123,
            "count": 141,
            "max": [
                48
            ],
            "min": [
                0
            ],
            "type": "SCALAR"
        },
        {
            "bufferView": 1,
            "byteOffset": 0,
            "componentType": 5126,
            "count": 49,
            "max": [
                0.0004083189996890724,
                0.05796130001544953,
                1.0
            ],
            "min": [
                -0.03687059879302979,
                -0.047528769820928577,
                0.9976376891136168
            ],
            "type": "VEC3"
        },
        {
            "bufferView": 1,
            "byteOffset": 588,
            "componentType": 5126,
            "count": 49,
            "max": [
                203.5345916748047,
                203.5345916748047,
                0.0
            ],
            "min": [
                -203.5345916748047,
                -196.3481903076172,
                -0.6819534301757813
            ],
            "type": "VEC3"
        },
        {
            "bufferView": 2,
            "byteOffset": 0,
            "componentType": 5126,
            "count": 49,
            "max": [
                49.97502899169922,
                0.9750256538391112
            ],
            "min": [
                0.02497434988617897,
                -48.97502899169922
            ],
            "type": "VEC2"
        },
        {
            "bufferView": 0,
            "byteOffset": 282,
            "componentType": 5123,
            "count": 462,
            "max": [
                271
            ],
            "min": [
                0
            ],
            "type": "SCALAR"
        },
        {
            "bufferView": 1,
            "byteOffset": 1176,
            "componentType": 5126,
            "count": 272,
            "max": [
                0.9934098124504088,
                0.9934098124504088,
                1.0
            ],
            "min": [
                -0.9934098124504088,
                -0.9971870183944702,
                0.0
            ],
            "type": "VEC3"
        },
        {
            "bufferView": 1,
            "byteOffset": 4440,
            "componentType": 5126,
            "count": 272,
            "max": [
                155.75169372558598,
                155.75169372558598,
                2.5074009895324709
            ],
            "min": [
                -155.75169372558598,
                -157.4110107421875,
                0.0
            ],
            "type": "VEC3"
        },
        {
            "bufferView": 2,
            "byteOffset": 392,
            "componentType": 5126,
            "count": 272,
            "max": [
                49.97502899169922,
                0.9750256538391112
            ],
            "min": [
                0.024975840002298356,
                -149.3699951171875
            ],
            "type": "VEC2"
        },
        {
            "bufferView": 0,
            "byteOffset": 1206,
            "componentType": 5123,
            "count": 504,
            "max": [
                283
            ],
            "min": [
                0
            ],
            "type": "SCALAR"
        },
        {
            "bufferView": 1,
            "byteOffset": 7704,
            "componentType": 5126,
            "count": 284,
            "max": [
                0.9934099316596984,
                0.9934098124504088,
                1.0
            ],
            "min": [
                -0.9934099316596984,
                -0.9934098124504088,
                0.0
            ],
            "type": "VEC3"
        },
        {
            "bufferView": 1,
            "byteOffset": 11112,
            "componentType": 5126,
            "count": 284,
            "max": [
                103.0,
                103.0,
                2.5
            ],
            "min": [
                -103.0,
                -103.0,
                0.0
            ],
            "type": "VEC3"
        },
        {
            "bufferView": 2,
            "byteOffset": 2568,
            "componentType": 5126,
            "count": 284,
            "max": [
                29.98501968383789,
                0.9850144982337952
            ],
            "min": [
                0.014985499903559685,
                -28.98501968383789
            ],
            "type": "VEC2"
        },
        {
            "bufferView": 0,
            "byteOffset": 2214,
            "componentType": 5123,
            "count": 78,
            "max": [
                27
            ],
            "min": [
                0
            ],
            "type": "SCALAR"
        },
        {
            "bufferView": 1,
            "byteOffset": 14520,
            "componentType": 5126,
            "count": 28,
            "max": [
                0.0,
                0.0,
                1.0
            ],
            "min": [
                0.0,
                0.0,
                0.9999999403953552
            ],
            "type": "VEC3"
        },
        {
            "bufferView": 1,
            "byteOffset": 14856,
            "componentType": 5126,
            "count": 28,
            "max": [
                97.5,
                97.5,
                0.0
            ],
            "min": [
                -97.5,
                -97.5,
                0.0
            ],
            "type": "VEC3"
        },
        {
            "bufferView": 2,
            "byteOffset": 4840,
            "componentType": 5126,
            "count": 28,
            "max": [
                9.995004653930664,
                0.9950051307678224
            ],
            "min": [
                0.004994868766516447,
                -8.995004653930664
            ],
            "type": "VEC2"
        },
        {
            "bufferView": 0,
            "byteOffset": 2370,
            "componentType": 5123,
            "count": 828,
            "max": [
                529
            ],
            "min": [
                0
            ],
            "type": "SCALAR"
        },
        {
            "bufferView": 1,
            "byteOffset": 15192,
            "componentType": 5126,
            "count": 530,
            "max": [
                0.9934099316596984,
                0.9934099316596984,
                1.0
            ],
            "min": [
                -0.9934099316596984,
                -0.9953094124794006,
                -0.273665189743042
            ],
            "type": "VEC3"
        },
        {
            "bufferView": 1,
            "byteOffset": 21552,
            "componentType": 5126,
            "count": 530,
            "max": [
                149.0,
                149.0,
                0.0
            ],
            "min": [
                -149.0,
                -152.552001953125,
                -2.2987120151519777
            ],
            "type": "VEC3"
        },
        {
            "bufferView": 2,
            "byteOffset": 5064,
            "componentType": 5126,
            "count": 530,
            "max": [
                39.980018615722659,
                72.948486328125
            ],
            "min": [
                0.01998066902160645,
                -38.980018615722659
            ],
            "type": "VEC2"
        }
    ],
    "materials": [
        {
            "pbrMetallicRoughness": {
                "baseColorTexture": {
                    "index": 0
                },
                "metallicFactor": 0.0
            },
            "emissiveFactor": [
                0.0,
                0.0,
                0.0
            ],
            "occlusionTexture": {
                "index": 0
            },
            "name": "Material__2100478885"
        },
        {
            "pbrMetallicRoughness": {
                "baseColorTexture": {
                    "index": 1
                },
                "metallicFactor": 0.0
            },
            "emissiveFactor": [
                0.0,
                0.0,
                0.0
            ],
            "occlusionTexture": {
                "index": 1
            },
            "name": "Material__2100478886"
        },
        {
            "pbrMetallicRoughness": {
                "baseColorTexture": {
                    "index": 2
                },
                "metallicFactor": 0.0
            },
            "emissiveFactor": [
                0.0,
                0.0,
                0.0
            ],
            "occlusionTexture": {
                "index": 2
            },
            "name": "Material__2100478888"
        },
        {
            "pbrMetallicRoughness": {
                "baseColorTexture": {
                    "index": 3
                },
                "metallicFactor": 0.0
            },
            "emissiveFactor": [
                0.0,
                0.0,
                0.0
            ],
            "occlusionTexture": {
                "index": 3
            },
            "name": "Material__2100478889"
        },
        {
            "pbrMetallicRoughness": {
                "baseColorTexture": {
                    "index": 4
                },
                "metallicFactor": 0.0
            },
            "emissiveFactor": [
                0.0,
                0.0,
                0.0
            ],
            "occlusionTexture": {
                "index": 4
            },
            "name": "Material__2100478887"
        }
    ],
    "textures": [
        {
            "sampler": 0,
            "source": 0
        },
        {
            "sampler": 0,
            "source": 1
        },
        {
            "sampler": 0,
            "source": 1
        },
        {
            "sampler": 0,
            "source": 2
        },
        {
            "sampler": 0,
            "source": 3
        }
    ],
    "images": [
        {
            "uri": "data:image/jpeg;base64,"
        },
        {
            "uri": "data:image/jpeg;base64,"
        },
        {
            "uri": "data:image/jpeg;base64,"
        },
        {
            "uri": "data:image/jpeg;base64,"
        }
    ],
    "samplers": [
        {
            "magFilter": 9729,
            "minFilter": 9986,
            "wrapS": 10497,
            "wrapT": 10497
        }
    ],
    "bufferViews": [
        {
            "buffer": 0,
            "byteOffset": 37216,
            "byteLength": 4026,
            "target": 34963
        },
        {
            "buffer": 0,
            "byteOffset": 0,
            "byteLength": 27912,
            "byteStride": 12,
            "target": 34962
        },
        {
            "buffer": 0,
            "byteOffset": 27912,
            "byteLength": 9304,
            "byteStride": 8,
            "target": 34962
        }
    ],
    "buffers": [
        {
            "byteLength": 41242,
            "uri": "data:application/octet-stream;base64,"
        }
    ]
}
