{
    "asset": {
        "generator": "COLLADA2GLTF",
        "version": "2.0"
    },
    "scene": 0,
    "scenes": [
        {
            "nodes": [
                0
            ]
        }
    ],
    "nodes": [
        {
            "children": [
                1
            ],
            "matrix": [
                1.0,
                0.0,
                0.0,
                0.0,
                0.0,
                0.0,
                -1.0,
                0.0,
                0.0,
                1.0,
                0.0,
                0.0,
                0.0,
                0.0,
                0.0,
                1.0
            ]
        },
        {
            "children": [
                11,
                9,
                7,
                2
            ],
            "matrix": [
                1.0,
                0.0,
                0.0,
                0.0,
                0.0,
                1.0,
                0.0,
                0.0,
                0.0,
                0.0,
                1.0,
                0.0,
                0.0,
                0.0,
                -101.38900756835938,
                1.0
            ]
        },
        {
            "children": [
                5,
                3
            ],
            "matrix": [
                10.0,
                0.0,
                0.0,
                0.0,
                0.0,
                10.0,
                0.0,
                0.0,
                0.0,
                0.0,
                10.0,
                0.0,
                118.01239776611328,
                -519.634765625,
                4.1968841552734379,
                1.0
            ]
        },
        {
            "children": [
                4
            ],
            "matrix": [
                0.642787754535675,
                -0.7660443186759949,
                0.0,
                0.0,
                0.7660443186759949,
                0.642787754535675,
                0.0,
                0.0,
                0.0,
                0.0,
                1.0,
                0.0,
                -0.1278991997241974,
                0.09363555908203124,
                -0.4126377105712891,
                1.0
            ]
        },
        {
            "mesh": 0,
            "matrix": [
                1.0,
                0.0,
                0.0,
                0.0,
                0.0,
                1.0,
                0.0,
                0.0,
                0.0,
                0.0,
                1.0,
                0.0,
                0.4667029976844788,
                -0.2618187069892884,
                -0.24339459836483005,
                1.0
            ]
        },
        {
            "children": [
                6
            ],
            "matrix": [
                0.642787754535675,
                -0.7660443186759949,
                0.0,
                0.0,
                0.7660443186759949,
                0.642787754535675,
                0.0,
                0.0,
                0.0,
                0.0,
                1.0,
                0.0,
                0.1996155083179474,
                -0.13701249659061433,
                0.001503943931311369,
                1.0
            ]
        },
        {
            "mesh": 1,
            "matrix": [
                1.0,
                0.0,
                0.0,
                0.0,
                0.0,
                1.0,
                0.0,
                0.0,
                0.0,
                0.0,
                1.0,
                0.0,
                0.079454205930233,
                -0.3644979894161225,
                -0.6575360894203186,
                1.0
            ]
        },
        {
            "children": [
                8
            ],
            "matrix": [
                -7.280791282653809,
                6.854930877685547,
                0.0,
                0.0,
                -6.854930877685547,
                -7.280791282653809,
                0.0,
                0.0,
                0.0,
                0.0,
                10.0,
                0.0,
                120.9022979736328,
                -532.05859375,
                6.6740570068359379,
                1.0
            ]
        },
        {
            "mesh": 2,
            "matrix": [
                1.0,
                0.0,
                0.0,
                0.0,
                0.0,
                1.0,
                0.0,
                0.0,
                0.0,
                0.0,
                1.0,
                0.0,
                -0.006667491979897022,
                -0.013793949969112872,
                -0.9037389159202576,
                1.0
            ]
        },
        {
            "children": [
                10
            ],
            "matrix": [
                -7.280791282653809,
                6.854930877685547,
                0.0,
                0.0,
                -6.854930877685547,
                -7.280791282653809,
                0.0,
                0.0,
                0.0,
                0.0,
                10.0,
                0.0,
                284.5921936035156,
                -623.4276733398438,
                52.03769683837891,
                1.0
            ]
        },
        {
            "mesh": 3,
            "matrix": [
                1.0,
                0.0,
                0.0,
                0.0,
                0.0,
                1.0,
                0.0,
                0.0,
                0.0,
                0.0,
                1.0,
                0.0,
                -0.006667491979897022,
                -0.013793949969112872,
                -0.9037389159202576,
                1.0
            ]
        },
        {
            "children": [
                14,
                12
            ],
            "matrix": [
                10.0,
                0.0,
                0.0,
                0.0,
                0.0,
                10.0,
                0.0,
                0.0,
                0.0,
                0.0,
                10.0,
                0.0,
                281.7023010253906,
                -611.0048828125,
                49.56052780151367,
                1.0
            ]
        },
        {
            "children": [
                13
            ],
            "matrix": [
                0.642787754535675,
                -0.7660443186759949,
                0.0,
                0.0,
                0.7660443186759949,
                0.642787754535675,
                0.0,
                0.0,
                0.0,
                0.0,
                1.0,
                0.0,
                -0.1278991997241974,
                0.09363555908203124,
                -0.41263720393180849,
                1.0
            ]
        },
        {
            "mesh": 4,
            "matrix": [
                1.0,
                0.0,
                0.0,
                0.0,
                0.0,
                1.0,
                0.0,
                0.0,
                0.0,
                0.0,
                1.0,
                0.0,
                0.4667029976844788,
                -0.2618187069892884,
                -0.24339459836483005,
                1.0
            ]
        },
        {
            "children": [
                15
            ],
            "matrix": [
                0.642787754535675,
                -0.7660443186759949,
                0.0,
                0.0,
                0.7660443186759949,
                0.642787754535675,
                0.0,
                0.0,
                0.0,
                0.0,
                1.0,
                0.0,
                0.1996155083179474,
                -0.1370086967945099,
                0.0015044210013002158,
                1.0
            ]
        },
        {
            "mesh": 5,
            "matrix": [
                1.0,
                0.0,
                0.0,
                0.0,
                0.0,
                1.0,
                0.0,
                0.0,
                0.0,
                0.0,
                1.0,
                0.0,
                0.079454205930233,
                -0.3644979894161225,
                -0.6575360894203186,
                1.0
            ]
        }
    ],
    "meshes": [
        {
            "primitives": [
                {
                    "attributes": {
                        "NORMAL": 1,
                        "POSITION": 2
                    },
                    "indices": 0,
                    "mode": 4,
                    "material": 0
                }
            ],
            "name": "Obj3d66-515503-26-812"
        },
        {
            "primitives": [
                {
                    "attributes": {
                        "NORMAL": 4,
                        "POSITION": 5,
                        "TEXCOORD_0": 6
                    },
                    "indices": 3,
                    "mode": 4,
                    "material": 1
                }
            ],
            "name": "Obj3d66-515503-25-379"
        },
        {
            "primitives": [
                {
                    "attributes": {
                        "NORMAL": 8,
                        "POSITION": 9,
                        "TEXCOORD_0": 10
                    },
                    "indices": 7,
                    "mode": 4,
                    "material": 2
                }
            ],
            "name": "Obj3d66-515503-2-860"
        },
        {
            "primitives": [
                {
                    "attributes": {
                        "NORMAL": 12,
                        "POSITION": 13,
                        "TEXCOORD_0": 14
                    },
                    "indices": 11,
                    "mode": 4,
                    "material": 3
                }
            ],
            "name": "Obj3d66-515503-2-859"
        },
        {
            "primitives": [
                {
                    "attributes": {
                        "NORMAL": 16,
                        "POSITION": 17
                    },
                    "indices": 15,
                    "mode": 4,
                    "material": 4
                }
            ],
            "name": "Obj3d66-515503-26-811"
        },
        {
            "primitives": [
                {
                    "attributes": {
                        "NORMAL": 19,
                        "POSITION": 20,
                        "TEXCOORD_0": 21
                    },
                    "indices": 18,
                    "mode": 4,
                    "material": 5
                }
            ],
            "name": "Obj3d66-515503-25-378"
        }
    ],
    "accessors": [
        {
            "bufferView": 0,
            "byteOffset": 0,
            "componentType": 5123,
            "count": 1026,
            "max": [
                507
            ],
            "min": [
                0
            ],
            "type": "SCALAR"
        },
        {
            "bufferView": 1,
            "byteOffset": 0,
            "componentType": 5126,
            "count": 508,
            "max": [
                0.957732081413269,
                0.957732319831848,
                0.9945027828216552
            ],
            "min": [
                -0.9577324390411376,
                -0.957732081413269,
                -0.9949057102203368
            ],
            "type": "VEC3"
        },
        {
            "bufferView": 1,
            "byteOffset": 6096,
            "componentType": 5126,
            "count": 508,
            "max": [
                -0.16020959615707398,
                0.5683112144470215,
                0.4867891967296601
            ],
            "min": [
                -0.7732067108154297,
                -0.04468594118952751,
                -1.999999987845058e-8
            ],
            "type": "VEC3"
        },
        {
            "bufferView": 0,
            "byteOffset": 2052,
            "componentType": 5123,
            "count": 54567,
            "max": [
                22907
            ],
            "min": [
                0
            ],
            "type": "SCALAR"
        },
        {
            "bufferView": 1,
            "byteOffset": 12192,
            "componentType": 5126,
            "count": 22908,
            "max": [
                0.999996304512024,
                0.9997344017028808,
                0.9995245933532716
            ],
            "min": [
                -0.999346137046814,
                -0.99983811378479,
                -0.9989731907844544
            ],
            "type": "VEC3"
        },
        {
            "bufferView": 1,
            "byteOffset": 287088,
            "componentType": 5126,
            "count": 22908,
            "max": [
                0.21330329775810245,
                0.5984969139099121,
                1.3120640516281129
            ],
            "min": [
                -0.3685179948806763,
                0.12954379618167878,
                0.0030802299734205009
            ],
            "type": "VEC3"
        },
        {
            "bufferView": 2,
            "byteOffset": 0,
            "componentType": 5126,
            "count": 22908,
            "max": [
                0.9995099902153016,
                0.9995200037956238
            ],
            "min": [
                0.0004799999878741801,
                0.0014899969100952149
            ],
            "type": "VEC2"
        },
        {
            "bufferView": 0,
            "byteOffset": 111186,
            "componentType": 5123,
            "count": 30204,
            "max": [
                16379
            ],
            "min": [
                0
            ],
            "type": "SCALAR"
        },
        {
            "bufferView": 1,
            "byteOffset": 561984,
            "componentType": 5126,
            "count": 16380,
            "max": [
                0.9998778104782105,
                0.9992780089378356,
                0.9979571104049684
            ],
            "min": [
                -0.9997864365577698,
                -0.9999825954437256,
                -0.9999849796295166
            ],
            "type": "VEC3"
        },
        {
            "bufferView": 1,
            "byteOffset": 758544,
            "componentType": 5126,
            "count": 16380,
            "max": [
                0.25053200125694277,
                0.3041459918022156,
                1.811851978302002
            ],
            "min": [
                -0.2368679940700531,
                -0.27539199590682986,
                -0.00458399998024106
            ],
            "type": "VEC3"
        },
        {
            "bufferView": 2,
            "byteOffset": 183264,
            "componentType": 5126,
            "count": 16380,
            "max": [
                0.9906999468803406,
                0.995299994945526
            ],
            "min": [
                0.006300000008195639,
                0.004100024700164795
            ],
            "type": "VEC2"
        },
        {
            "bufferView": 0,
            "byteOffset": 171594,
            "componentType": 5123,
            "count": 30204,
            "max": [
                16379
            ],
            "min": [
                0
            ],
            "type": "SCALAR"
        },
        {
            "bufferView": 1,
            "byteOffset": 955104,
            "componentType": 5126,
            "count": 16380,
            "max": [
                0.9998778104782105,
                0.9992780089378356,
                0.9979571104049684
            ],
            "min": [
                -0.9997864365577698,
                -0.9999825954437256,
                -0.9999849796295166
            ],
            "type": "VEC3"
        },
        {
            "bufferView": 1,
            "byteOffset": 1151664,
            "componentType": 5126,
            "count": 16380,
            "max": [
                0.25053200125694277,
                0.3041459918022156,
                1.811851978302002
            ],
            "min": [
                -0.2368679940700531,
                -0.27539199590682986,
                -0.00458399998024106
            ],
            "type": "VEC3"
        },
        {
            "bufferView": 2,
            "byteOffset": 314304,
            "componentType": 5126,
            "count": 16380,
            "max": [
                0.9906999468803406,
                0.995299994945526
            ],
            "min": [
                0.006300000008195639,
                0.004100024700164795
            ],
            "type": "VEC2"
        },
        {
            "bufferView": 0,
            "byteOffset": 232002,
            "componentType": 5123,
            "count": 1026,
            "max": [
                507
            ],
            "min": [
                0
            ],
            "type": "SCALAR"
        },
        {
            "bufferView": 1,
            "byteOffset": 1348224,
            "componentType": 5126,
            "count": 508,
            "max": [
                0.957732081413269,
                0.957732319831848,
                0.9945027828216552
            ],
            "min": [
                -0.9577324390411376,
                -0.957732081413269,
                -0.9949057102203368
            ],
            "type": "VEC3"
        },
        {
            "bufferView": 1,
            "byteOffset": 1354320,
            "componentType": 5126,
            "count": 508,
            "max": [
                -0.16020959615707398,
                0.5683112144470215,
                0.4867891967296601
            ],
            "min": [
                -0.7732067108154297,
                -0.04468594118952751,
                -1.999999987845058e-8
            ],
            "type": "VEC3"
        },
        {
            "bufferView": 0,
            "byteOffset": 234054,
            "componentType": 5123,
            "count": 54567,
            "max": [
                22907
            ],
            "min": [
                0
            ],
            "type": "SCALAR"
        },
        {
            "bufferView": 1,
            "byteOffset": 1360416,
            "componentType": 5126,
            "count": 22908,
            "max": [
                0.999996304512024,
                0.9997344017028808,
                0.9995245933532716
            ],
            "min": [
                -0.999346137046814,
                -0.99983811378479,
                -0.9989731907844544
            ],
            "type": "VEC3"
        },
        {
            "bufferView": 1,
            "byteOffset": 1635312,
            "componentType": 5126,
            "count": 22908,
            "max": [
                0.21330329775810245,
                0.5984969139099121,
                1.3120640516281129
            ],
            "min": [
                -0.3685179948806763,
                0.12954379618167878,
                0.0030802299734205009
            ],
            "type": "VEC3"
        },
        {
            "bufferView": 2,
            "byteOffset": 445344,
            "componentType": 5126,
            "count": 22908,
            "max": [
                0.9995099902153016,
                0.9995200037956238
            ],
            "min": [
                0.0004799999878741801,
                0.0014899969100952149
            ],
            "type": "VEC2"
        }
    ],
    "materials": [
        {
            "pbrMetallicRoughness": {
                "baseColorFactor": [
                    1.0,
                    1.0,
                    1.0,
                    1.0
                ],
                "metallicFactor": 0.0
            },
            "emissiveFactor": [
                0.0,
                0.0,
                0.0
            ],
            "name": "Mat3d66-515503-20-223"
        },
        {
            "pbrMetallicRoughness": {
                "baseColorTexture": {
                    "index": 0
                },
                "metallicFactor": 0.0
            },
            "emissiveFactor": [
                0.0,
                0.0,
                0.0
            ],
            "occlusionTexture": {
                "index": 0
            },
            "name": "Material__2100480163"
        },
        {
            "pbrMetallicRoughness": {
                "baseColorTexture": {
                    "index": 1
                },
                "metallicFactor": 0.0
            },
            "emissiveFactor": [
                0.0,
                0.0,
                0.0
            ],
            "occlusionTexture": {
                "index": 1
            },
            "name": "Material__2100480161"
        },
        {
            "pbrMetallicRoughness": {
                "baseColorTexture": {
                    "index": 2
                },
                "metallicFactor": 0.0
            },
            "emissiveFactor": [
                0.0,
                0.0,
                0.0
            ],
            "occlusionTexture": {
                "index": 2
            },
            "name": "Material__2100480162"
        },
        {
            "pbrMetallicRoughness": {
                "baseColorFactor": [
                    1.0,
                    1.0,
                    1.0,
                    1.0
                ],
                "metallicFactor": 0.0
            },
            "emissiveFactor": [
                0.0,
                0.0,
                0.0
            ],
            "name": "Mat3d66-515503-20-223"
        },
        {
            "pbrMetallicRoughness": {
                "baseColorTexture": {
                    "index": 3
                },
                "metallicFactor": 0.0
            },
            "emissiveFactor": [
                0.0,
                0.0,
                0.0
            ],
            "occlusionTexture": {
                "index": 3
            },
            "name": "Material__2100480164"
        }
    ],
    "textures": [
        {
            "sampler": 0,
            "source": 0
        },
        {
            "sampler": 0,
            "source": 1
        },
        {
            "sampler": 0,
            "source": 1
        },
        {
            "sampler": 0,
            "source": 0
        }
    ],
    "images": [
        {
            "uri": "data:image/jpeg;base64,"
        },
        {
            "uri": "data:image/jpeg;base64,"
        }
    ],
    "samplers": [
        {
            "magFilter": 9729,
            "minFilter": 9986,
            "wrapS": 10497,
            "wrapT": 10497
        }
    ],
    "bufferViews": [
        {
            "buffer": 0,
            "byteOffset": 2538816,
            "byteLength": 343188,
            "target": 34963
        },
        {
            "buffer": 0,
            "byteOffset": 0,
            "byteLength": 1910208,
            "byteStride": 12,
            "target": 34962
        },
        {
            "buffer": 0,
            "byteOffset": 1910208,
            "byteLength": 628608,
            "byteStride": 8,
            "target": 34962
        }
    ],
    "buffers": [
        {
            "byteLength": 2882004,
            "uri": "data:application/octet-stream;base64,"
        }
    ]
}
