{
    "asset": {
        "generator": "COLLADA2GLTF",
        "version": "2.0"
    },
    "scene": 0,
    "scenes": [
        {
            "nodes": [
                0
            ]
        }
    ],
    "nodes": [
        {
            "children": [
                1
            ],
            "matrix": [
                1.0,
                0.0,
                0.0,
                0.0,
                0.0,
                0.0,
                -1.0,
                0.0,
                0.0,
                1.0,
                0.0,
                0.0,
                0.0,
                0.0,
                0.0,
                1.0
            ]
        },
        {
            "children": [
                6,
                4,
                2
            ],
            "matrix": [
                1.0,
                0.0,
                0.0,
                0.0,
                0.0,
                1.0,
                0.0,
                0.0,
                0.0,
                0.0,
                1.0,
                0.0,
                0.0,
                0.0,
                -101.38900756835938,
                1.0
            ]
        },
        {
            "children": [
                3
            ],
            "matrix": [
                -9.315821647644045,
                3.635308980941773,
                0.0,
                0.0,
                -3.635308980941773,
                -9.315821647644045,
                0.0,
                0.0,
                0.0,
                0.0,
                10.0,
                0.0,
                -57.57573699951172,
                -376.4150085449219,
                53.51755905151367,
                1.0
            ]
        },
        {
            "mesh": 0,
            "matrix": [
                1.0,
                0.0,
                0.0,
                0.0,
                0.0,
                1.0,
                0.0,
                0.0,
                0.0,
                0.0,
                1.0,
                0.0,
                -0.023935070261359216,
                -0.0523986890912056,
                -0.9021992087364196,
                1.0
            ]
        },
        {
            "children": [
                5
            ],
            "matrix": [
                4.4896641959724095e-10,
                -10.0,
                0.0,
                0.0,
                10.0,
                4.4896641959724095e-10,
                0.0,
                0.0,
                0.0,
                0.0,
                10.0,
                0.0,
                -165.2136993408203,
                -290.1171875,
                53.02684020996094,
                1.0
            ]
        },
        {
            "mesh": 1,
            "matrix": [
                1.0,
                0.0,
                0.0,
                0.0,
                0.0,
                1.0,
                0.0,
                0.0,
                0.0,
                0.0,
                1.0,
                0.0,
                -0.03496253117918968,
                -0.0320739783346653,
                -0.8531085252761841,
                1.0
            ]
        },
        {
            "children": [
                7
            ],
            "matrix": [
                -9.315821647644045,
                3.635308980941773,
                0.0,
                0.0,
                -3.635308980941773,
                -9.315821647644045,
                0.0,
                0.0,
                0.0,
                0.0,
                10.0,
                0.0,
                -165.7675933837891,
                -313.2666015625,
                53.51755905151367,
                1.0
            ]
        },
        {
            "mesh": 2,
            "matrix": [
                1.0,
                0.0,
                0.0,
                0.0,
                0.0,
                1.0,
                0.0,
                0.0,
                0.0,
                0.0,
                1.0,
                0.0,
                -0.023935070261359216,
                -0.0523986890912056,
                -0.9021992087364196,
                1.0
            ]
        }
    ],
    "meshes": [
        {
            "primitives": [
                {
                    "attributes": {
                        "NORMAL": 1,
                        "POSITION": 2,
                        "TEXCOORD_0": 3
                    },
                    "indices": 0,
                    "mode": 4,
                    "material": 0
                }
            ],
            "name": "Obj3d66-515503-7-252"
        },
        {
            "primitives": [
                {
                    "attributes": {
                        "NORMAL": 5,
                        "POSITION": 6,
                        "TEXCOORD_0": 7
                    },
                    "indices": 4,
                    "mode": 4,
                    "material": 1
                }
            ],
            "name": "Obj3d66-515503-10-482"
        },
        {
            "primitives": [
                {
                    "attributes": {
                        "NORMAL": 9,
                        "POSITION": 10,
                        "TEXCOORD_0": 11
                    },
                    "indices": 8,
                    "mode": 4,
                    "material": 2
                }
            ],
            "name": "Obj3d66-515503-7-251"
        }
    ],
    "accessors": [
        {
            "bufferView": 0,
            "byteOffset": 0,
            "componentType": 5123,
            "count": 48246,
            "max": [
                23754
            ],
            "min": [
                0
            ],
            "type": "SCALAR"
        },
        {
            "bufferView": 1,
            "byteOffset": 0,
            "componentType": 5126,
            "count": 23755,
            "max": [
                0.99922913312912,
                0.999934494495392,
                0.9999393820762634
            ],
            "min": [
                -0.9997125864028932,
                -0.9998083114624025,
                -0.9998207092285156
            ],
            "type": "VEC3"
        },
        {
            "bufferView": 1,
            "byteOffset": 285060,
            "componentType": 5126,
            "count": 23755,
            "max": [
                0.3292548954486847,
                0.4506531059741974,
                1.8121989965438846
            ],
            "min": [
                -0.28089040517807009,
                -0.3453895151615143,
                -0.007337510120123625
            ],
            "type": "VEC3"
        },
        {
            "bufferView": 2,
            "byteOffset": 0,
            "componentType": 5126,
            "count": 23755,
            "max": [
                0.996399998664856,
                0.99795001745224
            ],
            "min": [
                0.011109999381005764,
                0.00911003351211548
            ],
            "type": "VEC2"
        },
        {
            "bufferView": 0,
            "byteOffset": 96492,
            "componentType": 5123,
            "count": 51504,
            "max": [
                24446
            ],
            "min": [
                0
            ],
            "type": "SCALAR"
        },
        {
            "bufferView": 1,
            "byteOffset": 570120,
            "componentType": 5126,
            "count": 24447,
            "max": [
                0.9992452263832092,
                0.9999102354049684,
                0.9994078874588012
            ],
            "min": [
                -0.9996933937072754,
                -0.9999952912330629,
                -0.9998245239257813
            ],
            "type": "VEC3"
        },
        {
            "bufferView": 1,
            "byteOffset": 863484,
            "componentType": 5126,
            "count": 24447,
            "max": [
                0.2748120129108429,
                0.2567470073699951,
                1.7075049877166749
            ],
            "min": [
                -0.20466800034046177,
                -0.19338400661945344,
                -0.0017160000279545785
            ],
            "type": "VEC3"
        },
        {
            "bufferView": 2,
            "byteOffset": 190040,
            "componentType": 5126,
            "count": 24447,
            "max": [
                0.9994999766349793,
                0.9958999752998352
            ],
            "min": [
                0.0004999999655410647,
                0.024100005626678468
            ],
            "type": "VEC2"
        },
        {
            "bufferView": 0,
            "byteOffset": 199500,
            "componentType": 5123,
            "count": 48246,
            "max": [
                23754
            ],
            "min": [
                0
            ],
            "type": "SCALAR"
        },
        {
            "bufferView": 1,
            "byteOffset": 1156848,
            "componentType": 5126,
            "count": 23755,
            "max": [
                0.99922913312912,
                0.999934494495392,
                0.9999393820762634
            ],
            "min": [
                -0.9997125864028932,
                -0.9998083114624025,
                -0.9998207092285156
            ],
            "type": "VEC3"
        },
        {
            "bufferView": 1,
            "byteOffset": 1441908,
            "componentType": 5126,
            "count": 23755,
            "max": [
                0.3292548954486847,
                0.4506531059741974,
                1.8121989965438846
            ],
            "min": [
                -0.28089040517807009,
                -0.3453895151615143,
                -0.007337510120123625
            ],
            "type": "VEC3"
        },
        {
            "bufferView": 2,
            "byteOffset": 385616,
            "componentType": 5126,
            "count": 23755,
            "max": [
                0.996399998664856,
                0.99795001745224
            ],
            "min": [
                0.011109999381005764,
                0.00911003351211548
            ],
            "type": "VEC2"
        }
    ],
    "materials": [
        {
            "pbrMetallicRoughness": {
                "baseColorTexture": {
                    "index": 0
                },
                "metallicFactor": 0.0
            },
            "emissiveFactor": [
                0.0,
                0.0,
                0.0
            ],
            "occlusionTexture": {
                "index": 0
            },
            "name": "Material__2100480169"
        },
        {
            "pbrMetallicRoughness": {
                "baseColorTexture": {
                    "index": 1
                },
                "metallicFactor": 0.0
            },
            "emissiveFactor": [
                0.0,
                0.0,
                0.0
            ],
            "occlusionTexture": {
                "index": 1
            },
            "name": "Material__2100480166"
        },
        {
            "pbrMetallicRoughness": {
                "baseColorTexture": {
                    "index": 2
                },
                "metallicFactor": 0.0
            },
            "emissiveFactor": [
                0.0,
                0.0,
                0.0
            ],
            "occlusionTexture": {
                "index": 2
            },
            "name": "Material__2100480168"
        }
    ],
    "textures": [
        {
            "sampler": 0,
            "source": 0
        },
        {
            "sampler": 0,
            "source": 1
        },
        {
            "sampler": 0,
            "source": 0
        }
    ],
    "images": [
        {
            "uri": "data:image/jpeg;base64,"
        },
        {
            "uri": "data:image/jpeg;base64,"
        }
    ],
    "samplers": [
        {
            "magFilter": 9729,
            "minFilter": 9986,
            "wrapS": 10497,
            "wrapT": 10497
        }
    ],
    "bufferViews": [
        {
            "buffer": 0,
            "byteOffset": 2302624,
            "byteLength": 295992,
            "target": 34963
        },
        {
            "buffer": 0,
            "byteOffset": 0,
            "byteLength": 1726968,
            "byteStride": 12,
            "target": 34962
        },
        {
            "buffer": 0,
            "byteOffset": 1726968,
            "byteLength": 575656,
            "byteStride": 8,
            "target": 34962
        }
    ],
    "buffers": [
        {
            "byteLength": 2598616,
            "uri": "data:application/octet-stream;base64,"
        }
    ]
}
