{
    "asset": {
        "generator": "COLLADA2GLTF",
        "version": "2.0"
    },
    "scene": 0,
    "scenes": [
        {
            "nodes": [
                0
            ]
        }
    ],
    "nodes": [
        {
            "children": [
                1
            ],
            "matrix": [
                1.0,
                0.0,
                0.0,
                0.0,
                0.0,
                0.0,
                -1.0,
                0.0,
                0.0,
                1.0,
                0.0,
                0.0,
                0.0,
                0.0,
                0.0,
                1.0
            ]
        },
        {
            "children": [
                2
            ],
            "matrix": [
                1.0,
                0.0,
                0.0,
                0.0,
                0.0,
                1.0,
                0.0,
                0.0,
                0.0,
                0.0,
                1.0,
                0.0,
                0.0,
                0.0,
                -101.38900756835938,
                1.0
            ]
        },
        {
            "children": [
                5,
                3
            ],
            "matrix": [
                10.0,
                0.0,
                0.0,
                0.0,
                0.0,
                10.0,
                0.0,
                0.0,
                0.0,
                0.0,
                10.0,
                0.0,
                -324.8945922851563,
                -141.2422027587891,
                131.7863006591797,
                1.0
            ]
        },
        {
            "children": [
                4
            ],
            "matrix": [
                0.642787754535675,
                -0.7660443186759949,
                0.0,
                0.0,
                0.7660443186759949,
                0.642787754535675,
                0.0,
                0.0,
                0.0,
                0.0,
                1.0,
                0.0,
                0.1996155083179474,
                -0.13701340556144718,
                0.0015044210013002158,
                1.0
            ]
        },
        {
            "mesh": 0,
            "matrix": [
                1.0,
                0.0,
                0.0,
                0.0,
                0.0,
                1.0,
                0.0,
                0.0,
                0.0,
                0.0,
                1.0,
                0.0,
                0.079454205930233,
                -0.3644979894161225,
                -0.6575360894203186,
                1.0
            ]
        },
        {
            "children": [
                6
            ],
            "matrix": [
                0.642787754535675,
                -0.7660443186759949,
                0.0,
                0.0,
                0.7660443186759949,
                0.642787754535675,
                0.0,
                0.0,
                0.0,
                0.0,
                1.0,
                0.0,
                -0.1278991997241974,
                0.09363746643066406,
                -0.41263699531555178,
                1.0
            ]
        },
        {
            "mesh": 1,
            "matrix": [
                1.0,
                0.0,
                0.0,
                0.0,
                0.0,
                1.0,
                0.0,
                0.0,
                0.0,
                0.0,
                1.0,
                0.0,
                0.4667029976844788,
                -0.2618187069892884,
                -0.24339459836483005,
                1.0
            ]
        }
    ],
    "meshes": [
        {
            "primitives": [
                {
                    "attributes": {
                        "NORMAL": 1,
                        "POSITION": 2,
                        "TEXCOORD_0": 3
                    },
                    "indices": 0,
                    "mode": 4,
                    "material": 0
                }
            ],
            "name": "Obj3d66-515503-25-375"
        },
        {
            "primitives": [
                {
                    "attributes": {
                        "NORMAL": 5,
                        "POSITION": 6
                    },
                    "indices": 4,
                    "mode": 4,
                    "material": 1
                }
            ],
            "name": "Obj3d66-515503-26-807"
        }
    ],
    "accessors": [
        {
            "bufferView": 0,
            "byteOffset": 0,
            "componentType": 5123,
            "count": 54567,
            "max": [
                22907
            ],
            "min": [
                0
            ],
            "type": "SCALAR"
        },
        {
            "bufferView": 1,
            "byteOffset": 0,
            "componentType": 5126,
            "count": 22908,
            "max": [
                0.999996304512024,
                0.9997344017028808,
                0.9995245933532716
            ],
            "min": [
                -0.999346137046814,
                -0.99983811378479,
                -0.9989731907844544
            ],
            "type": "VEC3"
        },
        {
            "bufferView": 1,
            "byteOffset": 274896,
            "componentType": 5126,
            "count": 22908,
            "max": [
                0.21330329775810245,
                0.5984969139099121,
                1.3120640516281129
            ],
            "min": [
                -0.3685179948806763,
                0.12954379618167878,
                0.0030802299734205009
            ],
            "type": "VEC3"
        },
        {
            "bufferView": 2,
            "byteOffset": 0,
            "componentType": 5126,
            "count": 22908,
            "max": [
                0.9995099902153016,
                0.9995200037956238
            ],
            "min": [
                0.0004799999878741801,
                0.0014899969100952149
            ],
            "type": "VEC2"
        },
        {
            "bufferView": 0,
            "byteOffset": 109134,
            "componentType": 5123,
            "count": 1026,
            "max": [
                507
            ],
            "min": [
                0
            ],
            "type": "SCALAR"
        },
        {
            "bufferView": 1,
            "byteOffset": 549792,
            "componentType": 5126,
            "count": 508,
            "max": [
                0.957732081413269,
                0.957732319831848,
                0.9945027828216552
            ],
            "min": [
                -0.9577324390411376,
                -0.957732081413269,
                -0.9949057102203368
            ],
            "type": "VEC3"
        },
        {
            "bufferView": 1,
            "byteOffset": 555888,
            "componentType": 5126,
            "count": 508,
            "max": [
                -0.16020959615707398,
                0.5683112144470215,
                0.4867891967296601
            ],
            "min": [
                -0.7732067108154297,
                -0.04468594118952751,
                -1.999999987845058e-8
            ],
            "type": "VEC3"
        }
    ],
    "materials": [
        {
            "pbrMetallicRoughness": {
                "baseColorTexture": {
                    "index": 0
                },
                "metallicFactor": 0.0
            },
            "emissiveFactor": [
                0.0,
                0.0,
                0.0
            ],
            "occlusionTexture": {
                "index": 0
            },
            "name": "Material__2100480149"
        },
        {
            "pbrMetallicRoughness": {
                "baseColorFactor": [
                    1.0,
                    1.0,
                    1.0,
                    1.0
                ],
                "metallicFactor": 0.0
            },
            "emissiveFactor": [
                0.0,
                0.0,
                0.0
            ],
            "name": "Mat3d66-515503-20-223"
        }
    ],
    "textures": [
        {
            "sampler": 0,
            "source": 0
        }
    ],
    "images": [
        {
            "uri": "data:image/jpeg;base64,"
        }
    ],
    "samplers": [
        {
            "magFilter": 9729,
            "minFilter": 9986,
            "wrapS": 10497,
            "wrapT": 10497
        }
    ],
    "bufferViews": [
        {
            "buffer": 0,
            "byteOffset": 745248,
            "byteLength": 111186,
            "target": 34963
        },
        {
            "buffer": 0,
            "byteOffset": 0,
            "byteLength": 561984,
            "byteStride": 12,
            "target": 34962
        },
        {
            "buffer": 0,
            "byteOffset": 561984,
            "byteLength": 183264,
            "byteStride": 8,
            "target": 34962
        }
    ],
    "buffers": [
        {
            "byteLength": 856434,
            "uri": "data:application/octet-stream;base64,"
        }
    ]
}
