{
    "asset": {
        "generator": "COLLADA2GLTF",
        "version": "2.0"
    },
    "scene": 0,
    "scenes": [
        {
            "nodes": [
                0
            ]
        }
    ],
    "nodes": [
        {
            "children": [
                1
            ],
            "matrix": [
                1.0,
                0.0,
                0.0,
                0.0,
                0.0,
                0.0,
                -1.0,
                0.0,
                0.0,
                1.0,
                0.0,
                0.0,
                0.0,
                0.0,
                0.0,
                1.0
            ]
        },
        {
            "children": [
                2
            ],
            "matrix": [
                1.0,
                0.0,
                0.0,
                0.0,
                0.0,
                1.0,
                0.0,
                0.0,
                0.0,
                0.0,
                1.0,
                0.0,
                0.0,
                0.0,
                -101.38900756835938,
                1.0
            ]
        },
        {
            "children": [
                3
            ],
            "matrix": [
                -8.660725593566895,
                4.999183654785156,
                0.0,
                0.0,
                -4.999183654785156,
                -8.660725593566895,
                0.0,
                0.0,
                0.0,
                0.0,
                10.0,
                0.0,
                65.00189208984375,
                -371.5907897949219,
                132.87640380859376,
                1.0
            ]
        },
        {
            "mesh": 0,
            "matrix": [
                1.0,
                0.0,
                0.0,
                0.0,
                0.0,
                1.0,
                0.0,
                0.0,
                0.0,
                0.0,
                1.0,
                0.0,
                0.0401001013815403,
                4.768369876728684e-7,
                -0.8362199664115906,
                1.0
            ]
        }
    ],
    "meshes": [
        {
            "primitives": [
                {
                    "attributes": {
                        "NORMAL": 1,
                        "POSITION": 2,
                        "TEXCOORD_0": 3
                    },
                    "indices": 0,
                    "mode": 4,
                    "material": 0
                }
            ],
            "name": "Obj3d66-515503-23-331"
        }
    ],
    "accessors": [
        {
            "bufferView": 0,
            "byteOffset": 0,
            "componentType": 5123,
            "count": 65004,
            "max": [
                26964
            ],
            "min": [
                0
            ],
            "type": "SCALAR"
        },
        {
            "bufferView": 1,
            "byteOffset": 0,
            "componentType": 5126,
            "count": 26965,
            "max": [
                0.9997907876968384,
                0.9998223185539246,
                0.9999799728393556
            ],
            "min": [
                -0.999886989593506,
                -0.9999539852142334,
                -0.9999604225158693
            ],
            "type": "VEC3"
        },
        {
            "bufferView": 1,
            "byteOffset": 323580,
            "componentType": 5126,
            "count": 26965,
            "max": [
                0.2077559977769852,
                0.21190699934959413,
                1.677278995513916
            ],
            "min": [
                -0.2879779934883118,
                -0.2119079977273941,
                -0.006386000197380781
            ],
            "type": "VEC3"
        },
        {
            "bufferView": 2,
            "byteOffset": 0,
            "componentType": 5126,
            "count": 26965,
            "max": [
                0.9735999703407288,
                0.9980999827384948
            ],
            "min": [
                0.0018999999156221748,
                0.005700051784515381
            ],
            "type": "VEC2"
        }
    ],
    "materials": [
        {
            "pbrMetallicRoughness": {
                "baseColorTexture": {
                    "index": 0
                },
                "metallicFactor": 0.0
            },
            "emissiveFactor": [
                0.0,
                0.0,
                0.0
            ],
            "occlusionTexture": {
                "index": 0
            },
            "name": "Material__2100480154"
        }
    ],
    "textures": [
        {
            "sampler": 0,
            "source": 0
        }
    ],
    "images": [
        {
            "uri": "data:image/jpeg;base64,"
        }
    ],
    "samplers": [
        {
            "magFilter": 9729,
            "minFilter": 9986,
            "wrapS": 10497,
            "wrapT": 10497
        }
    ],
    "bufferViews": [
        {
            "buffer": 0,
            "byteOffset": 862880,
            "byteLength": 130008,
            "target": 34963
        },
        {
            "buffer": 0,
            "byteOffset": 0,
            "byteLength": 647160,
            "byteStride": 12,
            "target": 34962
        },
        {
            "buffer": 0,
            "byteOffset": 647160,
            "byteLength": 215720,
            "byteStride": 8,
            "target": 34962
        }
    ],
    "buffers": [
        {
            "byteLength": 992888,
            "uri": "data:application/octet-stream;base64,"
        }
    ]
}
