{
    "asset": {
        "generator": "COLLADA2GLTF",
        "version": "2.0"
    },
    "scene": 0,
    "scenes": [
        {
            "nodes": [
                0
            ]
        }
    ],
    "nodes": [
        {
            "children": [
                1
            ],
            "matrix": [
                1.0,
                0.0,
                0.0,
                0.0,
                0.0,
                0.0,
                -1.0,
                0.0,
                0.0,
                1.0,
                0.0,
                0.0,
                0.0,
                0.0,
                0.0,
                1.0
            ]
        },
        {
            "children": [
                2
            ],
            "matrix": [
                1.0,
                0.0,
                0.0,
                0.0,
                0.0,
                1.0,
                0.0,
                0.0,
                0.0,
                0.0,
                1.0,
                0.0,
                0.0,
                0.0,
                -101.38900756835938,
                1.0
            ]
        },
        {
            "children": [
                5,
                3
            ],
            "matrix": [
                10.0,
                0.0,
                0.0,
                0.0,
                0.0,
                10.0,
                0.0,
                0.0,
                0.0,
                0.0,
                10.0,
                0.0,
                72.92816162109375,
                -362.79388427734377,
                131.45278930664066,
                1.0
            ]
        },
        {
            "children": [
                4
            ],
            "matrix": [
                4.4896641959724089e-11,
                -1.0,
                0.0,
                0.0,
                1.0,
                4.4896641959724089e-11,
                0.0,
                0.0,
                0.0,
                0.0,
                1.0,
                0.0,
                0.000669955974444747,
                -0.0254974402487278,
                -0.0005035399808548391,
                1.0
            ]
        },
        {
            "mesh": 0,
            "matrix": [
                1.0,
                0.0,
                0.0,
                0.0,
                0.0,
                1.0,
                0.0,
                0.0,
                0.0,
                0.0,
                1.0,
                0.0,
                -0.19214950501918794,
                -0.003967315889894962,
                -0.6739194989204407,
                1.0
            ]
        },
        {
            "children": [
                6
            ],
            "matrix": [
                0.642787754535675,
                -0.7660443186759949,
                0.0,
                0.0,
                0.7660443186759949,
                0.642787754535675,
                0.0,
                0.0,
                0.0,
                0.0,
                1.0,
                0.0,
                -0.04010630026459694,
                0.21710970997810365,
                -0.4310283958911896,
                1.0
            ]
        },
        {
            "mesh": 1,
            "matrix": [
                1.0,
                0.0,
                0.0,
                0.0,
                0.0,
                1.0,
                0.0,
                0.0,
                0.0,
                0.0,
                1.0,
                0.0,
                0.4667029976844788,
                -0.2618187069892884,
                -0.24339459836483005,
                1.0
            ]
        }
    ],
    "meshes": [
        {
            "primitives": [
                {
                    "attributes": {
                        "NORMAL": 1,
                        "POSITION": 2,
                        "TEXCOORD_0": 3
                    },
                    "indices": 0,
                    "mode": 4,
                    "material": 0
                }
            ],
            "name": "Obj3d66-515503-6-420"
        },
        {
            "primitives": [
                {
                    "attributes": {
                        "NORMAL": 5,
                        "POSITION": 6
                    },
                    "indices": 4,
                    "mode": 4,
                    "material": 1
                }
            ],
            "name": "Obj3d66-515503-26-808"
        }
    ],
    "accessors": [
        {
            "bufferView": 0,
            "byteOffset": 0,
            "componentType": 5123,
            "count": 51261,
            "max": [
                24255
            ],
            "min": [
                0
            ],
            "type": "SCALAR"
        },
        {
            "bufferView": 1,
            "byteOffset": 0,
            "componentType": 5126,
            "count": 24256,
            "max": [
                0.9999065399169922,
                0.999870240688324,
                0.999947190284729
            ],
            "min": [
                -0.9995608329772948,
                -0.9998984336853029,
                -0.999922811985016
            ],
            "type": "VEC3"
        },
        {
            "bufferView": 1,
            "byteOffset": 291072,
            "componentType": 5126,
            "count": 24256,
            "max": [
                0.6902599930763245,
                0.35547199845314028,
                1.3488459587097169
            ],
            "min": [
                -0.2974720001220703,
                -0.3488770127296448,
                0.0012499999720603228
            ],
            "type": "VEC3"
        },
        {
            "bufferView": 2,
            "byteOffset": 0,
            "componentType": 5126,
            "count": 24256,
            "max": [
                0.9983999729156494,
                0.9980999827384948
            ],
            "min": [
                0.0024999999441206457,
                0.001999974250793457
            ],
            "type": "VEC2"
        },
        {
            "bufferView": 0,
            "byteOffset": 102522,
            "componentType": 5123,
            "count": 1026,
            "max": [
                507
            ],
            "min": [
                0
            ],
            "type": "SCALAR"
        },
        {
            "bufferView": 1,
            "byteOffset": 582144,
            "componentType": 5126,
            "count": 508,
            "max": [
                0.957732081413269,
                0.957732319831848,
                0.9945027828216552
            ],
            "min": [
                -0.9577324390411376,
                -0.957732081413269,
                -0.9949057102203368
            ],
            "type": "VEC3"
        },
        {
            "bufferView": 1,
            "byteOffset": 588240,
            "componentType": 5126,
            "count": 508,
            "max": [
                -0.16020959615707398,
                0.5683112144470215,
                0.4867891967296601
            ],
            "min": [
                -0.7732067108154297,
                -0.04468594118952751,
                -1.999999987845058e-8
            ],
            "type": "VEC3"
        }
    ],
    "materials": [
        {
            "pbrMetallicRoughness": {
                "baseColorTexture": {
                    "index": 0
                },
                "metallicFactor": 0.0
            },
            "emissiveFactor": [
                0.0,
                0.0,
                0.0
            ],
            "occlusionTexture": {
                "index": 0
            },
            "name": "Material__2100480155"
        },
        {
            "pbrMetallicRoughness": {
                "baseColorFactor": [
                    1.0,
                    1.0,
                    1.0,
                    1.0
                ],
                "metallicFactor": 0.0
            },
            "emissiveFactor": [
                0.0,
                0.0,
                0.0
            ],
            "name": "Mat3d66-515503-20-223"
        }
    ],
    "textures": [
        {
            "sampler": 0,
            "source": 0
        }
    ],
    "images": [
        {
            "uri": "data:image/jpeg;base64,"
        }
    ],
    "samplers": [
        {
            "magFilter": 9729,
            "minFilter": 9986,
            "wrapS": 10497,
            "wrapT": 10497
        }
    ],
    "bufferViews": [
        {
            "buffer": 0,
            "byteOffset": 788384,
            "byteLength": 104574,
            "target": 34963
        },
        {
            "buffer": 0,
            "byteOffset": 0,
            "byteLength": 594336,
            "byteStride": 12,
            "target": 34962
        },
        {
            "buffer": 0,
            "byteOffset": 594336,
            "byteLength": 194048,
            "byteStride": 8,
            "target": 34962
        }
    ],
    "buffers": [
        {
            "byteLength": 892958,
            "uri": "data:application/octet-stream;base64,"
        }
    ]
}
