{
    "asset": {
        "generator": "COLLADA2GLTF",
        "version": "2.0"
    },
    "scene": 0,
    "scenes": [
        {
            "nodes": [
                0
            ]
        }
    ],
    "nodes": [
        {
            "children": [
                6,
                1
            ],
            "matrix": [
                1.0,
                0.0,
                0.0,
                0.0,
                0.0,
                0.0,
                -1.0,
                0.0,
                0.0,
                1.0,
                0.0,
                0.0,
                0.0,
                0.0,
                0.0,
                1.0
            ]
        },
        {
            "children": [
                5,
                4,
                3,
                2
            ],
            "matrix": [
                1.0,
                0.0,
                0.0,
                0.0,
                0.0,
                1.0,
                0.0,
                0.0,
                0.0,
                0.0,
                1.0,
                0.0,
                0.0,
                0.0,
                -101.38900756835938,
                1.0
            ]
        },
        {
            "mesh": 0,
            "matrix": [
                -4.399666786193848,
                2.3754875659942629,
                0.0,
                0.0,
                -2.3754875659942629,
                -4.399666786193848,
                0.0,
                0.0,
                0.0,
                0.0,
                5.0,
                0.0,
                -367.9580993652344,
                384.6295776367188,
                86.39287567138672,
                1.0
            ]
        },
        {
            "mesh": 1,
            "matrix": [
                -2.3754799365997316,
                -4.399669647216797,
                0.0,
                0.0,
                4.399669647216797,
                -2.3754799365997316,
                0.0,
                0.0,
                0.0,
                0.0,
                5.0,
                0.0,
                -250.12368774414066,
                -13.607269287109377,
                86.39287567138672,
                1.0
            ]
        },
        {
            "mesh": 2,
            "matrix": [
                -2.3754799365997316,
                -4.399669647216797,
                0.0,
                0.0,
                4.399669647216797,
                -2.3754799365997316,
                0.0,
                0.0,
                0.0,
                0.0,
                5.0,
                0.0,
                -610.628173828125,
                178.26329040527345,
                86.39287567138672,
                1.0
            ]
        },
        {
            "mesh": 3,
            "matrix": [
                -4.909517288208008,
                0.9469164609909058,
                0.0,
                0.0,
                -0.9469164609909058,
                -4.909517288208008,
                0.0,
                0.0,
                0.0,
                0.0,
                5.0,
                0.0,
                -226.98049926757813,
                291.91229248046877,
                86.39287567138672,
                1.0
            ]
        },
        {
            "mesh": 4,
            "matrix": [
                1.0,
                0.0,
                0.0,
                0.0,
                0.0,
                1.0,
                0.0,
                0.0,
                0.0,
                0.0,
                1.0,
                0.0,
                -392.0,
                106.0,
                -15.018539428710938,
                1.0
            ]
        }
    ],
    "meshes": [
        {
            "primitives": [
                {
                    "attributes": {
                        "NORMAL": 1,
                        "POSITION": 2,
                        "TEXCOORD_0": 3
                    },
                    "indices": 0,
                    "mode": 4,
                    "material": 0
                }
            ],
            "name": "Box137"
        },
        {
            "primitives": [
                {
                    "attributes": {
                        "NORMAL": 5,
                        "POSITION": 6,
                        "TEXCOORD_0": 7
                    },
                    "indices": 4,
                    "mode": 4,
                    "material": 1
                }
            ],
            "name": "Box136"
        },
        {
            "primitives": [
                {
                    "attributes": {
                        "NORMAL": 9,
                        "POSITION": 10,
                        "TEXCOORD_0": 11
                    },
                    "indices": 8,
                    "mode": 4,
                    "material": 2
                }
            ],
            "name": "Box135"
        },
        {
            "primitives": [
                {
                    "attributes": {
                        "NORMAL": 13,
                        "POSITION": 14,
                        "TEXCOORD_0": 15
                    },
                    "indices": 12,
                    "mode": 4,
                    "material": 3
                }
            ],
            "name": "Box134"
        },
        {
            "primitives": [
                {
                    "attributes": {
                        "NORMAL": 17,
                        "POSITION": 18,
                        "TEXCOORD_0": 19
                    },
                    "indices": 16,
                    "mode": 4,
                    "material": 4
                }
            ],
            "name": "Line087"
        }
    ],
    "accessors": [
        {
            "bufferView": 0,
            "byteOffset": 0,
            "componentType": 5123,
            "count": 36,
            "max": [
                23
            ],
            "min": [
                0
            ],
            "type": "SCALAR"
        },
        {
            "bufferView": 1,
            "byteOffset": 0,
            "componentType": 5126,
            "count": 24,
            "max": [
                1.0,
                1.0,
                1.0
            ],
            "min": [
                -1.0,
                -1.0,
                -1.0
            ],
            "type": "VEC3"
        },
        {
            "bufferView": 1,
            "byteOffset": 288,
            "componentType": 5126,
            "count": 24,
            "max": [
                -40.47016906738281,
                0.5,
                4.900000095367432
            ],
            "min": [
                -59.0,
                -0.5000044107437134,
                0.0
            ],
            "type": "VEC3"
        },
        {
            "bufferView": 2,
            "byteOffset": 0,
            "componentType": 5126,
            "count": 24,
            "max": [
                4.997501850128174,
                0.9995004534721376
            ],
            "min": [
                0.002497434848919511,
                0.0004994869232177734
            ],
            "type": "VEC2"
        },
        {
            "bufferView": 0,
            "byteOffset": 72,
            "componentType": 5123,
            "count": 72,
            "max": [
                51
            ],
            "min": [
                0
            ],
            "type": "SCALAR"
        },
        {
            "bufferView": 1,
            "byteOffset": 576,
            "componentType": 5126,
            "count": 52,
            "max": [
                1.0,
                1.0,
                1.0
            ],
            "min": [
                -1.0,
                -1.0,
                -1.0
            ],
            "type": "VEC3"
        },
        {
            "bufferView": 1,
            "byteOffset": 1200,
            "componentType": 5126,
            "count": 52,
            "max": [
                59.0,
                0.5,
                4.900000095367432
            ],
            "min": [
                -59.0,
                -0.5,
                0.0
            ],
            "type": "VEC3"
        },
        {
            "bufferView": 2,
            "byteOffset": 192,
            "componentType": 5126,
            "count": 52,
            "max": [
                23.850000381469728,
                -2.871949911117554
            ],
            "min": [
                6.150000095367432,
                -5.128049850463867
            ],
            "type": "VEC2"
        },
        {
            "bufferView": 0,
            "byteOffset": 216,
            "componentType": 5123,
            "count": 36,
            "max": [
                23
            ],
            "min": [
                0
            ],
            "type": "SCALAR"
        },
        {
            "bufferView": 1,
            "byteOffset": 1824,
            "componentType": 5126,
            "count": 24,
            "max": [
                1.0,
                1.0,
                1.0
            ],
            "min": [
                -1.0,
                -1.0,
                -1.0
            ],
            "type": "VEC3"
        },
        {
            "bufferView": 1,
            "byteOffset": 2112,
            "componentType": 5126,
            "count": 24,
            "max": [
                59.0,
                0.5,
                4.900000095367432
            ],
            "min": [
                -39.16893005371094,
                -0.5,
                0.0
            ],
            "type": "VEC3"
        },
        {
            "bufferView": 2,
            "byteOffset": 608,
            "componentType": 5126,
            "count": 24,
            "max": [
                23.850000381469728,
                -2.871949911117554
            ],
            "min": [
                6.150000095367432,
                -5.128049850463867
            ],
            "type": "VEC2"
        },
        {
            "bufferView": 0,
            "byteOffset": 288,
            "componentType": 5123,
            "count": 36,
            "max": [
                23
            ],
            "min": [
                0
            ],
            "type": "SCALAR"
        },
        {
            "bufferView": 1,
            "byteOffset": 2400,
            "componentType": 5126,
            "count": 24,
            "max": [
                1.0,
                0.9999433159828186,
                1.0
            ],
            "min": [
                -1.0,
                -0.9999433159828186,
                -1.0
            ],
            "type": "VEC3"
        },
        {
            "bufferView": 1,
            "byteOffset": 2688,
            "componentType": 5126,
            "count": 24,
            "max": [
                59.0,
                0.5,
                4.900000095367432
            ],
            "min": [
                -7.600805759429932,
                -1.209442973136902,
                0.0
            ],
            "type": "VEC3"
        },
        {
            "bufferView": 2,
            "byteOffset": 800,
            "componentType": 5126,
            "count": 24,
            "max": [
                9.995004653930664,
                0.9995005130767822
            ],
            "min": [
                0.004994868766516447,
                0.0004994869232177734
            ],
            "type": "VEC2"
        },
        {
            "bufferView": 0,
            "byteOffset": 360,
            "componentType": 5123,
            "count": 9,
            "max": [
                4
            ],
            "min": [
                0
            ],
            "type": "SCALAR"
        },
        {
            "bufferView": 1,
            "byteOffset": 2976,
            "componentType": 5126,
            "count": 5,
            "max": [
                0.0,
                0.0,
                1.0
            ],
            "min": [
                0.0,
                0.0,
                0.9999999403953552
            ],
            "type": "VEC3"
        },
        {
            "bufferView": 1,
            "byteOffset": 3036,
            "componentType": 5126,
            "count": 5,
            "max": [
                285.15618896484377,
                245.25,
                -0.000007629389983776491
            ],
            "min": [
                -361.71868896484377,
                -383.25,
                -0.000007629389983776491
            ],
            "type": "VEC3"
        },
        {
            "bufferView": 2,
            "byteOffset": 992,
            "componentType": 5126,
            "count": 5,
            "max": [
                1.0229530334472657,
                1.009762167930603
            ],
            "min": [
                0.01157999038696289,
                0.012996912002563477
            ],
            "type": "VEC2"
        }
    ],
    "materials": [
        {
            "pbrMetallicRoughness": {
                "baseColorTexture": {
                    "index": 0
                },
                "metallicFactor": 0.0
            },
            "emissiveFactor": [
                0.0,
                0.0,
                0.0
            ],
            "occlusionTexture": {
                "index": 0
            },
            "name": "Material__1"
        },
        {
            "pbrMetallicRoughness": {
                "baseColorTexture": {
                    "index": 0
                },
                "metallicFactor": 0.0
            },
            "emissiveFactor": [
                0.0,
                0.0,
                0.0
            ],
            "occlusionTexture": {
                "index": 0
            },
            "name": "Material__1"
        },
        {
            "pbrMetallicRoughness": {
                "baseColorTexture": {
                    "index": 0
                },
                "metallicFactor": 0.0
            },
            "emissiveFactor": [
                0.0,
                0.0,
                0.0
            ],
            "occlusionTexture": {
                "index": 0
            },
            "name": "Material__1"
        },
        {
            "pbrMetallicRoughness": {
                "baseColorTexture": {
                    "index": 0
                },
                "metallicFactor": 0.0
            },
            "emissiveFactor": [
                0.0,
                0.0,
                0.0
            ],
            "occlusionTexture": {
                "index": 0
            },
            "name": "Material__1"
        },
        {
            "pbrMetallicRoughness": {
                "baseColorTexture": {
                    "index": 1
                },
                "metallicFactor": 0.0
            },
            "emissiveFactor": [
                0.0,
                0.0,
                0.0
            ],
            "occlusionTexture": {
                "index": 1
            },
            "name": "Material__2100480095"
        }
    ],
    "textures": [
        {
            "sampler": 0,
            "source": 0
        },
        {
            "sampler": 0,
            "source": 1
        }
    ],
    "images": [
        {
            "uri": "data:image/jpeg;base64,"
        },
        {
            "uri": "data:image/png;base64,"
        }
    ],
    "samplers": [
        {
            "magFilter": 9729,
            "minFilter": 9986,
            "wrapS": 10497,
            "wrapT": 10497
        }
    ],
    "bufferViews": [
        {
            "buffer": 0,
            "byteOffset": 4128,
            "byteLength": 378,
            "target": 34963
        },
        {
            "buffer": 0,
            "byteOffset": 0,
            "byteLength": 3096,
            "byteStride": 12,
            "target": 34962
        },
        {
            "buffer": 0,
            "byteOffset": 3096,
            "byteLength": 1032,
            "byteStride": 8,
            "target": 34962
        }
    ],
    "buffers": [
        {
            "byteLength": 4506,
            "uri": "data:application/octet-stream;base64,"
        }
    ]
}
