{
    "asset": {
        "generator": "COLLADA2GLTF",
        "version": "2.0"
    },
    "scene": 0,
    "scenes": [
        {
            "nodes": [
                0
            ]
        }
    ],
    "nodes": [
        {
            "children": [
                1
            ],
            "matrix": [
                1.0,
                0.0,
                0.0,
                0.0,
                0.0,
                0.0,
                -1.0,
                0.0,
                0.0,
                1.0,
                0.0,
                0.0,
                0.0,
                0.0,
                0.0,
                1.0
            ]
        },
        {
            "children": [
                2
            ],
            "matrix": [
                1.0,
                0.0,
                0.0,
                0.0,
                0.0,
                1.0,
                0.0,
                0.0,
                0.0,
                0.0,
                1.0,
                0.0,
                0.0,
                0.0,
                -101.38900756835938,
                1.0
            ]
        },
        {
            "children": [
                3
            ],
            "matrix": [
                1.0,
                0.0,
                0.0,
                0.0,
                0.0,
                1.0,
                0.0,
                0.0,
                0.0,
                0.0,
                1.0,
                0.0,
                -2.082581043243408,
                -23.039058685302736,
                -24.52871894836426,
                1.0
            ]
        },
        {
            "children": [
                12,
                10,
                8,
                6,
                4
            ],
            "matrix": [
                1.0,
                0.0,
                0.0,
                0.0,
                0.0,
                1.0,
                0.0,
                0.0,
                0.0,
                0.0,
                1.0,
                0.0,
                132.1562042236328,
                -72.5,
                0.00001525879997643642,
                1.0
            ]
        },
        {
            "children": [
                5
            ],
            "matrix": [
                0.8916202187538147,
                -0.4527840316295624,
                9.11043898099706e-8,
                0.0,
                -1.172053387676897e-7,
                -2.9590836447823677e-8,
                1.0,
                0.0,
                -0.4527840316295624,
                -0.8916202187538147,
                -7.945249080876239e-8,
                0.0,
                -155.1533966064453,
                -295.318603515625,
                -7.1068878173828129,
                1.0
            ]
        },
        {
            "mesh": 0,
            "matrix": [
                1.0,
                0.0,
                0.0,
                0.0,
                0.0,
                1.0,
                0.0,
                0.0,
                0.0,
                0.0,
                1.0,
                0.0,
                0.0,
                0.0,
                -100.0,
                1.0
            ]
        },
        {
            "children": [
                7
            ],
            "matrix": [
                0.8916202187538147,
                -0.4527840316295624,
                9.11043898099706e-8,
                0.0,
                -1.172053387676897e-7,
                -2.9590836447823677e-8,
                1.0,
                0.0,
                -0.4527840316295624,
                -0.8916202187538147,
                -7.945249080876239e-8,
                0.0,
                -162.1407928466797,
                -291.6748046875,
                -7.1068878173828129,
                1.0
            ]
        },
        {
            "mesh": 1,
            "matrix": [
                1.0,
                0.0,
                0.0,
                0.0,
                0.0,
                1.0,
                0.0,
                0.0,
                0.0,
                0.0,
                1.0,
                0.0,
                0.0,
                0.0,
                -100.0,
                1.0
            ]
        },
        {
            "children": [
                9
            ],
            "matrix": [
                0.8916202187538147,
                -0.4527840316295624,
                9.11043898099706e-8,
                0.0,
                -1.172053387676897e-7,
                -2.9590836447823677e-8,
                1.0,
                0.0,
                -0.4527840316295624,
                -0.8916202187538147,
                -7.945249080876239e-8,
                0.0,
                -162.1407928466797,
                -291.6748046875,
                -1.5547029972076417,
                1.0
            ]
        },
        {
            "mesh": 2,
            "matrix": [
                1.0,
                0.0,
                0.0,
                0.0,
                0.0,
                1.0,
                0.0,
                0.0,
                0.0,
                0.0,
                1.0,
                0.0,
                0.0,
                0.0,
                -100.0,
                1.0
            ]
        },
        {
            "children": [
                11
            ],
            "matrix": [
                0.8916202187538147,
                -0.4527840316295624,
                9.11043898099706e-8,
                0.0,
                -1.172053387676897e-7,
                -2.9590836447823677e-8,
                1.0,
                0.0,
                -0.4527840316295624,
                -0.8916202187538147,
                -7.945249080876239e-8,
                0.0,
                -155.1533966064453,
                -295.318603515625,
                -1.5547029972076417,
                1.0
            ]
        },
        {
            "mesh": 3,
            "matrix": [
                1.0,
                0.0,
                0.0,
                0.0,
                0.0,
                1.0,
                0.0,
                0.0,
                0.0,
                0.0,
                1.0,
                0.0,
                0.0,
                0.0,
                -100.0,
                1.0
            ]
        },
        {
            "children": [
                13
            ],
            "matrix": [
                0.8834907412528992,
                -0.4684486091136933,
                1.245505103497635e-7,
                0.0,
                -8.371146265062636e-8,
                1.079994831343356e-7,
                1.0,
                0.0,
                -0.4684486091136933,
                -0.8834907412528992,
                5.6202029696805769e-8,
                0.0,
                103.0543975830078,
                194.81118774414066,
                0.000045776399929309267,
                1.0
            ]
        },
        {
            "mesh": 4,
            "matrix": [
                1.0,
                0.0,
                0.0,
                0.0,
                0.0,
                1.0,
                0.0,
                0.0,
                0.0,
                0.0,
                1.0,
                0.0,
                0.000007629389983776491,
                -0.000008961589628597722,
                -205.01739501953129,
                1.0
            ]
        }
    ],
    "meshes": [
        {
            "primitives": [
                {
                    "attributes": {
                        "NORMAL": 1,
                        "POSITION": 2,
                        "TEXCOORD_0": 3
                    },
                    "indices": 0,
                    "mode": 4,
                    "material": 0
                }
            ],
            "name": "Cylinder005"
        },
        {
            "primitives": [
                {
                    "attributes": {
                        "NORMAL": 5,
                        "POSITION": 6,
                        "TEXCOORD_0": 7
                    },
                    "indices": 4,
                    "mode": 4,
                    "material": 1
                }
            ],
            "name": "Cylinder002"
        },
        {
            "primitives": [
                {
                    "attributes": {
                        "NORMAL": 9,
                        "POSITION": 10,
                        "TEXCOORD_0": 11
                    },
                    "indices": 8,
                    "mode": 4,
                    "material": 2
                }
            ],
            "name": "Cylinder003"
        },
        {
            "primitives": [
                {
                    "attributes": {
                        "NORMAL": 13,
                        "POSITION": 14,
                        "TEXCOORD_0": 15
                    },
                    "indices": 12,
                    "mode": 4,
                    "material": 3
                }
            ],
            "name": "Cylinder004"
        },
        {
            "primitives": [
                {
                    "attributes": {
                        "NORMAL": 17,
                        "POSITION": 18,
                        "TEXCOORD_0": 19
                    },
                    "indices": 16,
                    "mode": 4,
                    "material": 4
                }
            ],
            "name": "Tube004"
        }
    ],
    "accessors": [
        {
            "bufferView": 0,
            "byteOffset": 0,
            "componentType": 5123,
            "count": 2160,
            "max": [
                455
            ],
            "min": [
                0
            ],
            "type": "SCALAR"
        },
        {
            "bufferView": 1,
            "byteOffset": 0,
            "componentType": 5126,
            "count": 456,
            "max": [
                1.0,
                0.994521975517273,
                1.0
            ],
            "min": [
                -1.0,
                -0.9945219159126282,
                -1.0
            ],
            "type": "VEC3"
        },
        {
            "bufferView": 1,
            "byteOffset": 5472,
            "componentType": 5126,
            "count": 456,
            "max": [
                2.0,
                1.989043951034546,
                200.0
            ],
            "min": [
                -2.0,
                -1.989043951034546,
                0.0
            ],
            "type": "VEC3"
        },
        {
            "bufferView": 2,
            "byteOffset": 0,
            "componentType": 5126,
            "count": 456,
            "max": [
                0.9833332896232604,
                1.0
            ],
            "min": [
                -0.016666650772094728,
                0.0
            ],
            "type": "VEC2"
        },
        {
            "bufferView": 0,
            "byteOffset": 4320,
            "componentType": 5123,
            "count": 2160,
            "max": [
                456
            ],
            "min": [
                0
            ],
            "type": "SCALAR"
        },
        {
            "bufferView": 1,
            "byteOffset": 10944,
            "componentType": 5126,
            "count": 457,
            "max": [
                1.0,
                0.994521975517273,
                1.0
            ],
            "min": [
                -1.0,
                -0.9945219159126282,
                -1.0
            ],
            "type": "VEC3"
        },
        {
            "bufferView": 1,
            "byteOffset": 16428,
            "componentType": 5126,
            "count": 457,
            "max": [
                2.0,
                1.989043951034546,
                200.0
            ],
            "min": [
                -2.0,
                -1.989043951034546,
                0.0
            ],
            "type": "VEC3"
        },
        {
            "bufferView": 2,
            "byteOffset": 3648,
            "componentType": 5126,
            "count": 457,
            "max": [
                0.9832420945167542,
                0.9995004534721376
            ],
            "min": [
                -0.016757909208536149,
                0.0004994869232177734
            ],
            "type": "VEC2"
        },
        {
            "bufferView": 0,
            "byteOffset": 8640,
            "componentType": 5123,
            "count": 2160,
            "max": [
                455
            ],
            "min": [
                0
            ],
            "type": "SCALAR"
        },
        {
            "bufferView": 1,
            "byteOffset": 21912,
            "componentType": 5126,
            "count": 456,
            "max": [
                1.0,
                0.994521975517273,
                1.0
            ],
            "min": [
                -1.0,
                -0.9945219159126282,
                -1.0
            ],
            "type": "VEC3"
        },
        {
            "bufferView": 1,
            "byteOffset": 27384,
            "componentType": 5126,
            "count": 456,
            "max": [
                2.0,
                1.989043951034546,
                200.0
            ],
            "min": [
                -2.0,
                -1.989043951034546,
                0.0
            ],
            "type": "VEC3"
        },
        {
            "bufferView": 2,
            "byteOffset": 7304,
            "componentType": 5126,
            "count": 456,
            "max": [
                0.9833332896232604,
                1.0
            ],
            "min": [
                -0.016666650772094728,
                0.0
            ],
            "type": "VEC2"
        },
        {
            "bufferView": 0,
            "byteOffset": 12960,
            "componentType": 5123,
            "count": 2160,
            "max": [
                455
            ],
            "min": [
                0
            ],
            "type": "SCALAR"
        },
        {
            "bufferView": 1,
            "byteOffset": 32856,
            "componentType": 5126,
            "count": 456,
            "max": [
                1.0,
                0.994521975517273,
                1.0
            ],
            "min": [
                -1.0,
                -0.9945219159126282,
                -1.0
            ],
            "type": "VEC3"
        },
        {
            "bufferView": 1,
            "byteOffset": 38328,
            "componentType": 5126,
            "count": 456,
            "max": [
                2.0,
                1.989043951034546,
                200.0
            ],
            "min": [
                -2.0,
                -1.989043951034546,
                0.0
            ],
            "type": "VEC3"
        },
        {
            "bufferView": 2,
            "byteOffset": 10952,
            "componentType": 5126,
            "count": 456,
            "max": [
                0.9833332896232604,
                1.0
            ],
            "min": [
                -0.016666650772094728,
                0.0
            ],
            "type": "VEC2"
        },
        {
            "bufferView": 0,
            "byteOffset": 17280,
            "componentType": 5123,
            "count": 1296,
            "max": [
                299
            ],
            "min": [
                0
            ],
            "type": "SCALAR"
        },
        {
            "bufferView": 1,
            "byteOffset": 43800,
            "componentType": 5126,
            "count": 300,
            "max": [
                0.984807789325714,
                1.0,
                1.0
            ],
            "min": [
                -0.984807789325714,
                -1.0,
                -1.0
            ],
            "type": "VEC3"
        },
        {
            "bufferView": 1,
            "byteOffset": 47400,
            "componentType": 5126,
            "count": 300,
            "max": [
                19.69615936279297,
                20.0,
                850.0
            ],
            "min": [
                -19.69615936279297,
                -20.0,
                0.0
            ],
            "type": "VEC3"
        },
        {
            "bufferView": 2,
            "byteOffset": 14600,
            "componentType": 5126,
            "count": 300,
            "max": [
                1.0,
                1.0
            ],
            "min": [
                0.0,
                0.0
            ],
            "type": "VEC2"
        }
    ],
    "materials": [
        {
            "pbrMetallicRoughness": {
                "baseColorTexture": {
                    "index": 0
                },
                "metallicFactor": 0.0
            },
            "emissiveFactor": [
                0.0,
                0.0,
                0.0
            ],
            "occlusionTexture": {
                "index": 0
            },
            "name": "Material__2100479531"
        },
        {
            "pbrMetallicRoughness": {
                "baseColorTexture": {
                    "index": 1
                },
                "metallicFactor": 0.0
            },
            "emissiveFactor": [
                0.0,
                0.0,
                0.0
            ],
            "occlusionTexture": {
                "index": 1
            },
            "name": "Material__2100479532"
        },
        {
            "pbrMetallicRoughness": {
                "baseColorTexture": {
                    "index": 2
                },
                "metallicFactor": 0.0
            },
            "emissiveFactor": [
                0.0,
                0.0,
                0.0
            ],
            "occlusionTexture": {
                "index": 2
            },
            "name": "Material__2100479527"
        },
        {
            "pbrMetallicRoughness": {
                "baseColorTexture": {
                    "index": 3
                },
                "metallicFactor": 0.0
            },
            "emissiveFactor": [
                0.0,
                0.0,
                0.0
            ],
            "occlusionTexture": {
                "index": 3
            },
            "name": "Material__2100479526"
        },
        {
            "pbrMetallicRoughness": {
                "baseColorTexture": {
                    "index": 4
                },
                "metallicFactor": 0.0
            },
            "emissiveFactor": [
                0.0,
                0.0,
                0.0
            ],
            "occlusionTexture": {
                "index": 4
            },
            "name": "Material__2100479523"
        }
    ],
    "textures": [
        {
            "sampler": 0,
            "source": 0
        },
        {
            "sampler": 0,
            "source": 1
        },
        {
            "sampler": 0,
            "source": 2
        },
        {
            "sampler": 0,
            "source": 3
        },
        {
            "sampler": 0,
            "source": 4
        }
    ],
    "images": [
        {
            "uri": "data:image/jpeg;base64,"
        },
        {
            "uri": "data:image/jpeg;base64,"
        },
        {
            "uri": "data:image/jpeg;base64,"
        },
        {
            "uri": "data:image/jpeg;base64,"
        },
        {
            "uri": "data:image/jpeg;base64,"
        }
    ],
    "samplers": [
        {
            "magFilter": 9729,
            "minFilter": 9986,
            "wrapS": 10497,
            "wrapT": 10497
        }
    ],
    "bufferViews": [
        {
            "buffer": 0,
            "byteOffset": 68000,
            "byteLength": 19872,
            "target": 34963
        },
        {
            "buffer": 0,
            "byteOffset": 0,
            "byteLength": 51000,
            "byteStride": 12,
            "target": 34962
        },
        {
            "buffer": 0,
            "byteOffset": 51000,
            "byteLength": 17000,
            "byteStride": 8,
            "target": 34962
        }
    ],
    "buffers": [
        {
            "byteLength": 87872,
            "uri": "data:application/octet-stream;base64,"
        }
    ]
}
