{
    "asset": {
        "generator": "COLLADA2GLTF",
        "version": "2.0"
    },
    "scene": 0,
    "scenes": [
        {
            "nodes": [
                0
            ]
        }
    ],
    "nodes": [
        {
            "children": [
                1
            ],
            "matrix": [
                1.0,
                0.0,
                0.0,
                0.0,
                0.0,
                0.0,
                -1.0,
                0.0,
                0.0,
                1.0,
                0.0,
                0.0,
                0.0,
                0.0,
                0.0,
                1.0
            ]
        },
        {
            "mesh": 0,
            "matrix": [
                0.35206174850463869,
                0.9359768033027648,
                0.0,
                0.0,
                -0.9359768033027648,
                0.35206174850463869,
                0.0,
                0.0,
                0.0,
                0.0,
                1.0,
                0.0,
                2456.878173828125,
                -1866.260009765625,
                385.60980224609377,
                1.0
            ]
        }
    ],
    "meshes": [
        {
            "primitives": [
                {
                    "attributes": {
                        "NORMAL": 1,
                        "POSITION": 2,
                        "TEXCOORD_0": 3
                    },
                    "indices": 0,
                    "mode": 4,
                    "material": 0
                },
                {
                    "attributes": {
                        "NORMAL": 5,
                        "POSITION": 6,
                        "TEXCOORD_0": 7
                    },
                    "indices": 4,
                    "mode": 4,
                    "material": 1
                },
                {
                    "attributes": {
                        "NORMAL": 9,
                        "POSITION": 10,
                        "TEXCOORD_0": 11
                    },
                    "indices": 8,
                    "mode": 4,
                    "material": 2
                }
            ],
            "name": "Line3117650"
        }
    ],
    "accessors": [
        {
            "bufferView": 0,
            "byteOffset": 0,
            "componentType": 5123,
            "count": 156,
            "max": [
                111
            ],
            "min": [
                0
            ],
            "type": "SCALAR"
        },
        {
            "bufferView": 1,
            "byteOffset": 0,
            "componentType": 5126,
            "count": 112,
            "max": [
                0.2477315068244934,
                0.991227924823761,
                1.0
            ],
            "min": [
                -0.9931505918502808,
                -0.9901267290115356,
                0.0
            ],
            "type": "VEC3"
        },
        {
            "bufferView": 1,
            "byteOffset": 1344,
            "componentType": 5126,
            "count": 112,
            "max": [
                84.80150604248047,
                118.7782974243164,
                11.175829887390137
            ],
            "min": [
                -96.96239471435549,
                -107.31839752197266,
                -254.8073883056641
            ],
            "type": "VEC3"
        },
        {
            "bufferView": 2,
            "byteOffset": 0,
            "componentType": 5126,
            "count": 112,
            "max": [
                19.990009307861329,
                0.9900102615356444
            ],
            "min": [
                0.009990930557250977,
                -18.990009307861329
            ],
            "type": "VEC2"
        },
        {
            "bufferView": 0,
            "byteOffset": 312,
            "componentType": 5123,
            "count": 6,
            "max": [
                3
            ],
            "min": [
                0
            ],
            "type": "SCALAR"
        },
        {
            "bufferView": 1,
            "byteOffset": 2688,
            "componentType": 5126,
            "count": 4,
            "max": [
                0.9891692399978638,
                0.14677999913692478,
                0.0
            ],
            "min": [
                0.9891691207885742,
                0.14677999913692478,
                0.0
            ],
            "type": "VEC3"
        },
        {
            "bufferView": 1,
            "byteOffset": 2736,
            "componentType": 5126,
            "count": 4,
            "max": [
                65.78197479248047,
                94.499755859375,
                11.175829887390137
            ],
            "min": [
                42.223388671875,
                -64.2646484375,
                -152.9167022705078
            ],
            "type": "VEC3"
        },
        {
            "bufferView": 2,
            "byteOffset": 896,
            "componentType": 5126,
            "count": 4,
            "max": [
                0.9995005130767822,
                0.9995004534721376
            ],
            "min": [
                0.0004994869814254344,
                0.0004994869232177734
            ],
            "type": "VEC2"
        },
        {
            "bufferView": 0,
            "byteOffset": 324,
            "componentType": 5123,
            "count": 6,
            "max": [
                3
            ],
            "min": [
                0
            ],
            "type": "SCALAR"
        },
        {
            "bufferView": 1,
            "byteOffset": 2784,
            "componentType": 5126,
            "count": 4,
            "max": [
                0.9886932969093324,
                0.14995230734348298,
                0.0
            ],
            "min": [
                0.9886932373046876,
                0.14995230734348298,
                0.0
            ],
            "type": "VEC3"
        },
        {
            "bufferView": 1,
            "byteOffset": 2832,
            "componentType": 5126,
            "count": 4,
            "max": [
                84.80150604248047,
                118.7782974243164,
                -151.97019958496098
            ],
            "min": [
                53.76854705810547,
                -85.83397674560547,
                -254.8073883056641
            ],
            "type": "VEC3"
        },
        {
            "bufferView": 2,
            "byteOffset": 928,
            "componentType": 5126,
            "count": 4,
            "max": [
                0.950000524520874,
                0.9995005130767822
            ],
            "min": [
                0.04999959096312523,
                0.0004996061325073242
            ],
            "type": "VEC2"
        }
    ],
    "materials": [
        {
            "pbrMetallicRoughness": {
                "baseColorTexture": {
                    "index": 0
                },
                "metallicFactor": 0.0
            },
            "emissiveFactor": [
                0.0,
                0.0,
                0.0
            ],
            "occlusionTexture": {
                "index": 0
            },
            "name": "Material__2100479374",
            "doubleSided": true
        },
        {
            "pbrMetallicRoughness": {
                "baseColorTexture": {
                    "index": 1
                },
                "metallicFactor": 0.0
            },
            "emissiveFactor": [
                0.0,
                0.0,
                0.0
            ],
            "occlusionTexture": {
                "index": 1
            },
            "name": "Material__2100479348",
            "doubleSided": true
        },
        {
            "pbrMetallicRoughness": {
                "baseColorTexture": {
                    "index": 2
                },
                "metallicFactor": 0.0
            },
            "emissiveFactor": [
                0.0,
                0.0,
                0.0
            ],
            "occlusionTexture": {
                "index": 2
            },
            "name": "Material__2100479336",
            "doubleSided": true
        }
    ],
    "textures": [
        {
            "sampler": 0,
            "source": 0
        },
        {
            "sampler": 0,
            "source": 1
        },
        {
            "sampler": 0,
            "source": 2
        }
    ],
    "images": [
        {
            "uri": "data:image/jpeg;base64,"
        },
        {
            "uri": "data:image/png;base64,"
        },
        {
            "uri": "data:image/png;base64,"
        }
    ],
    "samplers": [
        {
            "magFilter": 9729,
            "minFilter": 9986,
            "wrapS": 10497,
            "wrapT": 10497
        }
    ],
    "bufferViews": [
        {
            "buffer": 0,
            "byteOffset": 3840,
            "byteLength": 336,
            "target": 34963
        },
        {
            "buffer": 0,
            "byteOffset": 0,
            "byteLength": 2880,
            "byteStride": 12,
            "target": 34962
        },
        {
            "buffer": 0,
            "byteOffset": 2880,
            "byteLength": 960,
            "byteStride": 8,
            "target": 34962
        }
    ],
    "buffers": [
        {
            "byteLength": 4176,
            "uri": "data:application/octet-stream;base64,"
        }
    ]
}
