{
    "asset": {
        "generator": "COLLADA2GLTF",
        "version": "2.0"
    },
    "scene": 0,
    "scenes": [
        {
            "nodes": [
                0
            ]
        }
    ],
    "nodes": [
        {
            "children": [
                1
            ],
            "matrix": [
                1.0,
                0.0,
                0.0,
                0.0,
                0.0,
                0.0,
                -1.0,
                0.0,
                0.0,
                1.0,
                0.0,
                0.0,
                0.0,
                0.0,
                0.0,
                1.0
            ]
        },
        {
            "children": [
                2
            ],
            "matrix": [
                5.376760482788086,
                -2.662789821624756,
                0.0,
                0.0,
                2.662789821624756,
                5.376760482788086,
                0.0,
                0.0,
                0.0,
                0.0,
                7.203442096710205,
                0.0,
                -3563.021240234375,
                2131.95703125,
                149.6492919921875,
                1.0
            ]
        },
        {
            "mesh": 0,
            "matrix": [
                1.0,
                0.0,
                0.0,
                0.0,
                0.0,
                1.0,
                0.0,
                0.0,
                0.0,
                0.0,
                1.0,
                0.0,
                -40.798580169677737,
                -11.67255973815918,
                0.6220366358757019,
                1.0
            ]
        }
    ],
    "meshes": [
        {
            "primitives": [
                {
                    "attributes": {
                        "NORMAL": 1,
                        "POSITION": 2
                    },
                    "indices": 0,
                    "mode": 4,
                    "material": 0
                },
                {
                    "attributes": {
                        "NORMAL": 4,
                        "POSITION": 5
                    },
                    "indices": 3,
                    "mode": 4,
                    "material": 1
                },
                {
                    "attributes": {
                        "NORMAL": 7,
                        "POSITION": 8
                    },
                    "indices": 6,
                    "mode": 4,
                    "material": 2
                },
                {
                    "attributes": {
                        "NORMAL": 10,
                        "POSITION": 11
                    },
                    "indices": 9,
                    "mode": 4,
                    "material": 3
                },
                {
                    "attributes": {
                        "NORMAL": 13,
                        "POSITION": 14
                    },
                    "indices": 12,
                    "mode": 4,
                    "material": 4
                },
                {
                    "attributes": {
                        "NORMAL": 16,
                        "POSITION": 17
                    },
                    "indices": 15,
                    "mode": 4,
                    "material": 5
                },
                {
                    "attributes": {
                        "NORMAL": 19,
                        "POSITION": 20
                    },
                    "indices": 18,
                    "mode": 4,
                    "material": 6
                },
                {
                    "attributes": {
                        "NORMAL": 22,
                        "POSITION": 23
                    },
                    "indices": 21,
                    "mode": 4,
                    "material": 7
                },
                {
                    "attributes": {
                        "NORMAL": 25,
                        "POSITION": 26
                    },
                    "indices": 24,
                    "mode": 4,
                    "material": 8
                }
            ],
            "name": "dx45"
        }
    ],
    "accessors": [
        {
            "bufferView": 0,
            "byteOffset": 0,
            "componentType": 5123,
            "count": 9216,
            "max": [
                4095
            ],
            "min": [
                0
            ],
            "type": "SCALAR"
        },
        {
            "bufferView": 1,
            "byteOffset": 0,
            "componentType": 5126,
            "count": 4096,
            "max": [
                1.0,
                1.0,
                1.0
            ],
            "min": [
                -1.0,
                -1.0,
                -1.0
            ],
            "type": "VEC3"
        },
        {
            "bufferView": 1,
            "byteOffset": 49152,
            "componentType": 5126,
            "count": 4096,
            "max": [
                136.1136016845703,
                88.49314880371094,
                1.4946069717407229
            ],
            "min": [
                -52.20882034301758,
                -31.35011863708496,
                -2.994256019592285
            ],
            "type": "VEC3"
        },
        {
            "bufferView": 0,
            "byteOffset": 18432,
            "componentType": 5123,
            "count": 576,
            "max": [
                383
            ],
            "min": [
                0
            ],
            "type": "SCALAR"
        },
        {
            "bufferView": 1,
            "byteOffset": 98304,
            "componentType": 5126,
            "count": 384,
            "max": [
                1.0,
                1.0,
                1.0
            ],
            "min": [
                -1.0,
                -1.0,
                -1.0
            ],
            "type": "VEC3"
        },
        {
            "bufferView": 1,
            "byteOffset": 102912,
            "componentType": 5126,
            "count": 384,
            "max": [
                131.32559204101566,
                77.52906799316406,
                -1.078505039215088
            ],
            "min": [
                -47.40694046020508,
                -29.779428482055665,
                -2.994256019592285
            ],
            "type": "VEC3"
        },
        {
            "bufferView": 0,
            "byteOffset": 19584,
            "componentType": 5123,
            "count": 6240,
            "max": [
                3327
            ],
            "min": [
                0
            ],
            "type": "SCALAR"
        },
        {
            "bufferView": 1,
            "byteOffset": 107520,
            "componentType": 5126,
            "count": 3328,
            "max": [
                1.0,
                1.0,
                1.0
            ],
            "min": [
                -1.0,
                -1.0,
                -1.0
            ],
            "type": "VEC3"
        },
        {
            "bufferView": 1,
            "byteOffset": 147456,
            "componentType": 5126,
            "count": 3328,
            "max": [
                135.5800018310547,
                77.70703125,
                1.244462013244629
            ],
            "min": [
                -51.68428039550781,
                -31.30655860900879,
                -2.9439408779144289
            ],
            "type": "VEC3"
        },
        {
            "bufferView": 0,
            "byteOffset": 32064,
            "componentType": 5123,
            "count": 30372,
            "max": [
                16663
            ],
            "min": [
                0
            ],
            "type": "SCALAR"
        },
        {
            "bufferView": 1,
            "byteOffset": 187392,
            "componentType": 5126,
            "count": 16664,
            "max": [
                1.0,
                1.0,
                1.0
            ],
            "min": [
                -1.0,
                -1.0,
                -1.0
            ],
            "type": "VEC3"
        },
        {
            "bufferView": 1,
            "byteOffset": 387360,
            "componentType": 5126,
            "count": 16664,
            "max": [
                135.61309814453126,
                77.7336654663086,
                1.2777799367904664
            ],
            "min": [
                -51.70698928833008,
                -31.32745933532715,
                -2.9939169883728029
            ],
            "type": "VEC3"
        },
        {
            "bufferView": 0,
            "byteOffset": 92808,
            "componentType": 5123,
            "count": 288,
            "max": [
                191
            ],
            "min": [
                0
            ],
            "type": "SCALAR"
        },
        {
            "bufferView": 1,
            "byteOffset": 587328,
            "componentType": 5126,
            "count": 192,
            "max": [
                1.0,
                1.0,
                1.0
            ],
            "min": [
                -1.0,
                -1.0,
                -1.0
            ],
            "type": "VEC3"
        },
        {
            "bufferView": 1,
            "byteOffset": 589632,
            "componentType": 5126,
            "count": 192,
            "max": [
                136.11349487304688,
                88.99315643310547,
                -2.99390983581543
            ],
            "min": [
                -52.20698928833008,
                -31.38534927368164,
                -3.0772039890289308
            ],
            "type": "VEC3"
        },
        {
            "bufferView": 0,
            "byteOffset": 93384,
            "componentType": 5123,
            "count": 528,
            "max": [
                367
            ],
            "min": [
                0
            ],
            "type": "SCALAR"
        },
        {
            "bufferView": 1,
            "byteOffset": 591936,
            "componentType": 5126,
            "count": 368,
            "max": [
                0.4911411106586457,
                0.0000025807898964558264,
                1.0
            ],
            "min": [
                -0.4925549030303955,
                -0.0000026914599402516616,
                0.8702813386917114
            ],
            "type": "VEC3"
        },
        {
            "bufferView": 1,
            "byteOffset": 596352,
            "componentType": 5126,
            "count": 368,
            "max": [
                136.1201934814453,
                88.99314880371094,
                1.8000000715255738
            ],
            "min": [
                -52.20875930786133,
                -31.38582992553711,
                0.10419540107250214
            ],
            "type": "VEC3"
        },
        {
            "bufferView": 0,
            "byteOffset": 94440,
            "componentType": 5123,
            "count": 8544,
            "max": [
                3903
            ],
            "min": [
                0
            ],
            "type": "SCALAR"
        },
        {
            "bufferView": 1,
            "byteOffset": 600768,
            "componentType": 5126,
            "count": 3904,
            "max": [
                1.0,
                1.0,
                1.0
            ],
            "min": [
                -1.0,
                -1.0,
                -1.0
            ],
            "type": "VEC3"
        },
        {
            "bufferView": 1,
            "byteOffset": 647616,
            "componentType": 5126,
            "count": 3904,
            "max": [
                136.2534942626953,
                89.2769546508789,
                1.8331300020217896
            ],
            "min": [
                -52.35894012451172,
                -31.388938903808599,
                -0.07813168317079544
            ],
            "type": "VEC3"
        },
        {
            "bufferView": 0,
            "byteOffset": 111528,
            "componentType": 5123,
            "count": 192,
            "max": [
                79
            ],
            "min": [
                0
            ],
            "type": "SCALAR"
        },
        {
            "bufferView": 1,
            "byteOffset": 694464,
            "componentType": 5126,
            "count": 80,
            "max": [
                0.7921324968338013,
                0.09267807006835938,
                1.0
            ],
            "min": [
                -6.511809829135018e-7,
                -0.897171139717102,
                -0.8271800875663757
            ],
            "type": "VEC3"
        },
        {
            "bufferView": 1,
            "byteOffset": 695424,
            "componentType": 5126,
            "count": 80,
            "max": [
                136.1136016845703,
                88.99315643310547,
                1.8000000715255738
            ],
            "min": [
                -52.20705032348633,
                -31.385818481445314,
                0.1217143014073372
            ],
            "type": "VEC3"
        },
        {
            "bufferView": 0,
            "byteOffset": 111912,
            "componentType": 5123,
            "count": 192,
            "max": [
                127
            ],
            "min": [
                0
            ],
            "type": "SCALAR"
        },
        {
            "bufferView": 1,
            "byteOffset": 696384,
            "componentType": 5126,
            "count": 128,
            "max": [
                1.0,
                1.0,
                0.0
            ],
            "min": [
                -1.0,
                -1.0,
                0.0
            ],
            "type": "VEC3"
        },
        {
            "bufferView": 1,
            "byteOffset": 697920,
            "componentType": 5126,
            "count": 128,
            "max": [
                136.1114959716797,
                88.99112701416016,
                0.12186860293149948
            ],
            "min": [
                -52.20505905151367,
                -31.38243865966797,
                -0.07813143730163574
            ],
            "type": "VEC3"
        }
    ],
    "materials": [
        {
            "pbrMetallicRoughness": {
                "baseColorFactor": [
                    0.8156862854957581,
                    0.7215685844421387,
                    0.5725489854812622,
                    1.0
                ],
                "metallicFactor": 0.0
            },
            "emissiveFactor": [
                0.0,
                0.0,
                0.0
            ],
            "name": "Mat3d66-566423-3-965"
        },
        {
            "pbrMetallicRoughness": {
                "baseColorFactor": [
                    0.5,
                    0.5,
                    0.5,
                    1.0
                ],
                "metallicFactor": 0.0
            },
            "emissiveFactor": [
                0.0,
                0.0,
                0.0
            ],
            "name": "Mat3d66-566423-4-615"
        },
        {
            "pbrMetallicRoughness": {
                "baseColorFactor": [
                    0.501960813999176,
                    0.6313726305961609,
                    0.7882354259490967,
                    1.0
                ],
                "metallicFactor": 0.0
            },
            "emissiveFactor": [
                0.0,
                0.0,
                0.0
            ],
            "name": "Mat3d66-566423-1-946"
        },
        {
            "pbrMetallicRoughness": {
                "baseColorFactor": [
                    0.22745099663734437,
                    0.13725490868091584,
                    0.07058823853731156,
                    1.0
                ],
                "metallicFactor": 0.0
            },
            "emissiveFactor": [
                0.0,
                0.0,
                0.0
            ],
            "name": "Mat3d66-566423-2-554"
        },
        {
            "pbrMetallicRoughness": {
                "baseColorFactor": [
                    0.5,
                    0.5,
                    0.5,
                    1.0
                ],
                "metallicFactor": 0.0
            },
            "emissiveFactor": [
                0.0,
                0.0,
                0.0
            ],
            "name": "Mat3d66-566423-5-609"
        },
        {
            "pbrMetallicRoughness": {
                "baseColorFactor": [
                    0.5,
                    0.5,
                    0.5,
                    1.0
                ],
                "metallicFactor": 0.0
            },
            "emissiveFactor": [
                0.0,
                0.0,
                0.0
            ],
            "name": "Mat3d66-566423-7-646"
        },
        {
            "pbrMetallicRoughness": {
                "baseColorFactor": [
                    0.023529410362243657,
                    0.0313725508749485,
                    0.062745101749897,
                    1.0
                ],
                "metallicFactor": 0.0
            },
            "emissiveFactor": [
                0.0,
                0.0,
                0.0
            ],
            "name": "Mat3d66-566423-8-391"
        },
        {
            "pbrMetallicRoughness": {
                "baseColorFactor": [
                    0.5,
                    0.5,
                    0.5,
                    1.0
                ],
                "metallicFactor": 0.0
            },
            "emissiveFactor": [
                0.0,
                0.0,
                0.0
            ],
            "name": "Mat3d66-566423-6-611"
        },
        {
            "pbrMetallicRoughness": {
                "baseColorFactor": [
                    0.5,
                    0.5,
                    0.5,
                    1.0
                ],
                "metallicFactor": 0.0
            },
            "emissiveFactor": [
                0.0,
                0.0,
                0.0
            ],
            "name": "Mat3d66-566423-10-704"
        }
    ],
    "bufferViews": [
        {
            "buffer": 0,
            "byteOffset": 699456,
            "byteLength": 112296,
            "target": 34963
        },
        {
            "buffer": 0,
            "byteOffset": 0,
            "byteLength": 699456,
            "byteStride": 12,
            "target": 34962
        }
    ],
    "buffers": [
        {
            "byteLength": 811752,
            "uri": "data:application/octet-stream;base64,"
        }
    ]
}
