{
    "asset": {
        "generator": "COLLADA2GLTF",
        "version": "2.0"
    },
    "scene": 0,
    "scenes": [
        {
            "nodes": [
                0
            ]
        }
    ],
    "nodes": [
        {
            "children": [
                1
            ],
            "matrix": [
                1.0,
                0.0,
                0.0,
                0.0,
                0.0,
                0.0,
                -1.0,
                0.0,
                0.0,
                1.0,
                0.0,
                0.0,
                0.0,
                0.0,
                0.0,
                1.0
            ]
        },
        {
            "children": [
                2
            ],
            "matrix": [
                5.376760482788086,
                -2.662789821624756,
                0.0,
                0.0,
                2.662789821624756,
                5.376760482788086,
                0.0,
                0.0,
                0.0,
                0.0,
                6.0,
                0.0,
                -3317.396240234375,
                -1045.7041015625,
                149.6490936279297,
                1.0
            ]
        },
        {
            "mesh": 0,
            "matrix": [
                1.0,
                0.0,
                0.0,
                0.0,
                0.0,
                1.0,
                0.0,
                0.0,
                0.0,
                0.0,
                1.0,
                0.0,
                -50.48414993286133,
                -32.93069839477539,
                2.8876090049743659,
                1.0
            ]
        }
    ],
    "meshes": [
        {
            "primitives": [
                {
                    "attributes": {
                        "NORMAL": 1,
                        "POSITION": 2
                    },
                    "indices": 0,
                    "mode": 4,
                    "material": 0
                },
                {
                    "attributes": {
                        "NORMAL": 4,
                        "POSITION": 5
                    },
                    "indices": 3,
                    "mode": 4,
                    "material": 1
                },
                {
                    "attributes": {
                        "NORMAL": 7,
                        "POSITION": 8
                    },
                    "indices": 6,
                    "mode": 4,
                    "material": 2
                },
                {
                    "attributes": {
                        "NORMAL": 10,
                        "POSITION": 11
                    },
                    "indices": 9,
                    "mode": 4,
                    "material": 3
                },
                {
                    "attributes": {
                        "NORMAL": 13,
                        "POSITION": 14
                    },
                    "indices": 12,
                    "mode": 4,
                    "material": 4
                },
                {
                    "attributes": {
                        "NORMAL": 16,
                        "POSITION": 17
                    },
                    "indices": 15,
                    "mode": 4,
                    "material": 5
                },
                {
                    "attributes": {
                        "NORMAL": 19,
                        "POSITION": 20
                    },
                    "indices": 18,
                    "mode": 4,
                    "material": 6
                },
                {
                    "attributes": {
                        "NORMAL": 22,
                        "POSITION": 23
                    },
                    "indices": 21,
                    "mode": 4,
                    "material": 7
                },
                {
                    "attributes": {
                        "NORMAL": 25,
                        "POSITION": 26
                    },
                    "indices": 24,
                    "mode": 4,
                    "material": 8
                }
            ],
            "name": "dx44"
        }
    ],
    "accessors": [
        {
            "bufferView": 0,
            "byteOffset": 0,
            "componentType": 5123,
            "count": 6912,
            "max": [
                3071
            ],
            "min": [
                0
            ],
            "type": "SCALAR"
        },
        {
            "bufferView": 1,
            "byteOffset": 0,
            "componentType": 5126,
            "count": 3072,
            "max": [
                1.0,
                1.0,
                1.0
            ],
            "min": [
                -1.0,
                -1.0,
                -1.0
            ],
            "type": "VEC3"
        },
        {
            "bufferView": 1,
            "byteOffset": 36864,
            "componentType": 5126,
            "count": 3072,
            "max": [
                114.34300231933594,
                111.46730041503906,
                -0.3464221954345703
            ],
            "min": [
                -13.364449501037598,
                -46.35091781616211,
                -5.73563289642334
            ],
            "type": "VEC3"
        },
        {
            "bufferView": 0,
            "byteOffset": 13824,
            "componentType": 5123,
            "count": 432,
            "max": [
                287
            ],
            "min": [
                0
            ],
            "type": "SCALAR"
        },
        {
            "bufferView": 1,
            "byteOffset": 73728,
            "componentType": 5126,
            "count": 288,
            "max": [
                1.0,
                1.0,
                1.0
            ],
            "min": [
                -1.0,
                -1.0,
                -1.0
            ],
            "type": "VEC3"
        },
        {
            "bufferView": 1,
            "byteOffset": 77184,
            "componentType": 5126,
            "count": 288,
            "max": [
                109.55509948730468,
                100.5031967163086,
                -3.435632944107056
            ],
            "min": [
                -8.562591552734375,
                -44.78022003173828,
                -5.735633850097656
            ],
            "type": "VEC3"
        },
        {
            "bufferView": 0,
            "byteOffset": 14688,
            "componentType": 5123,
            "count": 4680,
            "max": [
                2495
            ],
            "min": [
                0
            ],
            "type": "SCALAR"
        },
        {
            "bufferView": 1,
            "byteOffset": 80640,
            "componentType": 5126,
            "count": 2496,
            "max": [
                1.0,
                1.0,
                1.0
            ],
            "min": [
                -1.0,
                -1.0,
                -1.0
            ],
            "type": "VEC3"
        },
        {
            "bufferView": 1,
            "byteOffset": 110592,
            "componentType": 5126,
            "count": 2496,
            "max": [
                113.80939483642578,
                100.68109893798828,
                -0.6467390060424805
            ],
            "min": [
                -12.839929580688477,
                -46.307369232177737,
                -5.675227165222168
            ],
            "type": "VEC3"
        },
        {
            "bufferView": 0,
            "byteOffset": 24048,
            "componentType": 5123,
            "count": 22752,
            "max": [
                12479
            ],
            "min": [
                0
            ],
            "type": "SCALAR"
        },
        {
            "bufferView": 1,
            "byteOffset": 140544,
            "componentType": 5126,
            "count": 12480,
            "max": [
                1.0,
                1.0,
                1.0
            ],
            "min": [
                -1.0,
                -1.0,
                -1.0
            ],
            "type": "VEC3"
        },
        {
            "bufferView": 1,
            "byteOffset": 290304,
            "componentType": 5126,
            "count": 12480,
            "max": [
                113.84249877929688,
                100.70779418945313,
                -0.6067395210266113
            ],
            "min": [
                -12.862579345703124,
                -46.3282470703125,
                -5.735226154327393
            ],
            "type": "VEC3"
        },
        {
            "bufferView": 0,
            "byteOffset": 69552,
            "componentType": 5123,
            "count": 216,
            "max": [
                143
            ],
            "min": [
                0
            ],
            "type": "SCALAR"
        },
        {
            "bufferView": 1,
            "byteOffset": 440064,
            "componentType": 5126,
            "count": 144,
            "max": [
                1.0,
                1.0,
                1.0
            ],
            "min": [
                -1.0,
                -1.0,
                -1.0
            ],
            "type": "VEC3"
        },
        {
            "bufferView": 1,
            "byteOffset": 441792,
            "componentType": 5126,
            "count": 144,
            "max": [
                114.3428955078125,
                111.96719360351564,
                -5.735218048095703
            ],
            "min": [
                -13.36263942718506,
                -46.38616943359375,
                -5.835217952728272
            ],
            "type": "VEC3"
        },
        {
            "bufferView": 0,
            "byteOffset": 69984,
            "componentType": 5123,
            "count": 396,
            "max": [
                275
            ],
            "min": [
                0
            ],
            "type": "SCALAR"
        },
        {
            "bufferView": 1,
            "byteOffset": 443520,
            "componentType": 5126,
            "count": 276,
            "max": [
                0.560563325881958,
                1.609240030120418e-7,
                1.0
            ],
            "min": [
                -0.562021017074585,
                -2.779119938622898e-7,
                0.8271229863166809
            ],
            "type": "VEC3"
        },
        {
            "bufferView": 1,
            "byteOffset": 446832,
            "componentType": 5126,
            "count": 276,
            "max": [
                114.34959411621094,
                111.96719360351564,
                0.020225290209054948
            ],
            "min": [
                -13.364409446716309,
                -46.38665771484375,
                -2.015713930130005
            ],
            "type": "VEC3"
        },
        {
            "bufferView": 0,
            "byteOffset": 70776,
            "componentType": 5123,
            "count": 6408,
            "max": [
                2927
            ],
            "min": [
                0
            ],
            "type": "SCALAR"
        },
        {
            "bufferView": 1,
            "byteOffset": 450144,
            "componentType": 5126,
            "count": 2928,
            "max": [
                1.0,
                1.0,
                1.0
            ],
            "min": [
                -1.0,
                -1.0,
                -1.0
            ],
            "type": "VEC3"
        },
        {
            "bufferView": 1,
            "byteOffset": 485280,
            "componentType": 5126,
            "count": 2928,
            "max": [
                114.48289489746094,
                112.2510986328125,
                0.06000002101063728
            ],
            "min": [
                -13.514599800109864,
                -46.38972854614258,
                -2.234611034393311
            ],
            "type": "VEC3"
        },
        {
            "bufferView": 0,
            "byteOffset": 83592,
            "componentType": 5123,
            "count": 144,
            "max": [
                59
            ],
            "min": [
                0
            ],
            "type": "SCALAR"
        },
        {
            "bufferView": 1,
            "byteOffset": 520416,
            "componentType": 5126,
            "count": 60,
            "max": [
                0.8463885188102722,
                0.09901633858680724,
                1.0
            ],
            "min": [
                -7.747279937575513e-7,
                -0.8531473875045776,
                -0.7732183337211609
            ],
            "type": "VEC3"
        },
        {
            "bufferView": 1,
            "byteOffset": 521136,
            "componentType": 5126,
            "count": 60,
            "max": [
                114.3428955078125,
                111.96719360351564,
                0.020225290209054948
            ],
            "min": [
                -13.36264991760254,
                -46.38665771484375,
                -1.9946810007095338
            ],
            "type": "VEC3"
        },
        {
            "bufferView": 0,
            "byteOffset": 83880,
            "componentType": 5123,
            "count": 144,
            "max": [
                95
            ],
            "min": [
                0
            ],
            "type": "SCALAR"
        },
        {
            "bufferView": 1,
            "byteOffset": 521856,
            "componentType": 5126,
            "count": 96,
            "max": [
                1.0,
                1.0,
                0.0
            ],
            "min": [
                -1.0,
                -1.0,
                0.0
            ],
            "type": "VEC3"
        },
        {
            "bufferView": 1,
            "byteOffset": 523008,
            "componentType": 5126,
            "count": 96,
            "max": [
                114.34089660644533,
                111.96529388427736,
                -1.9944959878921509
            ],
            "min": [
                -13.36067008972168,
                -46.3831901550293,
                -2.234611034393311
            ],
            "type": "VEC3"
        }
    ],
    "materials": [
        {
            "pbrMetallicRoughness": {
                "baseColorFactor": [
                    0.8156862854957581,
                    0.7215685844421387,
                    0.5725489854812622,
                    1.0
                ],
                "metallicFactor": 0.0
            },
            "emissiveFactor": [
                0.0,
                0.0,
                0.0
            ],
            "name": "Mat3d66-566423-3-965"
        },
        {
            "pbrMetallicRoughness": {
                "baseColorFactor": [
                    0.5,
                    0.5,
                    0.5,
                    1.0
                ],
                "metallicFactor": 0.0
            },
            "emissiveFactor": [
                0.0,
                0.0,
                0.0
            ],
            "name": "Mat3d66-566423-4-615"
        },
        {
            "pbrMetallicRoughness": {
                "baseColorFactor": [
                    0.501960813999176,
                    0.6313726305961609,
                    0.7882354259490967,
                    1.0
                ],
                "metallicFactor": 0.0
            },
            "emissiveFactor": [
                0.0,
                0.0,
                0.0
            ],
            "name": "Mat3d66-566423-1-946"
        },
        {
            "pbrMetallicRoughness": {
                "baseColorFactor": [
                    0.22745099663734437,
                    0.13725490868091584,
                    0.07058823853731156,
                    1.0
                ],
                "metallicFactor": 0.0
            },
            "emissiveFactor": [
                0.0,
                0.0,
                0.0
            ],
            "name": "Mat3d66-566423-2-554"
        },
        {
            "pbrMetallicRoughness": {
                "baseColorFactor": [
                    0.5,
                    0.5,
                    0.5,
                    1.0
                ],
                "metallicFactor": 0.0
            },
            "emissiveFactor": [
                0.0,
                0.0,
                0.0
            ],
            "name": "Mat3d66-566423-5-609"
        },
        {
            "pbrMetallicRoughness": {
                "baseColorFactor": [
                    0.5,
                    0.5,
                    0.5,
                    1.0
                ],
                "metallicFactor": 0.0
            },
            "emissiveFactor": [
                0.0,
                0.0,
                0.0
            ],
            "name": "Mat3d66-566423-7-646"
        },
        {
            "pbrMetallicRoughness": {
                "baseColorFactor": [
                    0.023529410362243657,
                    0.0313725508749485,
                    0.062745101749897,
                    1.0
                ],
                "metallicFactor": 0.0
            },
            "emissiveFactor": [
                0.0,
                0.0,
                0.0
            ],
            "name": "Mat3d66-566423-8-391"
        },
        {
            "pbrMetallicRoughness": {
                "baseColorFactor": [
                    0.5,
                    0.5,
                    0.5,
                    1.0
                ],
                "metallicFactor": 0.0
            },
            "emissiveFactor": [
                0.0,
                0.0,
                0.0
            ],
            "name": "Mat3d66-566423-6-611"
        },
        {
            "pbrMetallicRoughness": {
                "baseColorFactor": [
                    0.5,
                    0.5,
                    0.5,
                    1.0
                ],
                "metallicFactor": 0.0
            },
            "emissiveFactor": [
                0.0,
                0.0,
                0.0
            ],
            "name": "Mat3d66-566423-10-704"
        }
    ],
    "bufferViews": [
        {
            "buffer": 0,
            "byteOffset": 524160,
            "byteLength": 84168,
            "target": 34963
        },
        {
            "buffer": 0,
            "byteOffset": 0,
            "byteLength": 524160,
            "byteStride": 12,
            "target": 34962
        }
    ],
    "buffers": [
        {
            "byteLength": 608328,
            "uri": "data:application/octet-stream;base64,"
        }
    ]
}
