{
    "asset": {
        "generator": "COLLADA2GLTF",
        "version": "2.0"
    },
    "scene": 0,
    "scenes": [
        {
            "nodes": [
                0
            ]
        }
    ],
    "nodes": [
        {
            "children": [
                1
            ],
            "matrix": [
                1.0,
                0.0,
                0.0,
                0.0,
                0.0,
                0.0,
                -1.0,
                0.0,
                0.0,
                1.0,
                0.0,
                0.0,
                0.0,
                0.0,
                0.0,
                1.0
            ]
        },
        {
            "children": [
                2
            ],
            "matrix": [
                5.028205871582031,
                9.783514022827149,
                0.0,
                0.0,
                -9.783514022827149,
                5.028205871582031,
                0.0,
                0.0,
                0.0,
                0.0,
                10.0,
                0.0,
                483.1544799804688,
                1069.68994140625,
                328.5653991699219,
                1.0
            ]
        },
        {
            "mesh": 0,
            "matrix": [
                1.0,
                0.0,
                0.0,
                0.0,
                0.0,
                1.0,
                0.0,
                0.0,
                0.0,
                0.0,
                1.0,
                0.0,
                0.014172079972922802,
                -10.666130065917969,
                -31.44097900390625,
                1.0
            ]
        }
    ],
    "meshes": [
        {
            "primitives": [
                {
                    "attributes": {
                        "NORMAL": 1,
                        "POSITION": 2,
                        "TEXCOORD_0": 3
                    },
                    "indices": 0,
                    "mode": 4,
                    "material": 0
                },
                {
                    "attributes": {
                        "NORMAL": 5,
                        "POSITION": 6,
                        "TEXCOORD_0": 7
                    },
                    "indices": 4,
                    "mode": 4,
                    "material": 1
                },
                {
                    "attributes": {
                        "NORMAL": 9,
                        "POSITION": 10,
                        "TEXCOORD_0": 11
                    },
                    "indices": 8,
                    "mode": 4,
                    "material": 2
                },
                {
                    "attributes": {
                        "NORMAL": 13,
                        "POSITION": 14,
                        "TEXCOORD_0": 15
                    },
                    "indices": 12,
                    "mode": 4,
                    "material": 3
                },
                {
                    "attributes": {
                        "NORMAL": 17,
                        "POSITION": 18,
                        "TEXCOORD_0": 19
                    },
                    "indices": 16,
                    "mode": 4,
                    "material": 4
                }
            ],
            "name": "dx42"
        }
    ],
    "accessors": [
        {
            "bufferView": 0,
            "byteOffset": 0,
            "componentType": 5123,
            "count": 339,
            "max": [
                114
            ],
            "min": [
                0
            ],
            "type": "SCALAR"
        },
        {
            "bufferView": 1,
            "byteOffset": 0,
            "componentType": 5126,
            "count": 115,
            "max": [
                0.0000457935020676814,
                0.00001589090061315801,
                1.0
            ],
            "min": [
                -0.000019689399778144439,
                -0.000033160700695589188,
                -1.0
            ],
            "type": "VEC3"
        },
        {
            "bufferView": 1,
            "byteOffset": 1380,
            "componentType": 5126,
            "count": 115,
            "max": [
                53.5999870300293,
                22.96438980102539,
                29.46177864074707
            ],
            "min": [
                -53.6002197265625,
                -1.6910009384155274,
                29.461769104003908
            ],
            "type": "VEC3"
        },
        {
            "bufferView": 2,
            "byteOffset": 0,
            "componentType": 5126,
            "count": 115,
            "max": [
                1.0,
                1.0
            ],
            "min": [
                0.0,
                0.0
            ],
            "type": "VEC2"
        },
        {
            "bufferView": 0,
            "byteOffset": 678,
            "componentType": 5123,
            "count": 654,
            "max": [
                471
            ],
            "min": [
                0
            ],
            "type": "SCALAR"
        },
        {
            "bufferView": 1,
            "byteOffset": 2760,
            "componentType": 5126,
            "count": 472,
            "max": [
                1.0,
                1.0,
                5.947650150162075e-10
            ],
            "min": [
                -1.0,
                -1.0,
                -3.1970999181396566e-9
            ],
            "type": "VEC3"
        },
        {
            "bufferView": 1,
            "byteOffset": 8424,
            "componentType": 5126,
            "count": 472,
            "max": [
                54.19347763061524,
                23.55395889282227,
                30.644258499145509
            ],
            "min": [
                -54.19371795654297,
                -2.2805769443511965,
                12.026359558105469
            ],
            "type": "VEC3"
        },
        {
            "bufferView": 2,
            "byteOffset": 920,
            "componentType": 5126,
            "count": 472,
            "max": [
                5.995104789733887,
                0.9979134798049928
            ],
            "min": [
                0.0048944950103759769,
                0.007986068725585938
            ],
            "type": "VEC2"
        },
        {
            "bufferView": 0,
            "byteOffset": 1986,
            "componentType": 5123,
            "count": 882,
            "max": [
                227
            ],
            "min": [
                0
            ],
            "type": "SCALAR"
        },
        {
            "bufferView": 1,
            "byteOffset": 14088,
            "componentType": 5126,
            "count": 228,
            "max": [
                1.0,
                0.9985284209251404,
                1.0
            ],
            "min": [
                -0.9985287189483644,
                -0.9985288381576538,
                -1.0
            ],
            "type": "VEC3"
        },
        {
            "bufferView": 1,
            "byteOffset": 16824,
            "componentType": 5126,
            "count": 228,
            "max": [
                1.4454259872436524,
                11.986689567565918,
                52.9345588684082
            ],
            "min": [
                -1.4456369876861573,
                9.286697387695313,
                40.64986038208008
            ],
            "type": "VEC3"
        },
        {
            "bufferView": 2,
            "byteOffset": 4696,
            "componentType": 5126,
            "count": 228,
            "max": [
                3.3132200241088869,
                1.0
            ],
            "min": [
                0.0,
                -0.7191410064697266
            ],
            "type": "VEC2"
        },
        {
            "bufferView": 0,
            "byteOffset": 3750,
            "componentType": 5123,
            "count": 48,
            "max": [
                39
            ],
            "min": [
                0
            ],
            "type": "SCALAR"
        },
        {
            "bufferView": 1,
            "byteOffset": 19560,
            "componentType": 5126,
            "count": 40,
            "max": [
                1.0,
                1.0,
                1.797090050104089e-7
            ],
            "min": [
                -1.0,
                -1.0,
                -2.995149941398268e-7
            ],
            "type": "VEC3"
        },
        {
            "bufferView": 1,
            "byteOffset": 20040,
            "componentType": 5126,
            "count": 40,
            "max": [
                4.336489200592041,
                14.686689376831057,
                38.60440826416016
            ],
            "min": [
                -4.33669900894165,
                6.586700916290283,
                30.644248962402345
            ],
            "type": "VEC3"
        },
        {
            "bufferView": 2,
            "byteOffset": 6520,
            "componentType": 5126,
            "count": 40,
            "max": [
                1.0,
                1.0
            ],
            "min": [
                0.0,
                0.0
            ],
            "type": "VEC2"
        },
        {
            "bufferView": 0,
            "byteOffset": 3846,
            "componentType": 5123,
            "count": 726,
            "max": [
                649
            ],
            "min": [
                0
            ],
            "type": "SCALAR"
        },
        {
            "bufferView": 1,
            "byteOffset": 20520,
            "componentType": 5126,
            "count": 650,
            "max": [
                0.8949314951896668,
                0.8949311971664429,
                1.0
            ],
            "min": [
                -0.8949311375617981,
                -0.8949313163757324,
                0.4462023973464966
            ],
            "type": "VEC3"
        },
        {
            "bufferView": 1,
            "byteOffset": 28320,
            "componentType": 5126,
            "count": 650,
            "max": [
                54.19347763061524,
                23.55395889282227,
                40.64986038208008
            ],
            "min": [
                -54.19371795654297,
                -2.2805769443511965,
                29.461769104003908
            ],
            "type": "VEC3"
        },
        {
            "bufferView": 2,
            "byteOffset": 6840,
            "componentType": 5126,
            "count": 650,
            "max": [
                5.997003078460693,
                0.9991408586502076
            ],
            "min": [
                0.002997100120410323,
                -0.7191410064697266
            ],
            "type": "VEC2"
        }
    ],
    "materials": [
        {
            "pbrMetallicRoughness": {
                "baseColorTexture": {
                    "index": 0
                },
                "metallicFactor": 0.0
            },
            "emissiveFactor": [
                0.0,
                0.0,
                0.0
            ],
            "occlusionTexture": {
                "index": 0
            },
            "name": "Material__2100479593"
        },
        {
            "pbrMetallicRoughness": {
                "baseColorTexture": {
                    "index": 1
                },
                "metallicFactor": 0.0
            },
            "emissiveFactor": [
                0.0,
                0.0,
                0.0
            ],
            "occlusionTexture": {
                "index": 1
            },
            "name": "Material__2100479554"
        },
        {
            "pbrMetallicRoughness": {
                "baseColorTexture": {
                    "index": 2
                },
                "metallicFactor": 0.0
            },
            "emissiveFactor": [
                0.0,
                0.0,
                0.0
            ],
            "occlusionTexture": {
                "index": 2
            },
            "name": "Material__2100479580"
        },
        {
            "pbrMetallicRoughness": {
                "baseColorTexture": {
                    "index": 3
                },
                "metallicFactor": 0.0
            },
            "emissiveFactor": [
                0.0,
                0.0,
                0.0
            ],
            "occlusionTexture": {
                "index": 3
            },
            "name": "Material__2100479567"
        },
        {
            "pbrMetallicRoughness": {
                "baseColorTexture": {
                    "index": 4
                },
                "metallicFactor": 0.0
            },
            "emissiveFactor": [
                0.0,
                0.0,
                0.0
            ],
            "occlusionTexture": {
                "index": 4
            },
            "name": "Material__2100479555"
        }
    ],
    "textures": [
        {
            "sampler": 0,
            "source": 0
        },
        {
            "sampler": 0,
            "source": 1
        },
        {
            "sampler": 0,
            "source": 0
        },
        {
            "sampler": 0,
            "source": 2
        },
        {
            "sampler": 0,
            "source": 0
        }
    ],
    "images": [
        {
            "uri": "data:image/png;base64,"
        },
        {
            "uri": "data:image/png;base64,"
        },
        {
            "uri": "data:image/png;base64,"
        }
    ],
    "samplers": [
        {
            "magFilter": 9729,
            "minFilter": 9986,
            "wrapS": 10497,
            "wrapT": 10497
        }
    ],
    "bufferViews": [
        {
            "buffer": 0,
            "byteOffset": 48160,
            "byteLength": 5298,
            "target": 34963
        },
        {
            "buffer": 0,
            "byteOffset": 0,
            "byteLength": 36120,
            "byteStride": 12,
            "target": 34962
        },
        {
            "buffer": 0,
            "byteOffset": 36120,
            "byteLength": 12040,
            "byteStride": 8,
            "target": 34962
        }
    ],
    "buffers": [
        {
            "byteLength": 53458,
            "uri": "data:application/octet-stream;base64,"
        }
    ]
}
