{
    "asset": {
        "generator": "COLLADA2GLTF",
        "version": "2.0"
    },
    "scene": 0,
    "scenes": [
        {
            "nodes": [
                0
            ]
        }
    ],
    "nodes": [
        {
            "children": [
                1
            ],
            "matrix": [
                1.0,
                0.0,
                0.0,
                0.0,
                0.0,
                0.0,
                -1.0,
                0.0,
                0.0,
                1.0,
                0.0,
                0.0,
                0.0,
                0.0,
                0.0,
                1.0
            ]
        },
        {
            "children": [
                2
            ],
            "matrix": [
                9.061455726623536,
                -4.941353797912598,
                -9.630125532567036e-7,
                0.0,
                -4.941353797912598,
                -9.061455726623536,
                -0.0000037737013371952345,
                0.0,
                -5.587823466157715e-7,
                -0.000002194025682911161,
                6.0,
                0.0,
                1525.4180908203126,
                860.13427734375,
                144.4897918701172,
                1.0
            ]
        },
        {
            "mesh": 0,
            "matrix": [
                1.0,
                0.0,
                0.0,
                0.0,
                0.0,
                1.0,
                0.0,
                0.0,
                0.0,
                0.0,
                1.0,
                0.0,
                68.99234771728516,
                -72.4214096069336,
                -2.084686040878296,
                1.0
            ]
        }
    ],
    "meshes": [
        {
            "primitives": [
                {
                    "attributes": {
                        "NORMAL": 1,
                        "POSITION": 2
                    },
                    "indices": 0,
                    "mode": 4,
                    "material": 0
                },
                {
                    "attributes": {
                        "NORMAL": 4,
                        "POSITION": 5
                    },
                    "indices": 3,
                    "mode": 4,
                    "material": 1
                },
                {
                    "attributes": {
                        "NORMAL": 7,
                        "POSITION": 8
                    },
                    "indices": 6,
                    "mode": 4,
                    "material": 2
                },
                {
                    "attributes": {
                        "NORMAL": 10,
                        "POSITION": 11
                    },
                    "indices": 9,
                    "mode": 4,
                    "material": 3
                },
                {
                    "attributes": {
                        "NORMAL": 13,
                        "POSITION": 14
                    },
                    "indices": 12,
                    "mode": 4,
                    "material": 4
                },
                {
                    "attributes": {
                        "NORMAL": 16,
                        "POSITION": 17
                    },
                    "indices": 15,
                    "mode": 4,
                    "material": 5
                },
                {
                    "attributes": {
                        "NORMAL": 19,
                        "POSITION": 20
                    },
                    "indices": 18,
                    "mode": 4,
                    "material": 6
                },
                {
                    "attributes": {
                        "NORMAL": 22,
                        "POSITION": 23
                    },
                    "indices": 21,
                    "mode": 4,
                    "material": 7
                }
            ],
            "name": "dx163"
        }
    ],
    "accessors": [
        {
            "bufferView": 0,
            "byteOffset": 0,
            "componentType": 5123,
            "count": 4704,
            "max": [
                1863
            ],
            "min": [
                0
            ],
            "type": "SCALAR"
        },
        {
            "bufferView": 1,
            "byteOffset": 0,
            "componentType": 5126,
            "count": 1864,
            "max": [
                0.99995619058609,
                0.99995619058609,
                1.0
            ],
            "min": [
                -0.9999592304229736,
                -0.99995619058609,
                -1.0
            ],
            "type": "VEC3"
        },
        {
            "bufferView": 1,
            "byteOffset": 22368,
            "componentType": 5126,
            "count": 1864,
            "max": [
                -54.80010986328125,
                80.07177734375,
                0.10003340244293212
            ],
            "min": [
                -83.1845703125,
                64.77102661132813,
                0.000022109599740360865
            ],
            "type": "VEC3"
        },
        {
            "bufferView": 0,
            "byteOffset": 9408,
            "componentType": 5123,
            "count": 4656,
            "max": [
                2103
            ],
            "min": [
                0
            ],
            "type": "SCALAR"
        },
        {
            "bufferView": 1,
            "byteOffset": 44736,
            "componentType": 5126,
            "count": 2104,
            "max": [
                0.9999561309814452,
                0.9999561309814452,
                1.0
            ],
            "min": [
                -0.9999561309814452,
                -0.9999561309814452,
                -1.0
            ],
            "type": "VEC3"
        },
        {
            "bufferView": 1,
            "byteOffset": 69984,
            "componentType": 5126,
            "count": 2104,
            "max": [
                -54.812007904052737,
                78.8018569946289,
                0.1000330001115799
            ],
            "min": [
                -83.17263793945313,
                66.04094696044922,
                0.00002502989991626237
            ],
            "type": "VEC3"
        },
        {
            "bufferView": 0,
            "byteOffset": 18720,
            "componentType": 5123,
            "count": 3072,
            "max": [
                1063
            ],
            "min": [
                0
            ],
            "type": "SCALAR"
        },
        {
            "bufferView": 1,
            "byteOffset": 95232,
            "componentType": 5126,
            "count": 1064,
            "max": [
                0.9999561309814452,
                0.9985108971595764,
                1.0
            ],
            "min": [
                -0.9999592304229736,
                -0.9985209107398988,
                -1.0
            ],
            "type": "VEC3"
        },
        {
            "bufferView": 1,
            "byteOffset": 108000,
            "componentType": 5126,
            "count": 1064,
            "max": [
                -54.84470748901367,
                75.31285095214844,
                0.10003120452165604
            ],
            "min": [
                -83.13997650146485,
                69.5303955078125,
                0.00002159890027542133
            ],
            "type": "VEC3"
        },
        {
            "bufferView": 0,
            "byteOffset": 24864,
            "componentType": 5123,
            "count": 271152,
            "max": [
                46101
            ],
            "min": [
                0
            ],
            "type": "SCALAR"
        },
        {
            "bufferView": 1,
            "byteOffset": 120768,
            "componentType": 5126,
            "count": 46102,
            "max": [
                0.999998927116394,
                0.9999995827674866,
                1.0
            ],
            "min": [
                -0.9999991059303284,
                -0.9999995827674866,
                -1.0
            ],
            "type": "VEC3"
        },
        {
            "bufferView": 1,
            "byteOffset": 673992,
            "componentType": 5126,
            "count": 46102,
            "max": [
                -58.73838806152344,
                72.73835754394531,
                3.033111095428467
            ],
            "min": [
                -78.94294738769531,
                72.10470581054688,
                2.9243898391723639
            ],
            "type": "VEC3"
        },
        {
            "bufferView": 0,
            "byteOffset": 567168,
            "componentType": 5123,
            "count": 72,
            "max": [
                47
            ],
            "min": [
                0
            ],
            "type": "SCALAR"
        },
        {
            "bufferView": 1,
            "byteOffset": 1227216,
            "componentType": 5126,
            "count": 48,
            "max": [
                0.9999561309814452,
                0.9999567270278932,
                1.0
            ],
            "min": [
                -0.9999561309814452,
                -0.9999567270278932,
                -1.0
            ],
            "type": "VEC3"
        },
        {
            "bufferView": 1,
            "byteOffset": 1227792,
            "componentType": 5126,
            "count": 48,
            "max": [
                -58.7105598449707,
                73.4332504272461,
                4.169353008270264
            ],
            "min": [
                -78.9708251953125,
                71.41485595703125,
                2.7977519035339357
            ],
            "type": "VEC3"
        },
        {
            "bufferView": 0,
            "byteOffset": 567312,
            "componentType": 5123,
            "count": 1968,
            "max": [
                1127
            ],
            "min": [
                0
            ],
            "type": "SCALAR"
        },
        {
            "bufferView": 1,
            "byteOffset": 1228368,
            "componentType": 5126,
            "count": 1128,
            "max": [
                0.9999577403068544,
                0.9999719262123108,
                1.0
            ],
            "min": [
                -0.9999577403068544,
                -0.9999719262123108,
                -1.0
            ],
            "type": "VEC3"
        },
        {
            "bufferView": 1,
            "byteOffset": 1241904,
            "componentType": 5126,
            "count": 1128,
            "max": [
                -53.38544845581055,
                81.48646545410156,
                4.169351100921631
            ],
            "min": [
                -84.59922790527344,
                63.35633850097656,
                0.000024245700842584485
            ],
            "type": "VEC3"
        },
        {
            "bufferView": 0,
            "byteOffset": 571248,
            "componentType": 5123,
            "count": 2448,
            "max": [
                415
            ],
            "min": [
                0
            ],
            "type": "SCALAR"
        },
        {
            "bufferView": 1,
            "byteOffset": 1255440,
            "componentType": 5126,
            "count": 416,
            "max": [
                0.9845985174179076,
                0.9890649318695068,
                0.9881086349487304
            ],
            "min": [
                -0.9846153855323792,
                -0.9890792369842528,
                -0.9881086945533752
            ],
            "type": "VEC3"
        },
        {
            "bufferView": 1,
            "byteOffset": 1260432,
            "componentType": 5126,
            "count": 416,
            "max": [
                -54.93430709838867,
                73.16339874267578,
                3.06394100189209
            ],
            "min": [
                -82.74708557128906,
                71.6847152709961,
                0.0966087207198143
            ],
            "type": "VEC3"
        },
        {
            "bufferView": 0,
            "byteOffset": 576144,
            "componentType": 5123,
            "count": 12756,
            "max": [
                4327
            ],
            "min": [
                0
            ],
            "type": "SCALAR"
        },
        {
            "bufferView": 1,
            "byteOffset": 1265424,
            "componentType": 5126,
            "count": 4328,
            "max": [
                0.9999592304229736,
                0.9999561309814452,
                1.0
            ],
            "min": [
                -0.99995619058609,
                -0.9999561309814452,
                -1.0
            ],
            "type": "VEC3"
        },
        {
            "bufferView": 1,
            "byteOffset": 1317360,
            "componentType": 5126,
            "count": 4328,
            "max": [
                -54.697566986083987,
                80.1743392944336,
                0.1000308021903038
            ],
            "min": [
                -83.287109375,
                64.66845703125,
                0.000024756700440775604
            ],
            "type": "VEC3"
        }
    ],
    "materials": [
        {
            "pbrMetallicRoughness": {
                "baseColorFactor": [
                    0.5,
                    0.5,
                    0.5,
                    1.0
                ],
                "metallicFactor": 0.0
            },
            "emissiveFactor": [
                0.0,
                0.0,
                0.0
            ],
            "name": "_7_-_Def234ault"
        },
        {
            "pbrMetallicRoughness": {
                "baseColorFactor": [
                    0.8823530077934265,
                    0.6901960968971252,
                    0.17254899442195893,
                    1.0
                ],
                "metallicFactor": 0.0
            },
            "emissiveFactor": [
                0.0,
                0.0,
                0.0
            ],
            "name": "__-_Default234234"
        },
        {
            "pbrMetallicRoughness": {
                "baseColorFactor": [
                    0.45098039507865908,
                    0.07058823853731156,
                    0.07058823853731156,
                    1.0
                ],
                "metallicFactor": 0.0
            },
            "emissiveFactor": [
                0.0,
                0.0,
                0.0
            ],
            "name": "__-_Default234"
        },
        {
            "pbrMetallicRoughness": {
                "baseColorFactor": [
                    0.8980392813682556,
                    0.17254899442195893,
                    0.11764710396528244,
                    1.0
                ],
                "metallicFactor": 0.0
            },
            "emissiveFactor": [
                0.0,
                0.0,
                0.0
            ],
            "name": "ARCHMODELS_47_018_5"
        },
        {
            "pbrMetallicRoughness": {
                "baseColorFactor": [
                    1.0,
                    1.0,
                    1.0,
                    1.0
                ],
                "metallicFactor": 0.0
            },
            "emissiveFactor": [
                0.0,
                0.0,
                0.0
            ],
            "name": "__-_Default"
        },
        {
            "pbrMetallicRoughness": {
                "baseColorFactor": [
                    0.019607840105891229,
                    0.11764710396528244,
                    0.3019607961177826,
                    1.0
                ],
                "metallicFactor": 0.0
            },
            "emissiveFactor": [
                0.0,
                0.0,
                0.0
            ],
            "name": "__-_Default_2"
        },
        {
            "pbrMetallicRoughness": {
                "baseColorFactor": [
                    0.7372549176216126,
                    0.38431379199028017,
                    0.09803921729326248,
                    1.0
                ],
                "metallicFactor": 0.0
            },
            "emissiveFactor": [
                0.0,
                0.0,
                0.0
            ],
            "name": "__-_Default_1"
        },
        {
            "pbrMetallicRoughness": {
                "baseColorFactor": [
                    1.0,
                    1.0,
                    1.0,
                    1.0
                ],
                "metallicFactor": 0.0
            },
            "emissiveFactor": [
                0.0,
                0.0,
                0.0
            ],
            "name": "__-_Defaultd"
        }
    ],
    "bufferViews": [
        {
            "buffer": 0,
            "byteOffset": 1369296,
            "byteLength": 601656,
            "target": 34963
        },
        {
            "buffer": 0,
            "byteOffset": 0,
            "byteLength": 1369296,
            "byteStride": 12,
            "target": 34962
        }
    ],
    "buffers": [
        {
            "byteLength": 1970952,
            "uri": "data:application/octet-stream;base64,"
        }
    ]
}
