{
    "asset": {
        "generator": "COLLADA2GLTF",
        "version": "2.0"
    },
    "scene": 0,
    "scenes": [
        {
            "nodes": [
                0
            ]
        }
    ],
    "nodes": [
        {
            "children": [
                1
            ],
            "matrix": [
                1.0,
                0.0,
                0.0,
                0.0,
                0.0,
                0.0,
                -1.0,
                0.0,
                0.0,
                1.0,
                0.0,
                0.0,
                0.0,
                0.0,
                0.0,
                1.0
            ]
        },
        {
            "children": [
                3,
                2
            ],
            "matrix": [
                1.0,
                0.0,
                0.0,
                0.0,
                0.0,
                1.0,
                0.0,
                0.0,
                0.0,
                0.0,
                1.0,
                0.0,
                1982.0950927734376,
                -3984.711181640625,
                320.7091979980469,
                1.0
            ]
        },
        {
            "mesh": 0,
            "matrix": [
                -0.5523514747619629,
                0.8336113095283508,
                -1.23239715321688e-7,
                0.0,
                0.8336113095283508,
                0.5523514747619629,
                -0.0000017474318383392529,
                0.0,
                0.0000013886073020330514,
                0.0000010679306114980137,
                1.0,
                0.0,
                182.21389770507813,
                -214.3734893798828,
                -10.175049781799317,
                1.0
            ]
        },
        {
            "mesh": 1,
            "matrix": [
                1.0,
                0.0,
                0.0,
                0.0,
                0.0,
                1.0,
                0.0,
                0.0,
                0.0,
                0.0,
                1.0,
                0.0,
                -386.1642761230469,
                95.94091796875,
                -10.175049781799317,
                1.0
            ]
        }
    ],
    "meshes": [
        {
            "primitives": [
                {
                    "attributes": {
                        "NORMAL": 1,
                        "POSITION": 2,
                        "TEXCOORD_0": 3
                    },
                    "indices": 0,
                    "mode": 4,
                    "material": 0
                },
                {
                    "attributes": {
                        "NORMAL": 5,
                        "POSITION": 6,
                        "TEXCOORD_0": 7
                    },
                    "indices": 4,
                    "mode": 4,
                    "material": 1
                },
                {
                    "attributes": {
                        "NORMAL": 9,
                        "POSITION": 10,
                        "TEXCOORD_0": 11
                    },
                    "indices": 8,
                    "mode": 4,
                    "material": 2
                },
                {
                    "attributes": {
                        "NORMAL": 13,
                        "POSITION": 14,
                        "TEXCOORD_0": 15
                    },
                    "indices": 12,
                    "mode": 4,
                    "material": 3
                }
            ],
            "name": "Line002"
        },
        {
            "primitives": [
                {
                    "attributes": {
                        "NORMAL": 17,
                        "POSITION": 18,
                        "TEXCOORD_0": 19
                    },
                    "indices": 16,
                    "mode": 4,
                    "material": 4
                },
                {
                    "attributes": {
                        "NORMAL": 21,
                        "POSITION": 22,
                        "TEXCOORD_0": 23
                    },
                    "indices": 20,
                    "mode": 4,
                    "material": 5
                },
                {
                    "attributes": {
                        "NORMAL": 25,
                        "POSITION": 26,
                        "TEXCOORD_0": 27
                    },
                    "indices": 24,
                    "mode": 4,
                    "material": 6
                },
                {
                    "attributes": {
                        "NORMAL": 29,
                        "POSITION": 30,
                        "TEXCOORD_0": 31
                    },
                    "indices": 28,
                    "mode": 4,
                    "material": 7
                }
            ],
            "name": "Line001"
        }
    ],
    "accessors": [
        {
            "bufferView": 0,
            "byteOffset": 0,
            "componentType": 5123,
            "count": 387,
            "max": [
                132
            ],
            "min": [
                0
            ],
            "type": "SCALAR"
        },
        {
            "bufferView": 1,
            "byteOffset": 0,
            "componentType": 5126,
            "count": 133,
            "max": [
                6.578720217476075e-7,
                4.5213198518467847e-7,
                1.0
            ],
            "min": [
                -4.498510008943413e-7,
                -0.000001413680024597852,
                0.9999999403953552
            ],
            "type": "VEC3"
        },
        {
            "bufferView": 1,
            "byteOffset": 1596,
            "componentType": 5126,
            "count": 133,
            "max": [
                269.552490234375,
                421.3952941894531,
                192.96409606933598
            ],
            "min": [
                -245.9617919921875,
                -227.69369506835936,
                -103.01129913330078
            ],
            "type": "VEC3"
        },
        {
            "bufferView": 2,
            "byteOffset": 0,
            "componentType": 5126,
            "count": 133,
            "max": [
                4.997501850128174,
                0.9975025653839112
            ],
            "min": [
                0.002497732872143388,
                -3.997501850128174
            ],
            "type": "VEC2"
        },
        {
            "bufferView": 0,
            "byteOffset": 774,
            "componentType": 5123,
            "count": 432,
            "max": [
                301
            ],
            "min": [
                0
            ],
            "type": "SCALAR"
        },
        {
            "bufferView": 1,
            "byteOffset": 3192,
            "componentType": 5126,
            "count": 302,
            "max": [
                0.999923586845398,
                0.9999772906303406,
                2.5654900426275164e-9
            ],
            "min": [
                -0.9992886185646056,
                -0.9997738003730774,
                0.0
            ],
            "type": "VEC3"
        },
        {
            "bufferView": 1,
            "byteOffset": 6816,
            "componentType": 5126,
            "count": 302,
            "max": [
                273.00048828125,
                425.5977783203125,
                -98.02542114257813
            ],
            "min": [
                -250.0927886962891,
                -231.8120880126953,
                -175.90301513671876
            ],
            "type": "VEC3"
        },
        {
            "bufferView": 2,
            "byteOffset": 1064,
            "componentType": 5126,
            "count": 302,
            "max": [
                0.999500334262848,
                0.9995003938674928
            ],
            "min": [
                0.024314340204000474,
                0.0004996061325073242
            ],
            "type": "VEC2"
        },
        {
            "bufferView": 0,
            "byteOffset": 1638,
            "componentType": 5123,
            "count": 366,
            "max": [
                245
            ],
            "min": [
                0
            ],
            "type": "SCALAR"
        },
        {
            "bufferView": 1,
            "byteOffset": 10440,
            "componentType": 5126,
            "count": 246,
            "max": [
                0.9834532141685486,
                0.9997358918190002,
                0.0
            ],
            "min": [
                -0.9981462359428406,
                -0.9998741149902344,
                0.0
            ],
            "type": "VEC3"
        },
        {
            "bufferView": 1,
            "byteOffset": 13392,
            "componentType": 5126,
            "count": 246,
            "max": [
                273.73748779296877,
                94.82762908935549,
                196.25360107421876
            ],
            "min": [
                -144.69439697265626,
                -54.97239685058594,
                -96.91012573242188
            ],
            "type": "VEC3"
        },
        {
            "bufferView": 2,
            "byteOffset": 3480,
            "componentType": 5126,
            "count": 246,
            "max": [
                0.9995005130767822,
                0.9995005130767822
            ],
            "min": [
                0.007916748523712159,
                0.0004994869232177734
            ],
            "type": "VEC2"
        },
        {
            "bufferView": 0,
            "byteOffset": 2370,
            "componentType": 5123,
            "count": 798,
            "max": [
                641
            ],
            "min": [
                0
            ],
            "type": "SCALAR"
        },
        {
            "bufferView": 1,
            "byteOffset": 16344,
            "componentType": 5126,
            "count": 642,
            "max": [
                0.7710825800895691,
                0.7714568972587586,
                0.7807176113128662
            ],
            "min": [
                -0.7715725898742676,
                -0.7716143131256104,
                0.6360688209533691
            ],
            "type": "VEC3"
        },
        {
            "bufferView": 1,
            "byteOffset": 24048,
            "componentType": 5126,
            "count": 642,
            "max": [
                273.73748779296877,
                425.5977783203125,
                196.25360107421876
            ],
            "min": [
                -250.0927886962891,
                -231.8120880126953,
                -103.01129913330078
            ],
            "type": "VEC3"
        },
        {
            "bufferView": 2,
            "byteOffset": 5448,
            "componentType": 5126,
            "count": 642,
            "max": [
                4.997501850128174,
                1.0
            ],
            "min": [
                0.0,
                -3.997501850128174
            ],
            "type": "VEC2"
        },
        {
            "bufferView": 0,
            "byteOffset": 3966,
            "componentType": 5123,
            "count": 387,
            "max": [
                132
            ],
            "min": [
                0
            ],
            "type": "SCALAR"
        },
        {
            "bufferView": 1,
            "byteOffset": 31752,
            "componentType": 5126,
            "count": 133,
            "max": [
                6.578720217476075e-7,
                4.5213198518467847e-7,
                1.0
            ],
            "min": [
                -4.498510008943413e-7,
                -0.000001413680024597852,
                0.9999999403953552
            ],
            "type": "VEC3"
        },
        {
            "bufferView": 1,
            "byteOffset": 33348,
            "componentType": 5126,
            "count": 133,
            "max": [
                269.552490234375,
                421.3952941894531,
                192.96409606933598
            ],
            "min": [
                -245.9617919921875,
                -227.69369506835936,
                -103.01129913330078
            ],
            "type": "VEC3"
        },
        {
            "bufferView": 2,
            "byteOffset": 10584,
            "componentType": 5126,
            "count": 133,
            "max": [
                4.997501850128174,
                0.9975025653839112
            ],
            "min": [
                0.002497732872143388,
                -3.997501850128174
            ],
            "type": "VEC2"
        },
        {
            "bufferView": 0,
            "byteOffset": 4740,
            "componentType": 5123,
            "count": 432,
            "max": [
                301
            ],
            "min": [
                0
            ],
            "type": "SCALAR"
        },
        {
            "bufferView": 1,
            "byteOffset": 34944,
            "componentType": 5126,
            "count": 302,
            "max": [
                0.999923586845398,
                0.9999772906303406,
                2.5654900426275164e-9
            ],
            "min": [
                -0.9992886185646056,
                -0.9997738003730774,
                0.0
            ],
            "type": "VEC3"
        },
        {
            "bufferView": 1,
            "byteOffset": 38568,
            "componentType": 5126,
            "count": 302,
            "max": [
                273.00048828125,
                425.5977783203125,
                -98.02542114257813
            ],
            "min": [
                -250.0927886962891,
                -231.8120880126953,
                -175.90301513671876
            ],
            "type": "VEC3"
        },
        {
            "bufferView": 2,
            "byteOffset": 11648,
            "componentType": 5126,
            "count": 302,
            "max": [
                0.999500334262848,
                0.9995003938674928
            ],
            "min": [
                0.024314340204000474,
                0.0004996061325073242
            ],
            "type": "VEC2"
        },
        {
            "bufferView": 0,
            "byteOffset": 5604,
            "componentType": 5123,
            "count": 366,
            "max": [
                245
            ],
            "min": [
                0
            ],
            "type": "SCALAR"
        },
        {
            "bufferView": 1,
            "byteOffset": 42192,
            "componentType": 5126,
            "count": 246,
            "max": [
                0.9834532141685486,
                0.9997358918190002,
                0.0
            ],
            "min": [
                -0.9981462359428406,
                -0.9998741149902344,
                0.0
            ],
            "type": "VEC3"
        },
        {
            "bufferView": 1,
            "byteOffset": 45144,
            "componentType": 5126,
            "count": 246,
            "max": [
                273.73748779296877,
                94.82762908935549,
                196.25360107421876
            ],
            "min": [
                -144.69439697265626,
                -54.97239685058594,
                -96.91012573242188
            ],
            "type": "VEC3"
        },
        {
            "bufferView": 2,
            "byteOffset": 14064,
            "componentType": 5126,
            "count": 246,
            "max": [
                0.9995005130767822,
                0.9995005130767822
            ],
            "min": [
                0.007916748523712159,
                0.0004994869232177734
            ],
            "type": "VEC2"
        },
        {
            "bufferView": 0,
            "byteOffset": 6336,
            "componentType": 5123,
            "count": 798,
            "max": [
                641
            ],
            "min": [
                0
            ],
            "type": "SCALAR"
        },
        {
            "bufferView": 1,
            "byteOffset": 48096,
            "componentType": 5126,
            "count": 642,
            "max": [
                0.7710825800895691,
                0.7714568972587586,
                0.7807176113128662
            ],
            "min": [
                -0.7715725898742676,
                -0.7716143131256104,
                0.6360688209533691
            ],
            "type": "VEC3"
        },
        {
            "bufferView": 1,
            "byteOffset": 55800,
            "componentType": 5126,
            "count": 642,
            "max": [
                273.73748779296877,
                425.5977783203125,
                196.25360107421876
            ],
            "min": [
                -250.0927886962891,
                -231.8120880126953,
                -103.01129913330078
            ],
            "type": "VEC3"
        },
        {
            "bufferView": 2,
            "byteOffset": 16032,
            "componentType": 5126,
            "count": 642,
            "max": [
                4.997501850128174,
                1.0
            ],
            "min": [
                0.0,
                -3.997501850128174
            ],
            "type": "VEC2"
        }
    ],
    "materials": [
        {
            "pbrMetallicRoughness": {
                "baseColorTexture": {
                    "index": 0
                },
                "metallicFactor": 0.0
            },
            "emissiveFactor": [
                0.0,
                0.0,
                0.0
            ],
            "occlusionTexture": {
                "index": 0
            },
            "name": "Material__2100479124",
            "doubleSided": true
        },
        {
            "pbrMetallicRoughness": {
                "baseColorTexture": {
                    "index": 1
                },
                "metallicFactor": 0.0
            },
            "emissiveFactor": [
                0.0,
                0.0,
                0.0
            ],
            "occlusionTexture": {
                "index": 1
            },
            "name": "Material__2100479149",
            "doubleSided": true
        },
        {
            "pbrMetallicRoughness": {
                "baseColorTexture": {
                    "index": 2
                },
                "metallicFactor": 0.0
            },
            "emissiveFactor": [
                0.0,
                0.0,
                0.0
            ],
            "occlusionTexture": {
                "index": 2
            },
            "name": "Material__2100479136",
            "doubleSided": true
        },
        {
            "pbrMetallicRoughness": {
                "baseColorTexture": {
                    "index": 3
                },
                "metallicFactor": 0.0
            },
            "emissiveFactor": [
                0.0,
                0.0,
                0.0
            ],
            "occlusionTexture": {
                "index": 3
            },
            "name": "Material__2100479162",
            "doubleSided": true
        },
        {
            "pbrMetallicRoughness": {
                "baseColorTexture": {
                    "index": 0
                },
                "metallicFactor": 0.0
            },
            "emissiveFactor": [
                0.0,
                0.0,
                0.0
            ],
            "occlusionTexture": {
                "index": 0
            },
            "name": "Material__2100479124",
            "doubleSided": true
        },
        {
            "pbrMetallicRoughness": {
                "baseColorTexture": {
                    "index": 1
                },
                "metallicFactor": 0.0
            },
            "emissiveFactor": [
                0.0,
                0.0,
                0.0
            ],
            "occlusionTexture": {
                "index": 1
            },
            "name": "Material__2100479149",
            "doubleSided": true
        },
        {
            "pbrMetallicRoughness": {
                "baseColorTexture": {
                    "index": 2
                },
                "metallicFactor": 0.0
            },
            "emissiveFactor": [
                0.0,
                0.0,
                0.0
            ],
            "occlusionTexture": {
                "index": 2
            },
            "name": "Material__2100479136",
            "doubleSided": true
        },
        {
            "pbrMetallicRoughness": {
                "baseColorTexture": {
                    "index": 3
                },
                "metallicFactor": 0.0
            },
            "emissiveFactor": [
                0.0,
                0.0,
                0.0
            ],
            "occlusionTexture": {
                "index": 3
            },
            "name": "Material__2100479162",
            "doubleSided": true
        }
    ],
    "textures": [
        {
            "sampler": 0,
            "source": 0
        },
        {
            "sampler": 0,
            "source": 1
        },
        {
            "sampler": 0,
            "source": 2
        },
        {
            "sampler": 0,
            "source": 3
        }
    ],
    "images": [
        {
            "uri": "data:image/jpeg;base64,"
        },
        {
            "uri": "data:image/png;base64,"
        },
        {
            "uri": "data:image/png;base64,"
        },
        {
            "uri": "data:image/jpeg;base64,"
        }
    ],
    "samplers": [
        {
            "magFilter": 9729,
            "minFilter": 9986,
            "wrapS": 10497,
            "wrapT": 10497
        }
    ],
    "bufferViews": [
        {
            "buffer": 0,
            "byteOffset": 84672,
            "byteLength": 7932,
            "target": 34963
        },
        {
            "buffer": 0,
            "byteOffset": 0,
            "byteLength": 63504,
            "byteStride": 12,
            "target": 34962
        },
        {
            "buffer": 0,
            "byteOffset": 63504,
            "byteLength": 21168,
            "byteStride": 8,
            "target": 34962
        }
    ],
    "buffers": [
        {
            "byteLength": 92604,
            "uri": "data:application/octet-stream;base64,"
        }
    ]
}
