{
    "asset": {
        "generator": "COLLADA2GLTF",
        "version": "2.0"
    },
    "scene": 0,
    "scenes": [
        {
            "nodes": [
                0
            ]
        }
    ],
    "nodes": [
        {
            "children": [
                1
            ],
            "matrix": [
                1.0,
                0.0,
                0.0,
                0.0,
                0.0,
                0.0,
                -1.0,
                0.0,
                0.0,
                1.0,
                0.0,
                0.0,
                0.0,
                0.0,
                0.0,
                1.0
            ]
        },
        {
            "children": [
                2
            ],
            "matrix": [
                1.0,
                0.0,
                0.0,
                0.0,
                0.0,
                1.0,
                0.0,
                0.0,
                0.0,
                0.0,
                1.0,
                0.0,
                2136.81005859375,
                2026.694091796875,
                280.2436828613281,
                1.0
            ]
        },
        {
            "mesh": 0,
            "matrix": [
                1.0,
                0.0,
                0.0,
                0.0,
                0.0,
                1.0,
                0.0,
                0.0,
                0.0,
                0.0,
                1.0,
                0.0,
                -37.21850967407227,
                -62.55687713623047,
                -149.30538940429688,
                1.0
            ]
        }
    ],
    "meshes": [
        {
            "primitives": [
                {
                    "attributes": {
                        "NORMAL": 1,
                        "POSITION": 2,
                        "TEXCOORD_0": 3
                    },
                    "indices": 0,
                    "mode": 4,
                    "material": 0
                },
                {
                    "attributes": {
                        "NORMAL": 5,
                        "POSITION": 6,
                        "TEXCOORD_0": 7
                    },
                    "indices": 4,
                    "mode": 4,
                    "material": 1
                },
                {
                    "attributes": {
                        "NORMAL": 9,
                        "POSITION": 10,
                        "TEXCOORD_0": 11
                    },
                    "indices": 8,
                    "mode": 4,
                    "material": 2
                },
                {
                    "attributes": {
                        "NORMAL": 13,
                        "POSITION": 14,
                        "TEXCOORD_0": 15
                    },
                    "indices": 12,
                    "mode": 4,
                    "material": 3
                },
                {
                    "attributes": {
                        "NORMAL": 17,
                        "POSITION": 18,
                        "TEXCOORD_0": 19
                    },
                    "indices": 16,
                    "mode": 4,
                    "material": 4
                },
                {
                    "attributes": {
                        "NORMAL": 21,
                        "POSITION": 22,
                        "TEXCOORD_0": 23
                    },
                    "indices": 20,
                    "mode": 4,
                    "material": 5
                },
                {
                    "attributes": {
                        "NORMAL": 25,
                        "POSITION": 26,
                        "TEXCOORD_0": 27
                    },
                    "indices": 24,
                    "mode": 4,
                    "material": 6
                }
            ],
            "name": "Line3117628"
        }
    ],
    "accessors": [
        {
            "bufferView": 0,
            "byteOffset": 0,
            "componentType": 5123,
            "count": 6,
            "max": [
                3
            ],
            "min": [
                0
            ],
            "type": "SCALAR"
        },
        {
            "bufferView": 1,
            "byteOffset": 0,
            "componentType": 5126,
            "count": 4,
            "max": [
                0.0,
                0.0,
                1.0
            ],
            "min": [
                0.0,
                0.0,
                0.9999999403953552
            ],
            "type": "VEC3"
        },
        {
            "bufferView": 1,
            "byteOffset": 48,
            "componentType": 5126,
            "count": 4,
            "max": [
                195.79129028320313,
                223.70379638671876,
                59.21969985961914
            ],
            "min": [
                -121.44519805908205,
                -98.5345687866211,
                59.21969985961914
            ],
            "type": "VEC3"
        },
        {
            "bufferView": 2,
            "byteOffset": 0,
            "componentType": 5126,
            "count": 4,
            "max": [
                9.995004653930664,
                0.99500572681427
            ],
            "min": [
                0.004995166789740324,
                -8.995004653930664
            ],
            "type": "VEC2"
        },
        {
            "bufferView": 0,
            "byteOffset": 12,
            "componentType": 5123,
            "count": 24,
            "max": [
                15
            ],
            "min": [
                0
            ],
            "type": "SCALAR"
        },
        {
            "bufferView": 1,
            "byteOffset": 96,
            "componentType": 5126,
            "count": 16,
            "max": [
                0.859435498714447,
                0.8709993362426758,
                0.0
            ],
            "min": [
                -0.8637807369232178,
                -0.8628425002098084,
                0.0
            ],
            "type": "VEC3"
        },
        {
            "bufferView": 1,
            "byteOffset": 288,
            "componentType": 5126,
            "count": 16,
            "max": [
                203.69869995117188,
                231.45449829101566,
                59.273677825927737
            ],
            "min": [
                -129.26170349121098,
                -106.34089660644533,
                0.0
            ],
            "type": "VEC3"
        },
        {
            "bufferView": 2,
            "byteOffset": 32,
            "componentType": 5126,
            "count": 16,
            "max": [
                1.3168259859085084,
                0.9994504451751708
            ],
            "min": [
                0.0009989739628508688,
                -0.0994499921798706
            ],
            "type": "VEC2"
        },
        {
            "bufferView": 0,
            "byteOffset": 60,
            "componentType": 5123,
            "count": 24,
            "max": [
                17
            ],
            "min": [
                0
            ],
            "type": "SCALAR"
        },
        {
            "bufferView": 1,
            "byteOffset": 480,
            "componentType": 5126,
            "count": 18,
            "max": [
                0.008152008056640625,
                0.008143153972923756,
                0.9999555349349976
            ],
            "min": [
                -0.008110999129712582,
                -0.008220136165618897,
                0.999955415725708
            ],
            "type": "VEC3"
        },
        {
            "bufferView": 1,
            "byteOffset": 696,
            "componentType": 5126,
            "count": 18,
            "max": [
                203.69869995117188,
                231.45449829101566,
                59.273677825927737
            ],
            "min": [
                -129.26170349121098,
                -106.34089660644533,
                59.21969985961914
            ],
            "type": "VEC3"
        },
        {
            "bufferView": 2,
            "byteOffset": 160,
            "componentType": 5126,
            "count": 18,
            "max": [
                9.995004653930664,
                0.99500572681427
            ],
            "min": [
                0.0009989739628508688,
                -8.995004653930664
            ],
            "type": "VEC2"
        },
        {
            "bufferView": 0,
            "byteOffset": 108,
            "componentType": 5123,
            "count": 6,
            "max": [
                3
            ],
            "min": [
                0
            ],
            "type": "SCALAR"
        },
        {
            "bufferView": 1,
            "byteOffset": 912,
            "componentType": 5126,
            "count": 4,
            "max": [
                0.0,
                0.0,
                1.0
            ],
            "min": [
                0.0,
                0.0,
                1.0
            ],
            "type": "VEC3"
        },
        {
            "bufferView": 1,
            "byteOffset": 960,
            "componentType": 5126,
            "count": 4,
            "max": [
                199.2602996826172,
                223.8227996826172,
                298.6106872558594
            ],
            "min": [
                -51.935546875,
                14.401119232177737,
                298.6106872558594
            ],
            "type": "VEC3"
        },
        {
            "bufferView": 2,
            "byteOffset": 304,
            "componentType": 5126,
            "count": 4,
            "max": [
                1.2993509769439698,
                0.9992507100105286
            ],
            "min": [
                0.0006493719993159175,
                -0.4992510080337525
            ],
            "type": "VEC2"
        },
        {
            "bufferView": 0,
            "byteOffset": 120,
            "componentType": 5123,
            "count": 24,
            "max": [
                17
            ],
            "min": [
                0
            ],
            "type": "SCALAR"
        },
        {
            "bufferView": 1,
            "byteOffset": 1008,
            "componentType": 5126,
            "count": 18,
            "max": [
                0.8658645153045654,
                0.873125433921814,
                0.0
            ],
            "min": [
                -0.8757961392402649,
                -0.864754319190979,
                0.0
            ],
            "type": "VEC3"
        },
        {
            "bufferView": 1,
            "byteOffset": 1224,
            "componentType": 5126,
            "count": 18,
            "max": [
                199.2602996826172,
                223.8227996826172,
                298.6106872558594
            ],
            "min": [
                -51.935546875,
                14.401119232177737,
                58.90813827514649
            ],
            "type": "VEC3"
        },
        {
            "bufferView": 2,
            "byteOffset": 336,
            "componentType": 5126,
            "count": 18,
            "max": [
                1.023697018623352,
                0.9992507100105286
            ],
            "min": [
                0.0006493330001831055,
                -0.4992510080337525
            ],
            "type": "VEC2"
        },
        {
            "bufferView": 0,
            "byteOffset": 168,
            "componentType": 5123,
            "count": 6,
            "max": [
                3
            ],
            "min": [
                0
            ],
            "type": "SCALAR"
        },
        {
            "bufferView": 1,
            "byteOffset": 1440,
            "componentType": 5126,
            "count": 4,
            "max": [
                0.0,
                0.0,
                1.0
            ],
            "min": [
                0.0,
                0.0,
                0.9999999403953552
            ],
            "type": "VEC3"
        },
        {
            "bufferView": 1,
            "byteOffset": 1488,
            "componentType": 5126,
            "count": 4,
            "max": [
                135.77919006347657,
                66.41849517822266,
                206.71539306640626
            ],
            "min": [
                -14.36893939971924,
                -100.13240051269533,
                206.71539306640626
            ],
            "type": "VEC3"
        },
        {
            "bufferView": 2,
            "byteOffset": 480,
            "componentType": 5126,
            "count": 4,
            "max": [
                0.9995003938674928,
                0.9995003938674928
            ],
            "min": [
                0.0004995469935238361,
                0.0004996061325073242
            ],
            "type": "VEC2"
        },
        {
            "bufferView": 0,
            "byteOffset": 180,
            "componentType": 5123,
            "count": 24,
            "max": [
                15
            ],
            "min": [
                0
            ],
            "type": "SCALAR"
        },
        {
            "bufferView": 1,
            "byteOffset": 1536,
            "componentType": 5126,
            "count": 16,
            "max": [
                0.8644741177558899,
                0.875441312789917,
                0.0
            ],
            "min": [
                -0.8719457387924194,
                -0.8678730130195618,
                0.0
            ],
            "type": "VEC3"
        },
        {
            "bufferView": 1,
            "byteOffset": 1728,
            "componentType": 5126,
            "count": 16,
            "max": [
                135.77919006347657,
                66.41849517822266,
                206.71539306640626
            ],
            "min": [
                -14.36893939971924,
                -100.13240051269533,
                58.90813827514649
            ],
            "type": "VEC3"
        },
        {
            "bufferView": 2,
            "byteOffset": 512,
            "componentType": 5126,
            "count": 16,
            "max": [
                0.7271338105201721,
                0.9995004534721376
            ],
            "min": [
                0.0004995469935238361,
                0.0004996061325073242
            ],
            "type": "VEC2"
        }
    ],
    "materials": [
        {
            "pbrMetallicRoughness": {
                "baseColorTexture": {
                    "index": 0
                },
                "metallicFactor": 0.0
            },
            "emissiveFactor": [
                0.0,
                0.0,
                0.0
            ],
            "occlusionTexture": {
                "index": 0
            },
            "name": "Material__2100479241",
            "doubleSided": true
        },
        {
            "pbrMetallicRoughness": {
                "baseColorTexture": {
                    "index": 1
                },
                "metallicFactor": 0.0
            },
            "emissiveFactor": [
                0.0,
                0.0,
                0.0
            ],
            "occlusionTexture": {
                "index": 1
            },
            "name": "Material__2100479240",
            "doubleSided": true
        },
        {
            "pbrMetallicRoughness": {
                "baseColorTexture": {
                    "index": 2
                },
                "metallicFactor": 0.0
            },
            "emissiveFactor": [
                0.0,
                0.0,
                0.0
            ],
            "occlusionTexture": {
                "index": 2
            },
            "name": "Material__2100479253",
            "doubleSided": true
        },
        {
            "pbrMetallicRoughness": {
                "baseColorTexture": {
                    "index": 3
                },
                "metallicFactor": 0.0
            },
            "emissiveFactor": [
                0.0,
                0.0,
                0.0
            ],
            "occlusionTexture": {
                "index": 3
            },
            "name": "Material__2100479280",
            "doubleSided": true
        },
        {
            "pbrMetallicRoughness": {
                "baseColorTexture": {
                    "index": 4
                },
                "metallicFactor": 0.0
            },
            "emissiveFactor": [
                0.0,
                0.0,
                0.0
            ],
            "occlusionTexture": {
                "index": 4
            },
            "name": "Material__2100479266",
            "doubleSided": true
        },
        {
            "pbrMetallicRoughness": {
                "baseColorTexture": {
                    "index": 5
                },
                "metallicFactor": 0.0
            },
            "emissiveFactor": [
                0.0,
                0.0,
                0.0
            ],
            "occlusionTexture": {
                "index": 5
            },
            "name": "Material__2100479268",
            "doubleSided": true
        },
        {
            "pbrMetallicRoughness": {
                "baseColorTexture": {
                    "index": 6
                },
                "metallicFactor": 0.0
            },
            "emissiveFactor": [
                0.0,
                0.0,
                0.0
            ],
            "occlusionTexture": {
                "index": 6
            },
            "name": "Material__2100479267",
            "doubleSided": true
        }
    ],
    "textures": [
        {
            "sampler": 0,
            "source": 0
        },
        {
            "sampler": 0,
            "source": 1
        },
        {
            "sampler": 0,
            "source": 2
        },
        {
            "sampler": 0,
            "source": 0
        },
        {
            "sampler": 0,
            "source": 3
        },
        {
            "sampler": 0,
            "source": 0
        },
        {
            "sampler": 0,
            "source": 3
        }
    ],
    "images": [
        {
            "uri": "data:image/jpeg;base64,"
        },
        {
            "uri": "data:image/png;base64,"
        },
        {
            "uri": "data:image/jpeg;base64,"
        },
        {
            "uri": "data:image/png;base64,"
        }
    ],
    "samplers": [
        {
            "magFilter": 9729,
            "minFilter": 9986,
            "wrapS": 10497,
            "wrapT": 10497
        }
    ],
    "bufferViews": [
        {
            "buffer": 0,
            "byteOffset": 2560,
            "byteLength": 228,
            "target": 34963
        },
        {
            "buffer": 0,
            "byteOffset": 0,
            "byteLength": 1920,
            "byteStride": 12,
            "target": 34962
        },
        {
            "buffer": 0,
            "byteOffset": 1920,
            "byteLength": 640,
            "byteStride": 8,
            "target": 34962
        }
    ],
    "buffers": [
        {
            "byteLength": 2788,
            "uri": "data:application/octet-stream;base64,"
        }
    ]
}
