{
    "asset": {
        "generator": "COLLADA2GLTF",
        "version": "2.0"
    },
    "scene": 0,
    "scenes": [
        {
            "nodes": [
                0
            ]
        }
    ],
    "nodes": [
        {
            "children": [
                1
            ],
            "matrix": [
                1.0,
                0.0,
                0.0,
                0.0,
                0.0,
                0.0,
                -1.0,
                0.0,
                0.0,
                1.0,
                0.0,
                0.0,
                0.0,
                0.0,
                0.0,
                1.0
            ]
        },
        {
            "children": [
                3,
                2
            ],
            "matrix": [
                -0.4394453465938568,
                -0.8982693552970886,
                0.0,
                0.0,
                0.8982693552970886,
                -0.4394453465938568,
                0.0,
                0.0,
                0.0,
                0.0,
                1.0,
                0.0,
                -1146.1810302734376,
                1030.8140869140626,
                137.90000915527345,
                1.0
            ]
        },
        {
            "mesh": 0,
            "matrix": [
                -2.306056261062622,
                -4.4364519119262699,
                0.0,
                0.0,
                4.4364519119262699,
                -2.306056261062622,
                0.0,
                0.0,
                0.0,
                0.0,
                1.0,
                0.0,
                0.0,
                0.0,
                -0.4630737006664276,
                1.0
            ]
        },
        {
            "children": [
                4
            ],
            "matrix": [
                -2.306056261062622,
                -4.4364519119262699,
                0.0,
                0.0,
                4.4364519119262699,
                -2.306056261062622,
                0.0,
                0.0,
                0.0,
                0.0,
                1.0,
                0.0,
                1.83502197265625,
                5.638671875,
                0.45037841796875,
                1.0
            ]
        },
        {
            "mesh": 1,
            "matrix": [
                1.0,
                0.0,
                0.0,
                0.0,
                0.0,
                1.0,
                0.0,
                0.0,
                0.0,
                0.0,
                1.0,
                0.0,
                -34.96416854858399,
                -15.945619583129885,
                0.0,
                1.0
            ]
        }
    ],
    "meshes": [
        {
            "primitives": [
                {
                    "attributes": {
                        "NORMAL": 1,
                        "POSITION": 2,
                        "TEXCOORD_0": 3
                    },
                    "indices": 0,
                    "mode": 4,
                    "material": 0
                }
            ],
            "name": "Plane001"
        },
        {
            "primitives": [
                {
                    "attributes": {
                        "NORMAL": 5,
                        "POSITION": 6
                    },
                    "indices": 4,
                    "mode": 4,
                    "material": 1
                }
            ],
            "name": "Obj3d66-579447-9-77"
        }
    ],
    "accessors": [
        {
            "bufferView": 0,
            "byteOffset": 0,
            "componentType": 5123,
            "count": 96,
            "max": [
                45
            ],
            "min": [
                0
            ],
            "type": "SCALAR"
        },
        {
            "bufferView": 1,
            "byteOffset": 0,
            "componentType": 5126,
            "count": 46,
            "max": [
                0.0,
                0.0,
                1.0
            ],
            "min": [
                0.0,
                0.0,
                0.9999999403953552
            ],
            "type": "VEC3"
        },
        {
            "bufferView": 1,
            "byteOffset": 552,
            "componentType": 5126,
            "count": 46,
            "max": [
                36.095890045166019,
                31.39477920532227,
                0.0
            ],
            "min": [
                -36.095890045166019,
                -31.39477920532227,
                0.0
            ],
            "type": "VEC3"
        },
        {
            "bufferView": 2,
            "byteOffset": 0,
            "componentType": 5126,
            "count": 46,
            "max": [
                5.0,
                1.0
            ],
            "min": [
                0.0,
                -4.0
            ],
            "type": "VEC2"
        },
        {
            "bufferView": 0,
            "byteOffset": 192,
            "componentType": 5123,
            "count": 2412,
            "max": [
                1576
            ],
            "min": [
                0
            ],
            "type": "SCALAR"
        },
        {
            "bufferView": 1,
            "byteOffset": 1104,
            "componentType": 5126,
            "count": 1577,
            "max": [
                0.0,
                0.0,
                1.0
            ],
            "min": [
                0.0,
                0.0,
                0.9999999403953552
            ],
            "type": "VEC3"
        },
        {
            "bufferView": 1,
            "byteOffset": 20028,
            "componentType": 5126,
            "count": 1577,
            "max": [
                66.51097869873047,
                41.548828125,
                0.01269999984651804
            ],
            "min": [
                3.417372941970825,
                -9.65756893157959,
                -0.01269999984651804
            ],
            "type": "VEC3"
        }
    ],
    "materials": [
        {
            "pbrMetallicRoughness": {
                "baseColorTexture": {
                    "index": 0
                },
                "metallicFactor": 0.0
            },
            "emissiveFactor": [
                0.0,
                0.0,
                0.0
            ],
            "occlusionTexture": {
                "index": 0
            },
            "name": "Material__961"
        },
        {
            "pbrMetallicRoughness": {
                "baseColorFactor": [
                    0.8039215803146362,
                    0.8039215803146362,
                    0.8039215803146362,
                    1.0
                ],
                "metallicFactor": 0.0
            },
            "emissiveFactor": [
                0.0,
                0.0,
                0.0
            ],
            "name": "Mat3d66-579447-3-419"
        }
    ],
    "textures": [
        {
            "sampler": 0,
            "source": 0
        }
    ],
    "images": [
        {
            "uri": "data:image/jpeg;base64,"
        }
    ],
    "samplers": [
        {
            "magFilter": 9729,
            "minFilter": 9986,
            "wrapS": 10497,
            "wrapT": 10497
        }
    ],
    "bufferViews": [
        {
            "buffer": 0,
            "byteOffset": 39320,
            "byteLength": 5016,
            "target": 34963
        },
        {
            "buffer": 0,
            "byteOffset": 0,
            "byteLength": 38952,
            "byteStride": 12,
            "target": 34962
        },
        {
            "buffer": 0,
            "byteOffset": 38952,
            "byteLength": 368,
            "byteStride": 8,
            "target": 34962
        }
    ],
    "buffers": [
        {
            "byteLength": 44336,
            "uri": "data:application/octet-stream;base64,"
        }
    ]
}
